<svg width="121" height="25" viewBox="0 0 121 25" fill="none" xmlns="http://www.w3.org/2000/svg">
<path d="M8.73282 24.3336C7.70197 24.3382 6.68097 24.1345 5.732 23.7347C4.78303 23.335 3.92597 22.7476 3.213 22.0085C1.63676 20.4555 0.848633 18.3789 0.848633 15.7787C0.848633 13.2256 1.63676 11.1666 3.213 9.60182C3.92299 8.85761 4.77909 8.26576 5.72847 7.86282C6.67784 7.45987 7.70033 7.25438 8.73282 7.25903C11.3283 7.25903 13.4349 8.42087 15.0526 10.7445V0.857147H17.5103V23.9851H15.0526V20.6937C13.3904 23.1203 11.2839 24.3336 8.73282 24.3336ZM9.17725 22.1497C9.963 22.1499 10.7403 21.9884 11.46 21.6756C12.1798 21.3627 12.8265 20.9052 13.3593 20.3319C13.952 19.7238 14.415 19.0032 14.7205 18.2132C15.0259 17.4233 15.1676 16.5802 15.1371 15.7346C15.1641 14.9019 15.0205 14.0725 14.7149 13.2967C14.4093 12.5208 13.9481 11.8146 13.3593 11.221C12.8235 10.6534 12.1756 10.2014 11.4561 9.89322C10.7366 9.58504 9.96087 9.42727 9.17725 9.42975C8.40233 9.41155 7.6323 9.55622 6.91768 9.85429C6.20305 10.1524 5.56 10.5971 5.03072 11.1593C3.92261 12.3094 3.36855 13.8565 3.36855 15.8007C3.33278 16.6366 3.46398 17.4711 3.75459 18.2564C4.0452 19.0416 4.48949 19.762 5.06183 20.376C5.58292 20.9432 6.21902 21.3945 6.92832 21.7001C7.63762 22.0058 8.40406 22.159 9.17725 22.1497Z" fill="white"/>
<path d="M24.4658 16.8023C24.5649 18.3178 25.2438 19.7383 26.3635 20.7731C27.4301 21.7411 28.8296 22.2668 30.2745 22.2423C31.2569 22.2416 32.2281 22.0353 33.1248 21.637C34.0215 21.2386 34.8236 20.6571 35.4787 19.9304L37.0076 21.2937C36.1732 22.2728 35.1317 23.0571 33.9572 23.591C32.7826 24.1248 31.504 24.3949 30.2122 24.3822C29.1213 24.4039 28.0375 24.2011 27.0294 23.7865C26.0213 23.3719 25.1106 22.7545 24.3547 21.9732C22.7695 20.3819 21.977 18.3229 21.977 15.7963C21.925 13.565 22.7361 11.3988 24.2436 9.74299C24.9454 8.94471 25.8148 8.30867 26.7906 7.87955C27.7665 7.45042 28.8251 7.23861 29.8923 7.259C32.2626 7.259 34.1351 8.08259 35.5099 9.72975C36.8846 11.3769 37.5765 13.4403 37.5853 15.9199C37.5853 16.2375 37.5853 16.5243 37.5542 16.7758L24.4658 16.8023ZM24.4658 14.8389H35.1099C35.0155 13.3912 34.4616 12.0103 33.5277 10.8945C33.0734 10.3681 32.5044 9.95107 31.8638 9.67513C31.2231 9.39918 30.5277 9.27152 29.83 9.30178C29.1515 9.29686 28.4795 9.43378 27.8577 9.70363C27.236 9.97348 26.6784 10.3702 26.2213 10.8681C25.1988 11.9518 24.5795 13.3495 24.4658 14.8301V14.8389Z" fill="white"/>
<path d="M49.3315 24.3689C48.2073 24.3908 47.0911 24.1779 46.0552 23.7438C45.0193 23.3098 44.0868 22.6645 43.3184 21.8497C42.5288 21.055 41.907 20.1117 41.4895 19.0753C41.0721 18.0388 40.8673 16.93 40.8873 15.814C40.8691 14.697 41.0759 13.5877 41.4957 12.5512C41.9155 11.5147 42.5397 10.5719 43.3317 9.77831C44.0978 8.96406 45.0279 8.31896 46.0616 7.88492C47.0953 7.45089 48.2094 7.23764 49.3315 7.25903C50.5783 7.25406 51.8119 7.51229 52.9505 8.01661C54.0891 8.52092 55.1066 9.2598 55.9357 10.1842L54.3713 11.8343C52.8366 10.2283 51.1448 9.42535 49.2959 9.42535C48.5031 9.41367 47.7172 9.57336 46.9927 9.89335C46.2683 10.2133 45.6226 10.6859 45.1005 11.2784C43.9608 12.5187 43.3492 14.149 43.3939 15.8272C43.3565 17.4968 43.9805 19.1142 45.1316 20.3319C45.6764 20.9306 46.3445 21.4059 47.0907 21.7256C47.8368 22.0453 48.6434 22.202 49.4559 22.185C51.2337 22.185 52.8929 21.3614 54.4335 19.7142L56.0646 21.2143C54.1506 23.3174 51.9062 24.3689 49.3315 24.3689Z" fill="white"/>
<path d="M91.299 24.3336C90.2675 24.3383 89.2458 24.1346 88.2961 23.7349C87.3464 23.3351 86.4885 22.7478 85.7747 22.0085C84.2014 20.4555 83.4148 18.3789 83.4148 15.7787C83.4148 13.2256 84.2014 11.1666 85.7747 9.60182C86.4852 8.85707 87.342 8.2649 88.2922 7.86194C89.2424 7.45897 90.2657 7.25378 91.299 7.25903C93.8944 7.25903 96.001 8.42087 97.6188 10.7445V0.857147H100.072V23.9851H97.6188V20.6937C95.9447 23.1203 93.8382 24.3336 91.299 24.3336ZM91.7434 22.1497C92.5291 22.1496 93.3063 21.988 94.026 21.6752C94.7458 21.3623 95.3925 20.905 95.9255 20.3319C96.5182 19.7238 96.9812 19.0032 97.2866 18.2132C97.5921 17.4233 97.7338 16.5802 97.7032 15.7346C97.7303 14.9019 97.5866 14.0725 97.281 13.2967C96.9754 12.5208 96.5143 11.8146 95.9255 11.221C95.3893 10.6538 94.7414 10.2021 94.022 9.89395C93.3025 9.5858 92.5269 9.4278 91.7434 9.42975C90.9684 9.41098 90.1982 9.55541 89.4835 9.85351C88.7688 10.1516 88.1258 10.5966 87.5969 11.1593C86.4917 12.3093 85.9377 13.8565 85.9347 15.8007C85.8989 16.6366 86.0301 17.4711 86.3208 18.2564C86.6114 19.0416 87.0556 19.762 87.628 20.376C88.1485 20.9439 88.7845 21.3956 89.494 21.7013C90.2034 22.0071 90.9701 22.1599 91.7434 22.1497Z" fill="white"/>
<path d="M107.032 16.8023C107.131 18.3178 107.81 19.7383 108.929 20.7731C109.996 21.7411 111.396 22.2668 112.84 22.2423C113.822 22.2415 114.793 22.0352 115.689 21.6369C116.585 21.2385 117.386 20.657 118.04 19.9304L119.574 21.2937C118.739 22.2728 117.698 23.0571 116.523 23.5909C115.349 24.1248 114.07 24.3949 112.778 24.3822C111.688 24.4059 110.605 24.2052 109.597 23.7929C108.589 23.3806 107.678 22.7655 106.921 21.9864C105.336 20.3951 104.543 18.3362 104.543 15.8095C104.488 13.5737 105.299 11.4021 106.81 9.74299C107.509 8.94655 108.375 8.31155 109.348 7.88247C110.321 7.45339 111.376 7.2406 112.44 7.259C114.811 7.259 116.683 8.08259 118.058 9.72975C119.433 11.3769 120.129 13.4403 120.147 15.9198C120.147 16.2375 120.147 16.5243 120.116 16.7758L107.032 16.8023ZM107.032 14.8389H117.658C117.565 13.3916 117.013 12.0107 116.08 10.8945C115.624 10.3738 115.056 9.96203 114.417 9.69005C113.778 9.41806 113.086 9.29288 112.392 9.32384C111.715 9.31703 111.044 9.45181 110.423 9.71938C109.802 9.98696 109.245 10.3813 108.787 10.8769C107.767 11.9583 107.147 13.3526 107.032 14.8301V14.8389Z" fill="white"/>
<path d="M62.06 20.3848C61.86 20.0186 61.6156 19.5024 61.4289 19.1406C61.3223 18.8583 61.1801 18.4833 61.0912 18.1965L61.0378 17.967C61.2386 18.6382 61.5175 19.2837 61.8689 19.8907C61.8964 20.0739 61.9614 20.2496 62.06 20.4069" fill="white"/>
<path d="M60.9312 17.6009C60.8823 17.3582 60.8156 17.0405 60.78 16.7979L60.8867 17.4641L60.9134 17.6009" fill="white"/>
<path d="M63.7976 22.5026L63.762 22.4717C63.5442 22.2555 63.2554 21.9644 63.0465 21.7349C62.8376 21.5055 62.5621 21.1349 62.3709 20.8525C62.2516 20.6879 62.1739 20.4973 62.1443 20.2966C62.524 20.8731 62.9618 21.4097 63.4509 21.8982C63.493 22.1295 63.6157 22.3388 63.7976 22.4894" fill="white"/>
<path d="M62.9978 9.0106C63.1889 8.80764 63.4422 8.5341 63.6378 8.33555L63.8956 8.10172C63.6422 8.33997 63.3089 8.67087 63.0734 8.93118L62.9978 9.0106Z" fill="white"/>
<path d="M62.1222 10.5725C62.385 10.0012 62.7163 9.4634 63.1088 8.9709C63.4309 8.73566 63.7712 8.52617 64.1266 8.34439C63.7316 8.78033 63.4023 9.27074 63.1488 9.80036C62.7804 10.0275 62.4325 10.2858 62.1089 10.5725" fill="white"/>
<path d="M61.4822 11.4284L61.7933 10.7842C62.0306 10.3313 62.3056 9.89889 62.6155 9.49149L62.651 9.43855L62.7621 9.30618C62.37 9.82278 62.039 10.3824 61.7755 10.9739C61.6911 11.1063 61.5755 11.2872 61.5044 11.4151" fill="white"/>
<path d="M63.4332 8.61352C63.8552 8.15803 64.3261 7.74969 64.8376 7.39579C65.1657 7.22992 65.5077 7.09263 65.8597 6.98547C65.3437 7.27016 64.8672 7.62017 64.442 8.02672C64.0889 8.19496 63.75 8.39119 63.4287 8.61352" fill="white"/>
<path d="M60.7266 14.3359L60.771 13.9477L60.8066 13.7271C60.8897 13.2102 61.0161 12.701 61.1843 12.2049L61.2599 11.9843C61.3506 11.793 61.4531 11.6074 61.5665 11.4284C61.3338 12.0535 61.1844 12.7061 61.1221 13.3697C60.9144 13.6558 60.7787 13.9871 60.7266 14.3359Z" fill="white"/>
<path d="M61.5044 12.902C61.5659 12.2555 61.7154 11.6203 61.9488 11.0137C62.2744 10.7169 62.6237 10.4469 62.9932 10.2063C62.7775 10.7722 62.6487 11.3671 62.611 11.9711C62.2196 12.2456 61.8524 12.5526 61.5133 12.8888" fill="white"/>
<path d="M65.0688 7.7576C65.4926 7.37694 65.9684 7.05759 66.4821 6.80901C66.8466 6.71636 67.2599 6.61929 67.8732 6.50458C67.3667 6.67744 66.8912 6.92912 66.4644 7.25021C66.0199 7.3914 65.5755 7.55465 65.0688 7.7576Z" fill="white"/>
<path d="M66.0064 8.34438C66.2273 7.92262 66.5293 7.54789 66.8953 7.24137L68.3264 6.75604C67.9733 6.98054 67.6769 7.28241 67.4597 7.63845L65.9976 8.33555" fill="white"/>
<path d="M63.802 9.42973C64.0473 8.92376 64.3713 8.45923 64.762 8.05317C65.1353 7.89434 65.5219 7.73109 66.1664 7.49725C65.7905 7.84066 65.4804 8.24872 65.2508 8.70174C64.5442 9.04147 64.2153 9.20471 63.802 9.42973Z" fill="white"/>
<path d="M67.1976 7.01636C67.628 6.72667 68.1042 6.51045 68.6064 6.37661C69.1975 6.28837 69.3042 6.27073 69.8952 6.20013C69.452 6.2617 69.0215 6.39275 68.6197 6.58839C68.2242 6.70752 67.6775 6.86635 67.1931 7.0296" fill="white"/>
<path d="M63.2776 11.5078C63.3078 10.924 63.4277 10.3482 63.6331 9.80035C64.1576 9.51357 64.3309 9.4165 65.0953 9.03265C64.9036 9.52463 64.7969 10.0452 64.7798 10.5725C64.2553 10.8901 63.762 11.1901 63.2776 11.5078Z" fill="white"/>
<path d="M65.5532 10.1224C65.5674 9.62331 65.6696 9.1305 65.8554 8.66647L67.3265 7.92084C67.1536 8.32234 67.0659 8.75488 67.0687 9.19151C66.5621 9.50918 66.3088 9.66801 65.5532 10.1224Z" fill="white"/>
<path d="M60.8866 16.9832C60.7284 16.2872 60.6582 15.5743 60.6777 14.861C60.7335 14.507 60.8704 14.1704 61.0777 13.8771C61.059 14.5833 61.1307 15.289 61.2911 15.9772C61.0838 16.2791 60.9457 16.6225 60.8866 16.9832Z" fill="white"/>
<path d="M62.7044 18.0597C62.3518 17.3997 62.0659 16.7065 61.8511 15.9905C62.204 15.6065 62.5842 15.2482 62.9888 14.9183C63.216 15.6132 63.4953 16.2901 63.8243 16.9435C63.4821 17.2611 63.0599 17.6582 62.7044 18.0597Z" fill="white"/>
<path d="M61.8776 19.4495C61.5217 18.8322 61.2384 18.1764 61.0332 17.4949C61.095 17.1398 61.2346 16.8024 61.4421 16.5067C61.6531 17.2225 61.9422 17.9134 62.3043 18.5671C62.0958 18.8273 61.9445 19.1278 61.8598 19.4495" fill="white"/>
<path d="M61.7088 15.4787C61.5436 14.8045 61.4659 14.112 61.4777 13.4182C61.8183 13.0705 62.1902 12.7544 62.5888 12.4741C62.5967 13.1348 62.6832 13.7924 62.8466 14.433C62.4446 14.7563 62.0645 15.1056 61.7088 15.4787Z" fill="white"/>
<path d="M63.4688 21.5761C62.983 21.0613 62.5443 20.5047 62.1577 19.9128C62.2432 19.5914 62.3945 19.2911 62.6021 19.0304C62.9931 19.6477 63.4267 20.2374 63.8999 20.7952C63.7097 21.023 63.569 21.2874 63.4866 21.5717" fill="white"/>
<path d="M64.2644 20.354C63.7952 19.7885 63.3661 19.1914 62.98 18.5671C63.2777 18.2494 63.5311 17.9759 64.091 17.4641C64.4668 18.1114 64.8808 18.7361 65.331 19.3348C64.9621 19.6657 64.5799 20.0054 64.2466 20.354" fill="white"/>
<path d="M63.5533 13.8771C63.3876 13.2576 63.2966 12.6207 63.2822 11.9799C63.7667 11.6578 64.0378 11.4814 64.7888 11.0093C64.8145 11.6075 64.9145 12.2002 65.0866 12.7741C64.5222 13.1756 64.0333 13.5197 63.5533 13.8815" fill="white"/>
<path d="M66.8731 14.4639C66.544 13.8796 66.2588 13.2721 66.0198 12.6461C66.5575 12.2535 67.0642 11.8829 67.5975 11.4725C67.8556 12.0534 68.1526 12.6164 68.4864 13.1579C67.9397 13.5991 67.6419 13.8595 66.8686 14.4816" fill="white"/>
<path d="M64.5133 16.3611C64.1847 15.7242 63.9054 15.0634 63.6777 14.3845C64.211 13.9786 64.4288 13.8153 65.2155 13.2462C65.4521 13.8902 65.7343 14.5167 66.0599 15.1213C65.4866 15.5625 64.9932 15.964 64.5133 16.3611Z" fill="white"/>
<path d="M65.8687 12.2049C65.6947 11.6582 65.5902 11.092 65.5576 10.5195C66.1043 10.1754 66.5798 9.87537 67.082 9.54446C67.132 10.0653 67.2516 10.5771 67.4376 11.0666C66.8954 11.4681 66.6243 11.6711 65.8687 12.2049Z" fill="white"/>
<path d="M66.0242 18.7568C65.5712 18.1423 65.1556 17.5014 64.7798 16.8376C65.322 16.3964 65.5264 16.2155 66.3264 15.5757C66.6508 16.1096 66.9886 16.6655 67.5619 17.4597L66.0242 18.7568Z" fill="white"/>
<path d="M68.384 16.7625C68.0018 16.2331 67.5707 15.6331 67.1396 14.9271C67.6952 14.4859 68.2152 14.0447 68.7663 13.6035C69.104 14.0933 69.4507 14.5962 70.0418 15.3419C69.464 15.8581 69.1751 16.114 68.384 16.7802" fill="white"/>
<path d="M67.7665 24.638L67.5087 24.5675C67.2224 24.4952 66.9405 24.4068 66.6643 24.3027L66.4821 24.2321C66.2421 24.1042 66.2288 24.0998 66.1399 23.9498C66.6154 24.2059 67.112 24.4214 67.6243 24.5939C67.6681 24.619 67.7142 24.6397 67.7621 24.6557" fill="white"/>
<path d="M66.1175 24.0512L65.9531 23.9718C65.4566 23.7198 64.9836 23.4245 64.5398 23.0894C64.362 22.9677 64.2379 22.783 64.1931 22.5732C64.6892 22.9938 65.2182 23.3745 65.7753 23.7115C65.8819 23.9012 65.8819 23.9012 66.1397 24.0512" fill="white"/>
<path d="M68.1531 24.744H68.0509L67.9753 24.7175L68.4198 24.8146L68.1709 24.766" fill="white"/>
<path d="M65.7487 23.4821C65.2059 23.1232 64.6904 22.725 64.2065 22.2909C64.2873 22.0285 64.4237 21.7863 64.6065 21.5805C65.0833 22.0478 65.5848 22.4896 66.1087 22.9042C65.9433 23.0615 65.8197 23.2571 65.7487 23.4733" fill="white"/>
<path d="M68.1975 23.8616C67.8152 23.6012 67.3797 23.3056 66.8286 22.86C67.1086 22.6218 67.313 22.4497 67.8552 22.0438C68.2997 22.4321 68.6241 22.7409 69.1885 23.1953C68.7708 23.4733 68.4686 23.6718 68.2063 23.8616" fill="white"/>
<path d="M67.5841 24.466C67.0807 24.2575 66.5948 24.0097 66.1309 23.7248C66.1997 23.5209 66.3189 23.3374 66.4775 23.1909C66.8731 23.4733 67.3219 23.791 67.873 24.113C67.6908 24.2807 67.6019 24.3645 67.5841 24.466Z" fill="white"/>
<path d="M66.4641 22.56C65.9456 22.1193 65.4501 21.6525 64.9797 21.1614C65.2597 20.8878 65.5042 20.654 66.0508 20.1907C66.473 20.6628 66.873 21.1084 67.4997 21.7085C67.1219 22.0041 66.7663 22.282 66.4641 22.56Z" fill="white"/>
<path d="M69.0641 24.8675H68.9663C68.6097 24.8184 68.2595 24.7311 67.9219 24.6072C67.9619 24.5101 67.9797 24.466 68.193 24.3028C68.5372 24.4894 68.8935 24.653 69.2596 24.7925C69.1975 24.8282 69.132 24.8577 69.0641 24.8807" fill="white"/>
<path d="M69.5485 24.6513C69.2907 24.519 68.9708 24.3513 68.5085 24.0645C68.833 23.8483 68.8996 23.8042 69.4774 23.4424C69.8018 23.7027 70.1307 23.9586 70.4596 24.2145C70.144 24.3689 69.8952 24.4925 69.5707 24.6557" fill="white"/>
<path d="M68.153 21.2143C67.7308 20.7731 67.2642 20.2834 66.7175 19.6392C67.5442 18.9642 67.8864 18.6862 68.2508 18.3774C68.6953 18.9024 69.0419 19.3569 69.6685 20.0495C68.9886 20.579 68.9886 20.579 68.153 21.2143Z" fill="white"/>
<path d="M72.1307 21.1658C71.2996 20.2834 71.1485 20.1069 70.8418 19.7672C71.344 19.3569 71.9129 18.8848 72.544 18.298C72.9884 18.7965 73.4328 19.2863 73.8462 19.7848C73.3395 20.226 72.864 20.6187 72.1307 21.1658Z" fill="white"/>
<path d="M69.8108 22.7806C69.4108 22.4144 68.993 22.035 68.5042 21.5585C69.3086 20.9584 69.5886 20.7511 70.0197 20.4202C70.6107 21.0467 70.6107 21.0467 71.3041 21.7438C70.7574 22.1232 70.4819 22.3174 69.8108 22.7586" fill="white"/>
<path d="M70.4952 19.3789C70.0152 18.8274 69.6374 18.395 69.073 17.6714C69.6374 17.1817 70.1752 16.7184 70.7441 16.189C71.2774 16.8243 71.2774 16.8243 72.1929 17.892C71.6774 18.3641 71.2374 18.7745 70.4952 19.3789Z" fill="white"/>
<path d="M71.0687 23.9013C70.7487 23.6145 70.4287 23.3277 70.1042 23.0453C70.5487 22.7497 71.0331 22.4497 71.5931 22.0614C71.9397 22.4232 72.2642 22.7629 72.5264 23.0762C72.0597 23.3497 71.6375 23.5924 71.0687 23.9013Z" fill="white"/>
<path d="M73.3307 22.56C73.0773 22.2423 72.8862 22.0173 72.4062 21.479C72.8907 21.1217 73.4862 20.6716 74.1262 20.1245C74.4501 20.5037 74.7471 20.9047 75.015 21.3246C74.5706 21.6952 74.0684 22.0791 73.3396 22.56" fill="white"/>
<path d="M69.5842 24.9072H69.2998C69.3531 24.9072 69.4198 24.8763 69.4731 24.8631C69.5931 24.8895 69.7531 24.9204 69.8731 24.9337H69.5842" fill="white"/>
<path d="M70.8596 24.8896H70.5085C70.7258 24.8732 70.9413 24.8393 71.153 24.7881V24.8278H71.1307L70.8552 24.8543" fill="white"/>
<path d="M70.2774 24.916C70.0927 24.8883 69.914 24.8301 69.7485 24.744C69.9663 24.6601 70.2374 24.5498 70.6374 24.3601C70.793 24.484 70.9414 24.6166 71.0818 24.7572C70.8102 24.841 70.5299 24.8943 70.2463 24.916" fill="white"/>
<path d="M71.6908 24.5719C71.5632 24.3886 71.414 24.2213 71.2463 24.0733C71.6508 23.8659 72.1041 23.6321 72.6996 23.288C72.8761 23.4874 73.0106 23.72 73.0952 23.9718C72.6378 24.1958 72.169 24.3961 71.6908 24.5719Z" fill="white"/>
<path d="M73.5574 24.2189C73.744 24.0513 73.8463 23.963 73.8685 23.7204C74.4032 23.4216 74.9197 23.0916 75.4151 22.7321C75.3717 22.9993 75.2423 23.2455 75.0462 23.4336C74.5707 23.7324 74.073 23.995 73.5574 24.2189Z" fill="white"/>
<path d="M72.0997 24.6998L71.6108 24.7969C71.7308 24.744 71.7353 24.7396 71.7264 24.6513C72.1983 24.4982 72.66 24.3155 73.1086 24.1042C73.1047 24.1883 73.0767 24.2695 73.0279 24.3383C72.9791 24.4071 72.9115 24.4606 72.833 24.4925C72.6152 24.5587 72.3219 24.6513 72.0997 24.6998Z" fill="white"/>
<path d="M73.8641 23.5615C73.8067 23.2805 73.6851 23.0163 73.5085 22.7894C74.0793 22.4189 74.6297 22.0183 75.1574 21.5894C75.3174 21.8785 75.41 22.1997 75.4285 22.5291C74.927 22.9021 74.4047 23.2468 73.8641 23.5615Z" fill="white"/>
<path d="M73.5707 24.2498L73.2507 24.3734L73.3974 24.3072C73.9106 24.1066 74.4057 23.8631 74.8773 23.5792C74.7929 23.6321 74.6862 23.7116 74.5973 23.7601C74.2663 23.9454 73.9233 24.109 73.5707 24.2498Z" fill="white"/>
<path d="M69.2776 6.40311C69.4875 6.32774 69.7011 6.26295 69.9176 6.20898H69.9442L69.2776 6.39429" fill="white"/>
<path d="M69.6863 6.46926C69.7823 6.38093 69.8848 6.29982 69.9929 6.22659H70.024C69.9263 6.29719 69.7929 6.39425 69.6863 6.46484" fill="white"/>
<path d="M68.1354 7.32076C68.3487 6.99301 68.6423 6.72433 68.9887 6.53984L69.9575 6.22217C69.6805 6.3209 69.4371 6.49523 69.2553 6.72514C68.9798 6.87515 68.6642 7.05163 68.1265 7.32076" fill="white"/>
<path d="M67.7664 8.73262C67.7527 8.33192 67.8318 7.93344 67.9975 7.56784C68.3531 7.37371 68.7575 7.12663 69.1397 6.91486C68.9915 7.20806 68.9299 7.53693 68.9619 7.86345C68.6686 8.09287 68.3308 8.35318 67.7664 8.74586" fill="white"/>
<path d="M69.4242 7.46639C69.3789 7.17855 69.4304 6.88389 69.5709 6.6281C69.7432 6.51288 69.9026 6.37977 70.0464 6.23102C69.97 6.39769 69.9604 6.58705 70.0198 6.76046C69.8538 7.02361 69.6502 7.2614 69.4154 7.46639" fill="white"/>
<path d="M70.139 6.4737C70.1173 6.39527 70.0998 6.31574 70.0864 6.23544H70.1215C70.1322 6.31597 70.1322 6.39758 70.1215 6.47811" fill="white"/>
<path d="M68.1708 10.5019C67.9787 10.0417 67.8501 9.55789 67.7886 9.06355C68.1619 8.79441 68.5885 8.48998 68.9974 8.14584C69.0872 8.5789 69.2367 8.99758 69.4418 9.39004C69.1219 9.68565 68.7619 10.0254 68.1663 10.5019" fill="white"/>
<path d="M71.1664 10.5239C70.8008 10.0941 70.4609 9.64332 70.1487 9.17385C70.424 8.8538 70.6653 8.50634 70.8687 8.13702C71.1086 8.41939 71.442 8.77677 71.9975 9.3018C71.7671 9.7404 71.4963 10.1569 71.1886 10.546" fill="white"/>
<path d="M69.2552 12.4961C68.9139 11.9795 68.6066 11.4416 68.3352 10.8857C68.7352 10.5504 69.1841 10.171 69.6285 9.72977C69.9254 10.229 70.2535 10.7094 70.6107 11.1681C70.2685 11.5255 69.8818 11.9314 69.2774 12.4917" fill="white"/>
<path d="M69.9531 8.86059C69.7398 8.50398 69.5782 8.11928 69.4731 7.71787C69.7119 7.49144 69.9196 7.23481 70.0909 6.95459C70.2397 7.28465 70.4325 7.59332 70.6642 7.8723C70.4709 8.23067 70.2319 8.56284 69.9531 8.86059Z" fill="white"/>
<path d="M70.8331 14.5963C70.4375 14.1065 69.9842 13.555 69.5398 12.9197C69.9576 12.527 70.4287 12.0858 70.9086 11.5564C71.2864 11.9976 71.6375 12.4388 72.2686 13.0918C71.9042 13.4977 71.4908 13.9742 70.8331 14.5963Z" fill="white"/>
<path d="M72.8862 12.324C72.4418 11.8828 71.9751 11.4152 71.4951 10.8769C71.8061 10.4694 72.0826 10.037 72.3218 9.58417C72.9217 10.1136 72.9217 10.1136 73.7795 10.8504C73.5331 11.3697 73.2354 11.8633 72.8906 12.324" fill="white"/>
<path d="M70.8285 7.4355C70.595 7.20008 70.3906 6.93792 70.2196 6.65456C70.2196 6.41631 70.2196 6.39425 70.144 6.24866C70.3929 6.4472 70.4462 6.48691 70.7751 6.72075C70.879 6.95144 70.8948 7.21175 70.8196 7.45315" fill="white"/>
<path d="M72.0819 7.23253L70.8197 6.5619C70.6487 6.40239 70.4436 6.28325 70.2197 6.21335C70.753 6.36336 70.8375 6.38542 71.3352 6.55308C71.6342 6.70826 71.8848 6.9417 72.0597 7.22812" fill="white"/>
<path d="M72.2062 8.69734C71.8418 8.39291 71.4329 8.04436 71.0552 7.66934C71.1426 7.41022 71.1426 7.12988 71.0552 6.87076C71.4685 7.1443 71.6418 7.25902 72.2818 7.66934C72.3558 8.01067 72.3374 8.36537 72.2285 8.69734" fill="white"/>
<path d="M70.5618 6.42514L70.1885 6.22659H70.2196C70.3391 6.28734 70.4549 6.35512 70.5662 6.42955" fill="white"/>
<path d="M74.015 10.1489C72.8862 9.26651 72.8862 9.26651 72.5439 8.97532C72.6558 8.62448 72.6787 8.25168 72.6106 7.88995L74.1128 8.8606C74.1665 9.29516 74.1333 9.73596 74.015 10.1577" fill="white"/>
<path d="M73.9661 8.27379C73.5217 8.01348 73.1084 7.78406 72.4417 7.42227C72.2719 7.12189 72.029 6.86856 71.7351 6.68546C72.1795 6.83546 72.6817 7.02518 73.3173 7.29432C73.6016 7.57104 73.8228 7.90503 73.9661 8.27379Z" fill="white"/>
<path d="M70.833 6.33247L70.2642 6.21335C70.4286 6.24864 70.6553 6.29277 70.8152 6.3413" fill="white"/>
<path d="M72.8329 6.90605C72.424 6.77369 71.8596 6.59279 71.2196 6.42514C70.9197 6.31417 70.6081 6.23721 70.2908 6.19571C70.9841 6.27071 71.073 6.27954 71.6241 6.36778C72.0544 6.48504 72.4637 6.66813 72.8373 6.91046" fill="white"/>
<path d="M70.922 6.21338L70.3042 6.17368C70.4864 6.17368 70.7486 6.17367 70.9175 6.2178" fill="white"/>
<path d="M73.0196 17.0802C72.1575 16.1184 71.8997 15.8272 71.5486 15.4213C71.993 14.9801 72.4952 14.4683 73.0108 13.855C73.5174 14.3713 74.0329 14.8786 74.5307 15.3993C74.1218 15.8934 73.7307 16.3567 73.0196 17.0802Z" fill="white"/>
<path d="M76.7794 16.3875C76.4372 15.9463 76.1172 15.5581 75.5083 14.9183C75.8606 14.375 76.1584 13.7987 76.3972 13.1976C76.8436 13.6295 77.265 14.0862 77.6594 14.5654C77.4211 15.199 77.1235 15.8091 76.7705 16.3875" fill="white"/>
<path d="M74.6907 19.0083C74.2063 18.4303 74.1041 18.3112 73.3574 17.4861C73.8945 16.946 74.4019 16.3774 74.8774 15.7831C75.2818 16.2243 75.7396 16.7317 76.1573 17.292C75.7102 17.898 75.22 18.4715 74.6907 19.0083Z" fill="white"/>
<path d="M75.1528 14.5477C74.5217 13.9212 74.4728 13.8683 73.6284 13.0653C73.9771 12.5774 74.2749 12.0555 74.5173 11.5078C75.0284 11.949 75.5128 12.3902 76.0239 12.8579C75.7825 13.448 75.4849 14.0138 75.135 14.5477" fill="white"/>
<path d="M75.8107 20.6143C75.5627 20.1749 75.2819 19.7546 74.9707 19.3569C75.4999 18.8344 75.9915 18.2756 76.4418 17.6847C76.7424 18.1048 77.0099 18.5473 77.2417 19.0083C76.8037 19.5725 76.3254 20.1048 75.8107 20.6011" fill="white"/>
<path d="M77.8372 18.1568C77.6137 17.6693 77.349 17.2014 77.0461 16.7582C77.3975 16.1711 77.695 15.5539 77.935 14.9139C78.2529 15.3446 78.5212 15.8093 78.735 16.2993C78.5082 16.949 78.2101 17.5719 77.8461 18.1568" fill="white"/>
<path d="M76.2861 12.0328C75.8195 11.6269 75.4861 11.3313 74.7839 10.7622C74.9025 10.3089 74.9386 9.83825 74.8906 9.37238C75.3706 9.70328 75.8639 10.0474 76.4061 10.471C76.4501 10.9946 76.4096 11.5219 76.2861 12.0328Z" fill="white"/>
<path d="M77.9084 11.0975C77.5071 10.7092 77.0827 10.3453 76.6373 10.0077C76.5114 9.52733 76.3089 9.07005 76.0374 8.65323C76.4901 8.92631 76.9223 9.23154 77.3306 9.56652C77.6016 10.0461 77.8021 10.5616 77.9262 11.0975" fill="white"/>
<path d="M77.9038 13.6653C77.5071 13.2021 77.0858 12.7602 76.6416 12.3417C76.763 11.8169 76.8035 11.2769 76.7616 10.7401C77.2084 11.1028 77.6314 11.4933 78.0282 11.9093C78.0711 12.5005 78.0292 13.0947 77.9038 13.6741" fill="white"/>
<path d="M76.2773 9.743C75.864 9.45622 75.4329 9.1562 74.7529 8.74146C74.6181 8.33864 74.4035 7.96662 74.1218 7.64728C74.5663 7.86347 75.104 8.08848 75.6773 8.44145C75.9519 8.84543 76.1549 9.2931 76.2773 9.76506" fill="white"/>
<path d="M78.9748 15.3419C78.7555 14.8732 78.4858 14.4294 78.1704 14.0183C78.2944 13.4386 78.3378 12.8448 78.2993 12.2534C78.6149 12.6258 78.8863 13.0329 79.1081 13.4668C79.1452 14.0953 79.0974 14.7259 78.9659 15.3419" fill="white"/>
<path d="M78.9926 12.5579C78.7738 12.1334 78.5004 11.7389 78.1793 11.3843C78.0532 10.8358 77.8513 10.3072 77.5793 9.8136C77.9002 10.1133 78.173 10.46 78.3882 10.8416C78.6659 11.3844 78.8692 11.9616 78.9926 12.5579Z" fill="white"/>
<path d="M76.1885 21.9114C76.1822 21.56 76.1004 21.2141 75.9485 20.8966C76.4596 20.4118 76.9335 19.8897 77.3662 19.3348C77.5075 19.7021 77.5754 20.0932 77.5662 20.4863C77.142 20.9936 76.6816 21.4698 76.1885 21.9114Z" fill="white"/>
<path d="M78.2505 20.0981C78.1127 20.3275 77.9305 20.632 77.7794 20.857L77.6816 20.9982C77.9024 20.6895 78.054 20.3375 78.1261 19.9657C78.4896 19.4336 78.788 18.8604 79.0149 18.2583C78.9749 18.4348 78.9172 18.6686 78.8594 18.8407C78.6949 19.2245 78.4772 19.7231 78.2727 20.0981" fill="white"/>
<path d="M75.7751 22.9262C75.9786 22.7053 76.1143 22.4313 76.1662 22.1365C76.662 21.7133 77.12 21.2483 77.5351 20.7467C77.4647 21.096 77.3125 21.424 77.0906 21.7041C76.6849 22.1512 76.2386 22.5603 75.7573 22.9262" fill="white"/>
<path d="M78.1483 19.6877C78.1613 19.2768 78.098 18.867 77.9617 18.4788C78.3262 17.902 78.6244 17.2863 78.8505 16.6434C78.9938 17.0696 79.0571 17.5182 79.0372 17.967C78.8086 18.5782 78.5104 19.1615 78.1483 19.7054" fill="white"/>
<path d="M76.3484 22.5026C76.0329 22.7937 75.6957 23.0607 75.3396 23.3012L75.6018 23.0983C76.0832 22.7505 76.5297 22.3575 76.9351 21.9247C76.7662 22.0967 76.5484 22.3261 76.3707 22.485" fill="white"/>
<path d="M79.4772 15.3596V15.8008C79.4416 16.1714 79.3749 16.6832 79.3083 17.0317C79.3268 16.5826 79.2621 16.134 79.1172 15.7081C79.2467 15.0829 79.2945 14.4438 79.2594 13.8065C79.3793 14.128 79.4497 14.4657 79.4683 14.8081V15.3816" fill="white"/>
<path d="M79.3039 17.1861L79.2239 17.5612L79.2683 17.345L79.3617 16.8508L79.3039 17.1861Z" fill="white"/>
<path d="M78.9748 12.2358C79.0771 12.5844 79.2059 13.052 79.2859 13.4094C79.2415 13.2418 79.1882 13.0256 79.1304 12.8623C79.0444 12.4458 78.9194 12.0381 78.7571 11.6446L78.9748 12.2358Z" fill="white"/>
<path d="M75.2196 7.8767C74.824 7.69139 74.3307 7.43549 73.6507 7.19724C73.2919 6.91505 72.8917 6.6889 72.4641 6.52661C72.9085 6.62809 73.4641 6.76045 74.0596 6.96782C74.4868 7.21948 74.8771 7.52827 75.2196 7.88552" fill="white"/>
<path d="M73.824 6.5619C74.237 6.74266 74.6352 6.95508 75.0151 7.19723C74.6162 7.00226 74.2014 6.84137 73.7751 6.71632C73.3083 6.49829 72.8197 6.3297 72.3174 6.21335C72.6572 6.24609 72.9942 6.30211 73.3262 6.38101C73.4951 6.43395 73.664 6.49131 73.824 6.55749" fill="white"/>
<path d="M76.8595 8.86058C76.4546 8.55989 76.0283 8.28858 75.584 8.04877C75.2409 7.68223 74.8509 7.36184 74.4241 7.09576C74.8614 7.26256 75.285 7.46319 75.6907 7.6958C76.1251 8.04697 76.5173 8.4467 76.8595 8.88706" fill="white"/>
<path d="M73.3884 6.61486C72.9796 6.5222 72.4729 6.40749 71.7796 6.31484C71.2981 6.20972 70.806 6.15939 70.313 6.16483C70.7574 6.16483 71.3352 6.16483 71.9529 6.16483C72.4458 6.26115 72.927 6.40904 73.3884 6.60603" fill="white"/>
<path d="M76.5395 8.36201C76.912 8.71725 77.2525 9.10403 77.5573 9.51797L77.7839 9.83122C77.5963 9.56213 77.3753 9.31754 77.1262 9.10324C76.7842 8.6454 76.3905 8.22795 75.9529 7.85904C76.0507 7.93404 76.1795 8.03111 76.2729 8.11494L76.5395 8.36201Z" fill="white"/>
<path d="M74.664 6.959C74.9173 7.11342 75.2506 7.32078 75.4951 7.48403L75.2773 7.34285C75.0195 7.1796 74.6684 6.96782 74.3884 6.81781L74.6506 6.959" fill="white"/>
<path d="M70.6907 6.10306H71.2284L70.2996 6.156L70.704 6.11188" fill="white"/>
<path d="M71.8686 6.10748H71.593H71.353C71.5264 6.10748 71.6997 6.10748 71.8686 6.13396" fill="white"/>
</svg>
