<svg width="28" height="28" viewBox="0 0 28 28" fill="none" xmlns="http://www.w3.org/2000/svg">
<rect width="28" height="28" rx="14" fill="white"/>
<g clip-path="url(#clip0_509_3)">
<path d="M6.00353 13.9985C6.00353 13.2213 5.99647 12.4442 6.00353 11.667C6.00908 11.2131 6.02623 10.7593 6.06406 10.3054C6.12408 9.61798 6.28347 8.95329 6.60528 8.3355C6.99165 7.59314 7.56666 7.03738 8.29904 6.6425C8.79313 6.38502 9.32613 6.21039 9.8768 6.12558C10.3371 6.05237 10.8024 6.01577 11.2684 6.01614C12.2846 6.00538 13.301 6 14.3175 6C15.1246 6 15.9316 6.00538 16.7386 6.01614C17.2675 6.01582 17.7954 6.06274 18.3159 6.15634C18.8879 6.26729 19.4331 6.45036 19.93 6.76152C20.5151 7.12463 20.9589 7.62239 21.2984 8.21597C21.5882 8.73507 21.7829 9.30175 21.8734 9.8893C21.9326 10.2698 21.9636 10.6541 21.9662 11.0391C21.9998 12.7283 22.0086 14.4174 21.9924 16.1065C21.9889 16.5468 21.9763 16.9876 21.9516 17.4279C21.9143 18.089 21.7932 18.7345 21.5385 19.3503C21.1854 20.2077 20.5877 20.8426 19.7902 21.2995C19.2726 21.5886 18.7079 21.7837 18.1222 21.8759C17.6638 21.9503 17.2 21.9871 16.7356 21.9859C15.4144 21.995 14.0936 22.0003 12.7731 22.002C12.1678 22.002 11.5625 21.9909 10.9572 21.9763C10.3665 21.9689 9.77905 21.8878 9.20847 21.7347C8.66877 21.5834 8.16639 21.355 7.72605 21.0045C7.12866 20.5312 6.67246 19.9033 6.40705 19.1889C6.246 18.7589 6.13728 18.311 6.08323 17.855C6.00706 17.2372 6.00504 16.6144 6 15.9921C6 15.3299 6 14.6632 6 13.9985H6.00353ZM7.41584 13.8865H7.42543C7.42543 14.7378 7.42291 15.5886 7.42543 16.4399C7.42543 16.6855 7.44611 16.9306 7.45872 17.1757C7.46376 17.2715 7.47234 17.3668 7.48041 17.4621C7.50361 17.7501 7.58482 18.027 7.64181 18.3084C7.6821 18.5267 7.75505 18.7377 7.8582 18.9342C8.00095 19.1965 8.15781 19.4512 8.36966 19.662C8.77318 20.0654 9.27758 20.2959 9.83241 20.3973C10.0816 20.4427 10.3368 20.4699 10.589 20.4916C10.9961 20.5269 11.4041 20.5723 11.8117 20.5748C13.2421 20.5854 14.6721 20.5829 16.1026 20.5783C16.4557 20.5783 16.8118 20.5521 17.1659 20.5365C17.2637 20.5324 17.3616 20.5274 17.4579 20.5138C17.6324 20.4891 17.8054 20.4558 17.9799 20.429C18.2889 20.3909 18.5896 20.3026 18.8702 20.1678C19.1577 20.0206 19.4336 19.8526 19.6606 19.6231C20.0944 19.1849 20.3289 18.6438 20.4172 18.0396C20.4901 17.5641 20.5339 17.0846 20.5483 16.6038C20.5554 16.2508 20.5771 15.9013 20.5786 15.5498C20.5831 14.6279 20.5811 13.706 20.5786 12.7841C20.5786 12.2324 20.5786 11.6811 20.5453 11.1294C20.5288 10.7602 20.4911 10.3923 20.4323 10.0275C20.3632 9.64521 20.2674 9.27706 20.0651 8.94169C19.9199 8.70062 19.7655 8.46561 19.5572 8.27347C19.2489 7.99783 18.8826 7.79497 18.4854 7.67988C18.1928 7.58911 17.8897 7.56389 17.5875 7.52556C17.0379 7.46099 16.485 7.42732 15.9316 7.4247C14.8819 7.41058 13.8318 7.4247 12.7816 7.41865C12.1506 7.41562 11.5206 7.42722 10.8901 7.46151C10.8165 7.46555 10.7418 7.46504 10.6687 7.47513C10.4523 7.50489 10.2369 7.54069 10.0211 7.57095C9.64445 7.61531 9.28071 7.73539 8.95174 7.92397C8.72427 8.04841 8.51416 8.2022 8.32679 8.38139C7.9152 8.803 7.68065 9.3169 7.58936 9.89435C7.51034 10.3791 7.463 10.8685 7.44762 11.3594C7.43804 11.7038 7.42038 12.0483 7.41685 12.3932C7.41231 12.8905 7.41635 13.3883 7.41635 13.8865H7.41584Z" fill="#0557F5"/>
<path d="M13.9695 9.88324C14.539 9.88929 15.0913 9.97956 15.6179 10.2025C16.0784 10.4023 16.4951 10.6905 16.8446 11.0507C17.233 11.4302 17.5436 11.8818 17.7591 12.3801C17.9138 12.7499 18.0115 13.141 18.0491 13.54C18.108 14.0918 18.0608 14.6497 17.9099 15.1836C17.7369 15.766 17.4349 16.302 17.0262 16.7515C16.4436 17.4072 15.7264 17.8409 14.8643 18.0219C14.3426 18.1304 13.8056 18.1439 13.279 18.0618C12.4654 17.9392 11.7683 17.5766 11.1636 17.0279C10.5695 16.5 10.1513 15.8029 9.96512 15.0303C9.83947 14.4969 9.81229 13.945 9.88492 13.4019C10.0539 12.0286 11.045 10.7794 12.2475 10.2408C12.6454 10.0622 13.0701 9.95092 13.5045 9.91148C13.6598 9.89736 13.8147 9.89181 13.9695 9.88324ZM16.6555 13.9601C16.6504 13.8911 16.6439 13.7816 16.6338 13.6732C16.6292 13.6197 16.6206 13.5663 16.6111 13.5133C16.4734 12.775 16.0865 12.1976 15.4767 11.7669C15.0529 11.4715 14.5492 11.3121 14.0326 11.31C13.5756 11.2994 13.1343 11.3745 12.7322 11.5964C11.8889 12.0619 11.3774 12.7609 11.2821 13.7347C11.2368 14.1597 11.2935 14.5893 11.4475 14.9879C11.6342 15.4676 11.9651 15.8337 12.3676 16.1398C12.7722 16.4469 13.2604 16.6242 13.7678 16.6482C14.4386 16.689 15.0545 16.5337 15.5887 16.1146C16.2726 15.5775 16.6428 14.879 16.6549 13.9596L16.6555 13.9601Z" fill="#0557F5"/>
<path d="M18.2568 10.672C17.9648 10.672 17.7353 10.5368 17.5441 10.327C17.3924 10.1692 17.3028 9.96174 17.2919 9.74304C17.2788 9.43692 17.4089 9.19333 17.6279 8.9916C18.0399 8.61286 18.5933 8.64514 18.9746 9.06826C19.3559 9.49138 19.3115 10.0603 18.8621 10.438C18.6961 10.5879 18.4805 10.6712 18.2568 10.672Z" fill="#0557F5"/>
</g>
<defs>
<clipPath id="clip0_509_3">
<rect width="16" height="16" fill="white" transform="translate(6 6)"/>
</clipPath>
</defs>
</svg>
