<svg width="167" height="56" viewBox="0 0 167 56" fill="none" xmlns="http://www.w3.org/2000/svg">
<path d="M20.3969 40.5801C19.1403 40.5857 17.8957 40.3376 16.739 39.851C15.5822 39.3643 14.5375 38.6493 13.6684 37.7495C11.747 35.8588 10.7863 33.3308 10.7863 30.1654C10.7863 27.0572 11.747 24.5507 13.6684 22.6457C14.5338 21.7397 15.5774 21.0192 16.7347 20.5286C17.8919 20.0381 19.1383 19.7879 20.3969 19.7936C23.5607 19.7936 26.1286 21.208 28.1006 24.0368V12H31.0965V40.1558H28.1006V36.1489C26.0745 39.103 23.5066 40.5801 20.3969 40.5801ZM20.9387 37.9214C21.8965 37.9216 22.8439 37.725 23.7213 37.3442C24.5987 36.9633 25.387 36.4063 26.0365 35.7084C26.759 34.9681 27.3234 34.0908 27.6957 33.1291C28.0681 32.1674 28.2408 31.1411 28.2035 30.1116C28.2365 29.098 28.0614 28.0883 27.6889 27.1437C27.3164 26.1992 26.7542 25.3396 26.0365 24.6169C25.3834 23.9259 24.5936 23.3756 23.7166 23.0004C22.8395 22.6253 21.8939 22.4332 20.9387 22.4362C19.9941 22.4141 19.0554 22.5902 18.1843 22.953C17.3132 23.3159 16.5293 23.8573 15.8841 24.5417C14.5334 25.9418 13.858 27.8253 13.858 30.1922C13.8144 31.2097 13.9743 32.2257 14.3286 33.1817C14.6828 34.1377 15.2244 35.0146 15.922 35.7621C16.5572 36.4526 17.3326 37.0019 18.1973 37.3741C19.0619 37.7462 19.9961 37.9327 20.9387 37.9214V37.9214Z" fill="white"/>
<path d="M39.5749 31.4114C39.6957 33.2564 40.5232 34.9858 41.8882 36.2455C43.1883 37.4239 44.8943 38.064 46.6556 38.0341C47.8531 38.0333 49.037 37.7822 50.1301 37.2972C51.2231 36.8123 52.2008 36.1043 52.9995 35.2196L54.8631 36.8793C53.846 38.0712 52.5764 39.0261 51.1447 39.6759C49.7129 40.3258 48.1543 40.6547 46.5797 40.6392C45.2498 40.6656 43.9288 40.4187 42.6999 39.914C41.471 39.4092 40.3609 38.6576 39.4394 37.7065C37.5072 35.7693 36.5411 33.2627 36.5411 30.1868C36.4777 27.4705 37.4665 24.8333 39.304 22.8175C40.1595 21.8457 41.2193 21.0714 42.4088 20.549C43.5984 20.0266 44.8889 19.7687 46.1897 19.7936C49.079 19.7936 51.3616 20.7962 53.0374 22.8014C54.7132 24.8067 55.5565 27.3186 55.5673 30.3372C55.5673 30.7239 55.5673 31.0731 55.5294 31.3792L39.5749 31.4114ZM39.5749 29.0213H52.5498C52.4348 27.2588 51.7596 25.5778 50.6212 24.2194C50.0674 23.5785 49.3738 23.0709 48.5929 22.7349C47.812 22.399 46.9642 22.2436 46.1138 22.2804C45.2867 22.2744 44.4675 22.4411 43.7096 22.7696C42.9517 23.0981 42.272 23.5811 41.7148 24.1872C40.4684 25.5065 39.7135 27.2081 39.5749 29.0105V29.0213Z" fill="white"/>
<path d="M69.8858 40.6231C68.5155 40.6497 67.1548 40.3904 65.8921 39.8621C64.6293 39.3337 63.4927 38.5481 62.5559 37.5561C61.5935 36.5887 60.8355 35.4404 60.3267 34.1786C59.8178 32.9168 59.5682 31.567 59.5926 30.2083C59.5703 28.8485 59.8225 27.498 60.3342 26.2362C60.8459 24.9744 61.6068 23.8267 62.5722 22.8605C63.5061 21.8693 64.6398 21.0839 65.8999 20.5555C67.1599 20.0272 68.518 19.7675 69.8858 19.7936C71.4056 19.7875 72.9093 20.1019 74.2973 20.7159C75.6852 21.3298 76.9256 22.2293 77.9362 23.3547L76.0293 25.3635C74.1584 23.4084 72.0962 22.4308 69.8425 22.4308C68.876 22.4166 67.918 22.611 67.0349 23.0006C66.1518 23.3901 65.3648 23.9655 64.7284 24.6867C63.3391 26.1967 62.5935 28.1813 62.648 30.2244C62.6024 32.2569 63.363 34.226 64.7663 35.7084C65.4304 36.4372 66.2448 37.0159 67.1543 37.4051C68.0638 37.7943 69.0471 37.985 70.0375 37.9643C72.2045 37.9643 74.227 36.9617 76.1051 34.9565L78.0933 36.7827C75.7602 39.3429 73.0244 40.6231 69.8858 40.6231Z" fill="white"/>
<path d="M121.043 40.5801C119.786 40.5858 118.541 40.3378 117.383 39.8511C116.225 39.3645 115.179 38.6495 114.309 37.7495C112.392 35.8588 111.433 33.3308 111.433 30.1654C111.433 27.0572 112.392 24.5507 114.309 22.6457C115.175 21.739 116.22 21.0181 117.378 20.5276C118.536 20.037 119.784 19.7872 121.043 19.7936C124.207 19.7936 126.775 21.208 128.747 24.0368V12H131.737V40.1558H128.747V36.1489C126.706 39.103 124.139 40.5801 121.043 40.5801ZM121.585 37.9214C122.543 37.9212 123.49 37.7245 124.368 37.3437C125.245 36.9629 126.033 36.4061 126.683 35.7084C127.405 34.9681 127.97 34.0908 128.342 33.1291C128.714 32.1674 128.887 31.1411 128.85 30.1116C128.883 29.098 128.708 28.0883 128.335 27.1437C127.963 26.1992 127.401 25.3396 126.683 24.6169C126.029 23.9264 125.24 23.3765 124.363 23.0013C123.486 22.6262 122.54 22.4338 121.585 22.4362C120.64 22.4134 119.702 22.5892 118.83 22.9521C117.959 23.315 117.175 23.8568 116.531 24.5417C115.183 25.9418 114.508 27.8253 114.504 30.1922C114.461 31.2097 114.621 32.2257 114.975 33.1817C115.329 34.1376 115.871 35.0146 116.568 35.7621C117.203 36.4534 117.978 37.0033 118.843 37.3755C119.708 37.7477 120.642 37.9338 121.585 37.9214V37.9214Z" fill="white"/>
<path d="M140.221 31.4115C140.342 33.2564 141.17 34.9858 142.535 36.2455C143.835 37.4239 145.541 38.064 147.302 38.0341C148.499 38.0332 149.682 37.782 150.774 37.2971C151.866 36.8121 152.843 36.1042 153.64 35.2196L155.509 36.8793C154.492 38.0712 153.223 39.0261 151.791 39.6759C150.359 40.3258 148.801 40.6547 147.226 40.6392C145.897 40.668 144.577 40.4238 143.348 39.9218C142.119 39.4199 141.008 38.6711 140.086 37.7226C138.154 35.7854 137.187 33.2788 137.187 30.2029C137.12 27.4811 138.109 24.8374 139.95 22.8176C140.803 21.848 141.859 21.0749 143.045 20.5526C144.231 20.0302 145.517 19.7712 146.814 19.7936C149.704 19.7936 151.986 20.7962 153.662 22.8014C155.338 24.8067 156.187 27.3186 156.208 30.3372C156.208 30.7239 156.208 31.0731 156.17 31.3792L140.221 31.4115ZM140.221 29.0213H153.175C153.061 27.2594 152.388 25.5783 151.251 24.2194C150.696 23.5855 150.002 23.0842 149.224 22.7531C148.445 22.422 147.601 22.2696 146.755 22.3073C145.93 22.299 145.112 22.4631 144.355 22.7888C143.598 23.1146 142.919 23.5947 142.361 24.1979C141.117 25.5145 140.362 27.2119 140.221 29.0105V29.0213Z" fill="white"/>
<path d="M85.4015 35.7728C85.1577 35.327 84.8598 34.6986 84.6323 34.2582C84.5022 33.9144 84.3289 33.4579 84.2205 33.1087L84.1555 32.8294C84.4002 33.6465 84.7402 34.4324 85.1686 35.1713C85.2021 35.3943 85.2814 35.6082 85.4015 35.7997" fill="white"/>
<path d="M84.0255 32.3837C83.9659 32.0882 83.8846 31.7015 83.8413 31.4061L83.9713 32.2172L84.0038 32.3837" fill="white"/>
<path d="M87.5198 38.351L87.4764 38.3134C87.211 38.0502 86.8588 37.6957 86.6042 37.4164C86.3496 37.1371 86.0137 36.686 85.7807 36.3422C85.6353 36.1418 85.5406 35.9097 85.5045 35.6654C85.9673 36.3673 86.5009 37.0205 87.0972 37.6152C87.1485 37.8968 87.2981 38.1516 87.5198 38.3349" fill="white"/>
<path d="M86.5446 21.926C86.7776 21.6789 87.0864 21.3459 87.3247 21.1042L87.639 20.8195C87.3302 21.1095 86.9238 21.5124 86.6367 21.8293L86.5446 21.926" fill="white"/>
<path d="M85.4774 23.8273C85.7977 23.1318 86.2015 22.4772 86.6801 21.8776C87.0726 21.5912 87.4874 21.3362 87.9207 21.1149C87.4392 21.6456 87.0377 22.2426 86.7288 22.8874C86.2797 23.1639 85.8556 23.4784 85.4611 23.8273" fill="white"/>
<path d="M84.6973 24.8693L85.0765 24.0851C85.3657 23.5338 85.701 23.0074 86.0787 22.5114L86.1221 22.4469L86.2575 22.2858C85.7795 22.9147 85.376 23.5959 85.0548 24.3161C84.9519 24.4772 84.811 24.6975 84.7244 24.8532" fill="white"/>
<path d="M87.0755 21.4425C87.59 20.888 88.1641 20.3909 88.7875 19.9601C89.1875 19.7582 89.6044 19.591 90.0335 19.4606C89.4045 19.8071 88.8236 20.2332 88.3053 20.7282C87.8749 20.933 87.4618 21.1719 87.0701 21.4425" fill="white"/>
<path d="M83.7763 28.409L83.8305 27.9363L83.8738 27.6677C83.9752 27.0385 84.1292 26.4186 84.3343 25.8147L84.4264 25.5461C84.537 25.3132 84.6619 25.0872 84.8002 24.8694C84.5165 25.6304 84.3344 26.4249 84.2584 27.2327C84.0052 27.5809 83.8399 27.9843 83.7763 28.409" fill="white"/>
<path d="M84.7243 26.6633C84.7993 25.8763 84.9815 25.1029 85.2661 24.3645C85.6629 24.0032 86.0887 23.6744 86.5392 23.3815C86.2762 24.0705 86.1192 24.7948 86.0733 25.53C85.5962 25.8642 85.1486 26.238 84.7352 26.6472" fill="white"/>
<path d="M89.0692 20.4005C89.5858 19.9371 90.1658 19.5484 90.792 19.2457C91.2362 19.1329 91.74 19.0148 92.4877 18.8751C91.8703 19.0856 91.2906 19.392 90.7703 19.7829C90.2286 19.9547 89.6868 20.1535 89.0692 20.4005" fill="white"/>
<path d="M90.2123 21.1149C90.4815 20.6015 90.8496 20.1453 91.2958 19.7721L93.0402 19.1813C92.6099 19.4546 92.2485 19.8221 91.9838 20.2555L90.2014 21.1042" fill="white"/>
<path d="M87.5252 22.4362C87.8243 21.8202 88.2191 21.2547 88.6954 20.7604C89.1505 20.567 89.6218 20.3683 90.4073 20.0836C89.9492 20.5017 89.5711 20.9985 89.2913 21.55C88.4299 21.9635 88.029 22.1623 87.5252 22.4362Z" fill="white"/>
<path d="M91.6642 19.4982C92.1888 19.1455 92.7693 18.8823 93.3815 18.7194C94.102 18.6119 94.2321 18.5905 94.9526 18.5045C94.4123 18.5795 93.8875 18.739 93.3978 18.9772C92.9156 19.1222 92.2493 19.3156 91.6588 19.5143" fill="white"/>
<path d="M86.8859 24.966C86.9227 24.2553 87.0689 23.5543 87.3193 22.8874C87.9586 22.5382 88.1699 22.4201 89.1017 21.9528C88.868 22.5517 88.7379 23.1855 88.717 23.8273C88.0778 24.2141 87.4764 24.5793 86.8859 24.966Z" fill="white"/>
<path d="M89.6597 23.2795C89.6769 22.6718 89.8016 22.0719 90.0281 21.507L91.8213 20.5993C91.6106 21.0881 91.5036 21.6146 91.5071 22.1462C90.8895 22.5329 90.5807 22.7263 89.6597 23.2795" fill="white"/>
<path d="M83.9713 31.6317C83.7784 30.7843 83.6929 29.9165 83.7167 29.0481C83.7847 28.6172 83.9515 28.2074 84.2043 27.8504C84.1814 28.7101 84.2688 29.5692 84.4643 30.4071C84.2116 30.7746 84.0433 31.1926 83.9713 31.6317" fill="white"/>
<path d="M86.1871 32.9422C85.7573 32.1387 85.4088 31.2949 85.1469 30.4231C85.5771 29.9557 86.0406 29.5195 86.5338 29.118C86.8107 29.9638 87.1512 30.7879 87.5523 31.5833C87.1352 31.9701 86.6205 32.4535 86.1871 32.9422" fill="white"/>
<path d="M85.1794 34.6342C84.7456 33.8827 84.4002 33.0843 84.1501 32.2547C84.2254 31.8223 84.3955 31.4116 84.6485 31.0516C84.9058 31.9231 85.2582 32.7642 85.6995 33.5599C85.4454 33.8767 85.2609 34.2426 85.1577 34.6342" fill="white"/>
<path d="M84.9736 29.8001C84.7721 28.9793 84.6774 28.1364 84.6919 27.2918C85.107 26.8684 85.5603 26.4837 86.0462 26.1423C86.0558 26.9468 86.1613 27.7473 86.3605 28.5271C85.8704 28.9207 85.4071 29.346 84.9736 29.8001" fill="white"/>
<path d="M87.1189 37.2231C86.5267 36.5963 85.9919 35.9187 85.5207 35.1981C85.6249 34.8069 85.8093 34.4413 86.0625 34.1239C86.539 34.8755 87.0676 35.5933 87.6444 36.2724C87.4126 36.5497 87.2411 36.8716 87.1406 37.2177" fill="white"/>
<path d="M88.0886 35.7353C87.5168 35.0468 86.9936 34.32 86.523 33.5599C86.886 33.1732 87.1947 32.8402 87.8774 32.2171C88.3354 33.0052 88.8401 33.7657 89.3888 34.4945C88.9392 34.8974 88.4733 35.3109 88.067 35.7353" fill="white"/>
<path d="M87.2218 27.8504C87.0198 27.0962 86.9089 26.3209 86.8914 25.5408C87.4819 25.1487 87.8123 24.9338 88.7279 24.3591C88.7591 25.0873 88.8811 25.809 89.0909 26.5076C88.4028 26.9964 87.8069 27.4153 87.2218 27.8557" fill="white"/>
<path d="M91.2687 28.5647C90.8676 27.8535 90.5199 27.1138 90.2285 26.3518C90.8841 25.8738 91.5017 25.4226 92.1518 24.9231C92.4664 25.6302 92.8284 26.3156 93.2353 26.9749C92.5689 27.512 92.2059 27.8289 91.2633 28.5862" fill="white"/>
<path d="M88.392 30.8743C87.9915 30.099 87.651 29.2946 87.3735 28.468C88.0236 27.9739 88.2891 27.7752 89.248 27.0823C89.5364 27.8663 89.8804 28.6291 90.2773 29.365C89.5784 29.9021 88.9771 30.3909 88.392 30.8743" fill="white"/>
<path d="M90.0443 25.8147C89.8322 25.1491 89.7048 24.4598 89.6651 23.7629C90.3315 23.3439 90.9111 22.9787 91.5233 22.5759C91.5843 23.2099 91.73 23.833 91.9567 24.4289C91.2958 24.9177 90.9653 25.1648 90.0443 25.8147" fill="white"/>
<path d="M90.2339 33.7909C89.6817 33.0428 89.1752 32.2626 88.717 31.4544C89.378 30.9173 89.6272 30.6971 90.6023 29.9183C90.9978 30.5682 91.4095 31.245 92.1084 32.2118L90.2339 33.7909" fill="white"/>
<path d="M93.1106 31.3631C92.6447 30.7186 92.1192 29.9881 91.5938 29.1287C92.2709 28.5916 92.9048 28.0545 93.5765 27.5173C93.9883 28.1135 94.4108 28.7259 95.1314 29.6336C94.4271 30.262 94.075 30.5735 93.1106 31.3846" fill="white"/>
<path d="M92.3576 40.9507L92.0434 40.8647C91.6944 40.7768 91.3507 40.6692 91.0141 40.5425L90.792 40.4565C90.4994 40.3008 90.4832 40.2954 90.3748 40.1128C90.9544 40.4246 91.5598 40.6869 92.1843 40.897C92.2376 40.9274 92.2939 40.9526 92.3522 40.9722" fill="white"/>
<path d="M90.3477 40.2363L90.1473 40.1396C89.5421 39.8328 88.9655 39.4733 88.4245 39.0654C88.2078 38.9172 88.0566 38.6923 88.002 38.437C88.6066 38.949 89.2515 39.4124 89.9306 39.8227C90.0606 40.0537 90.0606 40.0537 90.3748 40.2363" fill="white"/>
<path d="M92.829 41.0796H92.7043L92.6122 41.0474L93.154 41.1655L92.8506 41.1064" fill="white"/>
<path d="M89.8981 39.5434C89.2364 39.1064 88.6081 38.6217 88.0182 38.0932C88.1167 37.7738 88.2829 37.4789 88.5058 37.2285C89.087 37.7973 89.6982 38.3352 90.3369 38.8398C90.1353 39.0314 89.9846 39.2694 89.8981 39.5327" fill="white"/>
<path d="M92.8831 40.0054C92.4172 39.6885 91.8863 39.3286 91.2145 38.7861C91.5558 38.496 91.805 38.2866 92.466 37.7924C93.0077 38.2651 93.4032 38.6411 94.0912 39.1943C93.582 39.5327 93.2136 39.7744 92.894 40.0054" fill="white"/>
<path d="M92.1355 40.7412C91.5218 40.4874 90.9295 40.1857 90.364 39.8388C90.4479 39.5906 90.5932 39.3672 90.7865 39.1889C91.2687 39.5327 91.8159 39.9194 92.4876 40.3115C92.2655 40.5156 92.1572 40.6177 92.1355 40.7412" fill="white"/>
<path d="M90.7703 38.4209C90.1382 37.8843 89.5342 37.316 88.9608 36.7182C89.3021 36.3852 89.6001 36.1005 90.2665 35.5365C90.7811 36.1112 91.2687 36.6537 92.0326 37.3842C91.5721 37.7441 91.1387 38.0825 90.7703 38.4209" fill="white"/>
<path d="M93.9395 41.23H93.8204C93.3857 41.1702 92.9588 41.0639 92.5472 40.9131C92.596 40.7949 92.6177 40.7412 92.8777 40.5425C93.2973 40.7696 93.7316 40.9688 94.1779 41.1387C94.1022 41.1821 94.0223 41.2181 93.9395 41.2461" fill="white"/>
<path d="M94.53 40.9668C94.2158 40.8057 93.8258 40.6016 93.2623 40.2525C93.6578 39.9893 93.7391 39.9356 94.4434 39.4951C94.8388 39.812 95.2397 40.1235 95.6406 40.4351C95.256 40.6231 94.9526 40.7735 94.5571 40.9722" fill="white"/>
<path d="M92.829 36.7827C92.3143 36.2455 91.7455 35.6493 91.0791 34.8651C92.0868 34.0433 92.5039 33.705 92.9481 33.329C93.4899 33.9682 93.9125 34.5214 94.6763 35.3647C93.8474 36.0092 93.8475 36.0092 92.829 36.7827" fill="white"/>
<path d="M97.6776 36.7236C96.6645 35.6493 96.4803 35.4345 96.1065 35.0209C96.7187 34.5214 97.4122 33.9467 98.1814 33.2323C98.7232 33.8392 99.2649 34.4354 99.7688 35.0424C99.1512 35.5795 98.5715 36.0575 97.6776 36.7236Z" fill="white"/>
<path d="M94.8497 38.6894C94.3621 38.2436 93.8529 37.7817 93.2569 37.2016C94.2375 36.4711 94.5788 36.2187 95.1043 35.8158C95.8248 36.5785 95.8248 36.5785 96.67 37.4272C96.0036 37.8891 95.6677 38.1254 94.8497 38.6626" fill="white"/>
<path d="M95.684 34.5482C95.0989 33.8768 94.6384 33.3504 93.9504 32.4696C94.6384 31.8734 95.2939 31.3094 95.9874 30.6649C96.6375 31.4383 96.6375 31.4383 97.7535 32.7381C97.125 33.3129 96.5887 33.8124 95.684 34.5482Z" fill="white"/>
<path d="M96.3828 40.0537C95.9928 39.7046 95.6027 39.3554 95.2072 39.0117C95.749 38.6518 96.3395 38.2866 97.0221 37.8139C97.4447 38.2543 97.8401 38.6679 98.1598 39.0493C97.5909 39.3823 97.0763 39.6777 96.3828 40.0537Z" fill="white"/>
<path d="M99.1403 38.4209C98.8315 38.0341 98.5986 37.7602 98.0135 37.1049C98.604 36.6699 99.3299 36.122 100.11 35.456C100.505 35.9175 100.867 36.4057 101.194 36.9169C100.652 37.3681 100.04 37.8354 99.1512 38.4209" fill="white"/>
<path d="M94.5734 41.2783H94.2267C94.2917 41.2783 94.3729 41.2407 94.4379 41.2246C94.5842 41.2568 94.7792 41.2944 94.9255 41.3106H94.5734" fill="white"/>
<path d="M96.1282 41.2568H95.7002C95.965 41.2369 96.2277 41.1956 96.4858 41.1333V41.1816H96.4587L96.1228 41.2139" fill="white"/>
<path d="M95.4185 41.2891C95.1934 41.2553 94.9755 41.1845 94.7738 41.0796C95.0393 40.9775 95.3698 40.8433 95.8573 40.6123C96.047 40.7631 96.2279 40.9245 96.3991 41.0957C96.0679 41.1977 95.7263 41.2626 95.3806 41.2891" fill="white"/>
<path d="M97.1413 40.8701C96.9858 40.647 96.8039 40.4433 96.5995 40.2632C97.0925 40.0107 97.6451 39.7261 98.3711 39.3071C98.5862 39.5499 98.7501 39.833 98.8532 40.1396C98.2957 40.4123 97.7243 40.6561 97.1413 40.8701Z" fill="white"/>
<path d="M99.4166 40.4404C99.6442 40.2363 99.7688 40.1289 99.7959 39.8335C100.448 39.4698 101.077 39.068 101.681 38.6303C101.628 38.9557 101.47 39.2553 101.231 39.4844C100.652 39.8482 100.045 40.1678 99.4166 40.4404" fill="white"/>
<path d="M97.6397 41.0259L97.0438 41.1441C97.19 41.0796 97.1954 41.0742 97.1846 40.9668C97.7599 40.7804 98.3227 40.558 98.8695 40.3008C98.8648 40.4031 98.8307 40.502 98.7711 40.5857C98.7116 40.6695 98.6292 40.7346 98.5336 40.7734C98.2681 40.854 97.9106 40.9668 97.6397 41.0259Z" fill="white"/>
<path d="M99.7904 39.6401C99.7205 39.298 99.5722 38.9764 99.357 38.7002C100.053 38.249 100.724 37.7613 101.367 37.2392C101.562 37.5913 101.675 37.9822 101.697 38.3833C101.086 38.8374 100.449 39.257 99.7904 39.6401" fill="white"/>
<path d="M99.4329 40.478L99.0428 40.6284L99.2216 40.5479C99.8472 40.3037 100.451 40.0072 101.026 39.6616C100.923 39.7261 100.793 39.8228 100.684 39.8818C100.281 40.1075 99.8627 40.3066 99.4329 40.478" fill="white"/>
<path d="M94.1996 18.7516C94.4554 18.6598 94.7158 18.581 94.9797 18.5153H95.0122L94.1996 18.7408" fill="white"/>
<path d="M94.698 18.8321C94.815 18.7246 94.94 18.6259 95.0718 18.5367H95.1097C94.9905 18.6227 94.828 18.7408 94.698 18.8268" fill="white"/>
<path d="M92.8073 19.8688C93.0673 19.4698 93.4252 19.1427 93.8474 18.9181L95.0285 18.5313C94.6907 18.6515 94.394 18.8638 94.1725 19.1437C93.8366 19.3263 93.452 19.5411 92.7964 19.8688" fill="white"/>
<path d="M92.3576 21.5875C92.3409 21.0997 92.4372 20.6146 92.6393 20.1695C93.0727 19.9332 93.5657 19.6324 94.0316 19.3746C93.8509 19.7316 93.7758 20.1319 93.8149 20.5294C93.4574 20.8087 93.0456 21.1256 92.3576 21.6036" fill="white"/>
<path d="M94.3783 20.046C94.323 19.6956 94.3859 19.3369 94.5571 19.0255C94.7671 18.8853 94.9614 18.7232 95.1368 18.5421V18.5421C95.0436 18.745 95.0319 18.9755 95.1043 19.1867C94.902 19.507 94.6538 19.7965 94.3675 20.046" fill="white"/>
<path d="M95.2506 18.8375C95.2237 18.7421 95.202 18.6452 95.1855 18.5475H95.2289C95.2421 18.6455 95.2421 18.7449 95.2289 18.8429" fill="white"/>
<path d="M92.8506 23.7414C92.6165 23.1812 92.4597 22.5922 92.3847 21.9904C92.8398 21.6628 93.3598 21.2922 93.8583 20.8732C93.9677 21.4004 94.15 21.9101 94.4 22.3879C94.0099 22.7477 93.5711 23.1613 92.8452 23.7414" fill="white"/>
<path d="M96.502 23.7683C96.0563 23.245 95.642 22.6962 95.2614 22.1247C95.5971 21.7351 95.8912 21.3121 96.1391 20.8625C96.4316 21.2062 96.8379 21.6413 97.5151 22.2804C97.2342 22.8144 96.9041 23.3214 96.5291 23.7951" fill="white"/>
<path d="M94.1725 26.1692C93.7565 25.5403 93.3819 24.8854 93.0511 24.2087C93.5386 23.8005 94.0858 23.3386 94.6276 22.8015C94.9895 23.4093 95.3894 23.9941 95.8248 24.5525C95.4077 24.9875 94.9364 25.4817 94.1996 26.1638" fill="white"/>
<path d="M95.023 21.7433C94.763 21.3092 94.566 20.8409 94.4379 20.3522C94.729 20.0765 94.9821 19.7641 95.191 19.423C95.3723 19.8248 95.6073 20.2006 95.8898 20.5402C95.6542 20.9765 95.3628 21.3808 95.023 21.7433" fill="white"/>
<path d="M96.0957 28.7259C95.6135 28.1297 95.0609 27.4583 94.5192 26.6848C95.0284 26.2068 95.6027 25.6697 96.1878 25.0251C96.6483 25.5622 97.0763 26.0994 97.8455 26.8943C97.4013 27.3884 96.8975 27.9685 96.0957 28.7259" fill="white"/>
<path d="M98.5986 25.9597C98.0568 25.4226 97.488 24.8532 96.9029 24.1979C97.282 23.7018 97.619 23.1754 97.9106 22.6242C98.6419 23.2687 98.6419 23.2687 99.6875 24.1657C99.3872 24.7978 99.0242 25.3988 98.604 25.9597" fill="white"/>
<path d="M96.0903 20.0084C95.8057 19.7218 95.5566 19.4027 95.3481 19.0577C95.3481 18.7677 95.3481 18.7408 95.256 18.5636C95.5594 18.8053 95.6244 18.8536 96.0253 19.1383C96.1518 19.4191 96.1711 19.736 96.0794 20.0299" fill="white"/>
<path d="M97.618 19.7613L96.0794 18.9449C95.871 18.7507 95.621 18.6057 95.3481 18.5206V18.5206C95.9982 18.7032 96.1011 18.7301 96.7079 18.9342C97.0723 19.1231 97.3777 19.4073 97.5909 19.756" fill="white"/>
<path d="M97.7697 21.5446C97.3255 21.174 96.8271 20.7497 96.3666 20.2931C96.4731 19.9777 96.4731 19.6364 96.3666 19.3209C96.8704 19.6539 97.0817 19.7936 97.8618 20.2931C97.952 20.7086 97.9296 21.1404 97.7968 21.5446" fill="white"/>
<path d="M95.7652 18.7784L95.3102 18.5367H95.3481C95.4938 18.6107 95.6349 18.6932 95.7706 18.7838" fill="white"/>
<path d="M99.9746 23.3117C98.5986 22.2375 98.5986 22.2375 98.1815 21.883C98.3177 21.4559 98.3457 21.002 98.2627 20.5617L100.094 21.7433C100.159 22.2724 100.119 22.809 99.9746 23.3225" fill="white"/>
<path d="M99.915 21.029C99.3733 20.7121 98.8695 20.4328 98.0568 19.9923C97.8499 19.6266 97.5537 19.3182 97.1955 19.0953C97.7372 19.278 98.3494 19.5089 99.1241 19.8366C99.4706 20.1734 99.7403 20.58 99.915 21.029" fill="white"/>
<path d="M96.0957 18.6656L95.4023 18.5206C95.6027 18.5636 95.879 18.6173 96.074 18.6764" fill="white"/>
<path d="M98.5335 19.3639C98.0351 19.2027 97.3471 18.9825 96.567 18.7784C96.2014 18.6433 95.8216 18.5496 95.4348 18.4991V18.4991C96.2799 18.5904 96.3882 18.6012 97.06 18.7086C97.5846 18.8513 98.0836 19.0742 98.539 19.3693" fill="white"/>
<path d="M96.2041 18.5206L95.451 18.4723C95.6731 18.4723 95.9928 18.4723 96.1986 18.526" fill="white"/>
<path d="M98.7611 31.7499C97.7101 30.5789 97.3959 30.2244 96.9679 29.7303C97.5097 29.1932 98.1219 28.5701 98.7503 27.8235C99.3679 28.4519 99.9963 29.0696 100.603 29.7034C100.105 30.305 99.6279 30.869 98.7611 31.7499" fill="white"/>
<path d="M103.344 30.9066C102.927 30.3694 102.537 29.8968 101.795 29.118C102.224 28.4566 102.587 27.7549 102.878 27.0232C103.423 27.549 103.936 28.1049 104.417 28.6883C104.127 29.4597 103.764 30.2024 103.333 30.9066" fill="white"/>
<path d="M100.798 34.0971C100.208 33.3934 100.083 33.2484 99.1729 32.244C99.8275 31.5864 100.446 30.8943 101.026 30.1707C101.519 30.7078 102.077 31.3255 102.586 32.0077C102.041 32.7454 101.443 33.4436 100.798 34.0971" fill="white"/>
<path d="M101.362 28.6668C100.592 27.9041 100.533 27.8396 99.5033 26.8621C99.9284 26.2681 100.291 25.6328 100.587 24.966C101.21 25.5032 101.8 26.0403 102.423 26.6096C102.129 27.328 101.766 28.0168 101.34 28.6668" fill="white"/>
<path d="M102.163 36.0522C101.861 35.5173 101.519 35.0056 101.139 34.5214C101.785 33.8853 102.384 33.2051 102.933 32.4857C103.299 32.9971 103.625 33.5358 103.908 34.097C103.374 34.7839 102.791 35.4319 102.163 36.036" fill="white"/>
<path d="M104.634 33.0604C104.361 32.467 104.039 31.8974 103.669 31.3578C104.098 30.6431 104.46 29.8917 104.753 29.1126C105.14 29.6369 105.467 30.2026 105.728 30.7992C105.452 31.59 105.088 32.3483 104.645 33.0604" fill="white"/>
<path d="M102.743 25.6052C102.174 25.111 101.768 24.7512 100.912 24.0583C101.056 23.5065 101.1 22.9335 101.042 22.3664C101.627 22.7692 102.228 23.1882 102.889 23.7038C102.943 24.3413 102.893 24.9831 102.743 25.6052" fill="white"/>
<path d="M104.72 24.4665C104.231 23.9939 103.714 23.5508 103.171 23.1398C103.017 22.555 102.771 21.9983 102.44 21.4909C102.991 21.8233 103.518 22.1949 104.016 22.6027C104.346 23.1865 104.591 23.8142 104.742 24.4665" fill="white"/>
<path d="M104.715 27.5925C104.231 27.0286 103.718 26.4907 103.176 25.9812C103.324 25.3423 103.374 24.6849 103.323 24.0314C103.867 24.4729 104.383 24.9484 104.867 25.4548C104.919 26.1745 104.868 26.8978 104.715 27.6033" fill="white"/>
<path d="M102.732 22.8175C102.228 22.4684 101.703 22.1032 100.874 21.5983C100.71 21.1079 100.448 20.655 100.105 20.2662C100.646 20.5294 101.302 20.8034 102.001 21.233C102.336 21.7249 102.583 22.2698 102.732 22.8444" fill="white"/>
<path d="M106.021 29.6336C105.753 29.063 105.424 28.5227 105.04 28.0222C105.191 27.3166 105.244 26.5937 105.197 25.8737C105.582 26.327 105.913 26.8226 106.183 27.3508C106.228 28.116 106.17 28.8837 106.01 29.6336" fill="white"/>
<path d="M106.042 26.2444C105.775 25.7276 105.442 25.2474 105.051 24.8156C104.897 24.1479 104.651 23.5044 104.319 22.9035C104.711 23.2683 105.043 23.6904 105.305 24.155C105.644 24.8158 105.892 25.5185 106.042 26.2444" fill="white"/>
<path d="M102.624 37.6313C102.616 37.2035 102.516 36.7823 102.331 36.3959C102.954 35.8057 103.532 35.1701 104.059 34.4945C104.232 34.9417 104.314 35.4178 104.303 35.8964C103.786 36.5139 103.225 37.0937 102.624 37.6313" fill="white"/>
<path d="M105.138 35.4237C104.97 35.703 104.747 36.0737 104.563 36.3476L104.444 36.5195C104.713 36.1437 104.898 35.7151 104.986 35.2626C105.429 34.6148 105.793 33.917 106.069 33.184C106.021 33.3988 105.95 33.6835 105.88 33.893C105.679 34.3602 105.414 34.9672 105.165 35.4237" fill="white"/>
<path d="M102.12 38.8667C102.368 38.5978 102.533 38.2642 102.597 37.9052C103.201 37.3901 103.759 36.824 104.265 36.2133C104.18 36.6386 103.994 37.0379 103.724 37.3789C103.229 37.9232 102.685 38.4212 102.098 38.8667" fill="white"/>
<path d="M105.013 34.9242C105.029 34.424 104.952 33.9251 104.785 33.4525C105.23 32.7503 105.593 32.0008 105.869 31.2181C106.044 31.7369 106.121 32.283 106.096 32.8294C105.818 33.5735 105.454 34.2835 105.013 34.9457" fill="white"/>
<path d="M102.819 38.351C102.434 38.7054 102.023 39.0304 101.589 39.3232L101.909 39.0761C102.495 38.6528 103.04 38.1743 103.534 37.6474V37.6474C103.328 37.8569 103.063 38.1362 102.846 38.3295" fill="white"/>
<path d="M106.633 29.6551V30.1922C106.589 30.6434 106.508 31.2664 106.427 31.6908C106.45 31.144 106.371 30.5978 106.194 30.0794C106.352 29.3183 106.41 28.5403 106.367 27.7644C106.513 28.1559 106.599 28.5669 106.622 28.9837V29.6819" fill="white"/>
<path d="M106.421 31.8788L106.324 32.3353L106.378 32.0721L106.492 31.4706L106.421 31.8788Z" fill="white"/>
<path d="M106.021 25.8523C106.145 26.2766 106.302 26.8459 106.4 27.281C106.346 27.0769 106.281 26.8137 106.21 26.615C106.105 26.1079 105.953 25.6116 105.755 25.1325L106.021 25.8523" fill="white"/>
<path d="M101.443 20.5455C100.961 20.3199 100.359 20.0084 99.5304 19.7184C99.093 19.3748 98.6052 19.0995 98.0839 18.9019C98.6257 19.0255 99.3029 19.1866 100.029 19.4391C100.55 19.7454 101.025 20.1214 101.443 20.5563" fill="white"/>
<path d="M99.7417 18.9449C100.245 19.165 100.731 19.4236 101.194 19.7184C100.707 19.481 100.202 19.2852 99.6821 19.1329C99.1131 18.8675 98.5175 18.6622 97.9052 18.5206C98.3193 18.5605 98.7302 18.6287 99.1349 18.7247C99.3408 18.7892 99.5467 18.859 99.7417 18.9396" fill="white"/>
<path d="M103.442 21.7433C102.948 21.3773 102.429 21.047 101.887 20.755C101.469 20.3088 100.993 19.9188 100.473 19.5948C101.006 19.7979 101.522 20.0421 102.017 20.3253C102.547 20.7528 103.025 21.2395 103.442 21.7756" fill="white"/>
<path d="M99.2108 19.0094C98.7124 18.8966 98.0948 18.7569 97.2496 18.6441C96.6626 18.5162 96.0628 18.4549 95.4619 18.4615C96.0036 18.4615 96.7079 18.4615 97.4609 18.4615C98.0617 18.5788 98.6482 18.7588 99.2108 18.9986" fill="white"/>
<path d="M103.052 21.1364C103.506 21.5688 103.921 22.0397 104.292 22.5436L104.569 22.925C104.34 22.5974 104.071 22.2996 103.767 22.0387C103.35 21.4814 102.87 20.9732 102.337 20.524C102.456 20.6154 102.613 20.7335 102.727 20.8356L103.052 21.1364Z" fill="white"/>
<path d="M100.766 19.4283C101.074 19.6163 101.481 19.8688 101.779 20.0675L101.513 19.8956C101.199 19.6969 100.771 19.4391 100.43 19.2565L100.749 19.4283" fill="white"/>
<path d="M95.9223 18.3863H96.5779L95.4456 18.4508L95.9386 18.3971" fill="white"/>
<path d="M97.358 18.3917H97.0221H96.7296C96.9408 18.3917 97.1521 18.3917 97.358 18.4239" fill="white"/>
</svg>
