<svg width="28" height="28" viewBox="0 0 28 28" fill="none" xmlns="http://www.w3.org/2000/svg">
<rect width="28" height="28" rx="14" fill="white"/>
<g clip-path="url(#clip0_410_565)">
<path d="M20.753 8.58936C20.5575 8.35034 20.2648 8.21875 19.9286 8.21875C19.7459 8.21875 19.5523 8.2572 19.3533 8.33325L5.8096 13.5033C5.09085 13.7776 4.99404 14.1892 5.00027 14.4102C5.00649 14.6311 5.12649 15.0366 5.85964 15.2699C5.86404 15.2712 5.86843 15.2726 5.87283 15.2738L8.68215 16.0778L10.2014 20.4222C10.4086 21.0145 10.8736 21.3824 11.4151 21.3824C11.7565 21.3824 12.0923 21.2394 12.3863 20.9689L14.1239 19.3689L16.6443 21.3983C16.6446 21.3986 16.6449 21.3987 16.6452 21.3989L16.6691 21.4182C16.6713 21.4199 16.6736 21.4218 16.6758 21.4235C16.956 21.6407 17.2617 21.7555 17.5604 21.7556H17.5606C18.1442 21.7556 18.6089 21.3236 18.7443 20.6552L20.9634 9.69763C21.0525 9.25781 20.9778 8.86426 20.753 8.58936ZM9.62197 15.925L15.042 13.1561L11.6671 16.7422C11.6118 16.8009 11.5727 16.8728 11.5534 16.9511L10.9026 19.587L9.62197 15.925ZM11.7511 20.2792C11.7287 20.2998 11.7061 20.3182 11.6835 20.3352L12.2873 17.8899L13.3855 18.7743L11.7511 20.2792ZM20.0446 9.51147L17.8255 20.4691C17.8041 20.574 17.7359 20.818 17.5604 20.818C17.4738 20.818 17.3649 20.7708 17.2534 20.6849L14.3975 18.3854C14.3971 18.385 14.3966 18.3846 14.3961 18.3844L12.6968 17.016L17.5773 11.8301C17.7335 11.6641 17.7477 11.4098 17.6109 11.2274C17.4739 11.045 17.2257 10.9877 17.0227 11.0914L8.99563 15.1923L6.1481 14.3776L19.6876 9.20911C19.802 9.16541 19.8819 9.15625 19.9286 9.15625C19.9573 9.15625 20.0083 9.15967 20.0272 9.18298C20.0521 9.21338 20.0839 9.31702 20.0446 9.51147Z" fill="#0557F5"/>
</g>
<defs>
<clipPath id="clip0_410_565">
<rect width="16" height="16" fill="white" transform="translate(5 7)"/>
</clipPath>
</defs>
</svg>
