<svg width="28" height="28" viewBox="0 0 28 28" fill="none" xmlns="http://www.w3.org/2000/svg">
<rect width="28" height="28" rx="14" fill="white"/>
<path d="M22 13.499V14.0989C21.9966 14.1255 21.9911 14.1518 21.9896 14.1784C21.9847 14.2656 21.9828 14.3533 21.9765 14.4405C21.948 14.8289 21.8869 15.2143 21.7938 15.5927C21.3441 17.4155 20.3669 18.8997 18.8579 20.0286C17.5955 20.9746 16.1655 21.4844 14.585 21.576C13.1315 21.6604 11.6832 21.3403 10.4034 20.6519C10.384 20.6405 10.3623 20.6336 10.3398 20.6318C10.3173 20.6299 10.2947 20.6331 10.2737 20.6412C8.97912 21.0535 7.68407 21.465 6.38852 21.8758C6.26286 21.9158 6.13796 21.9583 6.01268 21.9997H6C6.00671 21.9716 6.01119 21.9427 6.02051 21.9158C6.47514 20.5746 6.9304 19.2334 7.38628 17.892C7.39528 17.8704 7.39886 17.847 7.39672 17.8238C7.39457 17.8005 7.38677 17.7782 7.37397 17.7586C6.53624 16.3548 6.1649 14.7254 6.31245 13.1008C6.34935 12.667 6.42421 12.2372 6.53617 11.8163C6.98807 10.1439 7.89597 8.76288 9.26174 7.68606C10.5593 6.66543 12.0429 6.11426 13.6954 6.01335C14.0815 5.99085 14.4687 5.9974 14.8538 6.03294C15.285 6.07064 15.7121 6.14409 16.1309 6.25252C17.4177 6.58678 18.598 7.2389 19.5617 8.14799C20.5254 9.05707 21.241 10.1935 21.6417 11.451C21.8499 12.09 21.9671 12.7547 21.9899 13.4258C21.992 13.4503 21.9954 13.4748 22 13.499ZM8.02871 20.0068C8.06189 19.9972 8.08203 19.9924 8.10328 19.9861L9.7692 19.4557C10.0108 19.3788 10.2539 19.3023 10.4944 19.2243C10.5084 19.2175 10.524 19.2149 10.5395 19.2168C10.5549 19.2187 10.5694 19.225 10.5813 19.235C10.5947 19.2451 10.6087 19.2542 10.6234 19.2623C11.4317 19.7743 12.3436 20.1038 13.2946 20.2274C14.2455 20.3511 15.2123 20.266 16.1264 19.978C18.6935 19.167 20.5529 16.8359 20.6797 14.1034C20.7079 13.5494 20.6629 12.9941 20.5459 12.4517C20.2241 10.9879 19.4869 9.76688 18.3251 8.81131C16.994 7.71637 15.4541 7.22583 13.7271 7.31936C13.278 7.34482 12.8331 7.41844 12.4001 7.53894C9.72073 8.27715 7.77293 10.6371 7.61111 13.4054C7.57993 13.9154 7.60947 14.4272 7.69911 14.9303C7.86647 15.8711 8.2438 16.7629 8.8035 17.5405C8.81826 17.5586 8.82779 17.5803 8.83107 17.6033C8.83435 17.6264 8.83127 17.6499 8.82215 17.6713C8.5962 18.3315 8.37149 18.9922 8.14802 19.6534C8.10925 19.7673 8.07084 19.8815 8.02871 20.0068Z" fill="#0557F5"/>
<path d="M10.2134 11.9623C10.2212 11.2913 10.4315 10.7502 10.8845 10.3077C10.9114 10.2814 10.9386 10.2556 10.9647 10.2282C11.1556 10.029 11.389 9.95502 11.6623 9.98977C11.7686 10.0026 11.8755 10.0095 11.9826 10.0105C12.0311 10.0082 12.0794 10.0184 12.1227 10.0402C12.1661 10.062 12.203 10.0945 12.2298 10.1347C12.2744 10.2023 12.3119 10.2742 12.3416 10.3495C12.4162 10.5372 12.4837 10.728 12.5549 10.9169C12.6792 11.2444 12.8035 11.5717 12.9278 11.8987C12.9496 11.9507 12.9593 12.007 12.956 12.0633C12.9528 12.1196 12.9368 12.1744 12.9091 12.2236C12.8409 12.3576 12.7539 12.4813 12.6507 12.5911C12.5441 12.7001 12.4408 12.8129 12.3346 12.9238C12.2686 12.9914 12.2227 13.0668 12.2436 13.164C12.2539 13.2087 12.2706 13.2516 12.2932 13.2916C12.4736 13.6237 12.6846 13.9386 12.9233 14.2324C13.4115 14.8332 14.0301 15.3172 14.7331 15.6482C14.8077 15.6833 14.88 15.7203 14.9535 15.7557C14.98 15.7683 15.0072 15.7798 15.0344 15.7905C15.0867 15.814 15.1452 15.8202 15.2012 15.8081C15.2573 15.7961 15.308 15.7664 15.3457 15.7236C15.3968 15.6715 15.4472 15.6179 15.4949 15.5639C15.6832 15.3565 15.8733 15.1506 16.0441 14.9281C16.1325 14.8135 16.2275 14.7839 16.3666 14.8283C16.4446 14.853 16.5203 14.8841 16.5929 14.9214C16.9986 15.1316 17.4035 15.3433 17.8077 15.5565C17.895 15.6023 17.9803 15.6515 18.0687 15.6959C18.185 15.7543 18.2339 15.8437 18.2279 15.9746C18.2137 16.2055 18.1676 16.4334 18.0907 16.6518C18.0376 16.8152 17.9425 16.9621 17.8148 17.078C17.5271 17.3429 17.1772 17.5322 16.7969 17.6288C16.7497 17.6384 16.702 17.6456 16.6541 17.6503C16.6 17.658 16.5452 17.6632 16.4923 17.675C16.3108 17.7129 16.123 17.7103 15.9427 17.6673C15.6726 17.6075 15.408 17.5256 15.1515 17.4225C14.8409 17.3009 14.5314 17.1763 14.2264 17.0429C13.7111 16.8178 13.2495 16.5073 12.8226 16.1454C12.1481 15.5735 11.5874 14.904 11.1075 14.1669C10.9762 13.9658 10.8439 13.7651 10.7227 13.5581C10.5209 13.2208 10.372 12.8551 10.2809 12.4735C10.2413 12.3058 10.2187 12.1345 10.2134 11.9623Z" fill="#0557F5"/>
</svg>
