<svg width="28" height="28" viewBox="0 0 28 28" fill="none" xmlns="http://www.w3.org/2000/svg">
<rect width="28" height="28" rx="14" fill="white"/>
<g clip-path="url(#clip0_410_571)">
<path d="M12.6261 11.2373C12.2948 11.0393 11.8701 11.2786 11.8701 11.6666V16.3333C11.8701 16.7233 12.2955 16.9593 12.6261 16.7633L16.5388 14.4333C16.8641 14.2393 16.8634 13.7686 16.5394 13.574L12.6261 11.2373ZM12.8701 15.454V12.5473L15.3068 14.0026L12.8701 15.454Z" fill="#0557F5"/>
<path d="M19.2693 8.18067C16.1673 7.72001 11.834 7.72001 8.73067 8.18067C7.48933 8.36467 6.51133 9.33934 6.298 10.6047C5.90067 12.9533 5.90067 15.0473 6.298 17.3953C6.51133 18.6613 7.48933 19.6353 8.73067 19.8193C10.2853 20.05 12.1467 20.1653 14.0073 20.1653C15.8647 20.1653 17.7213 20.0507 19.27 19.82C20.51 19.636 21.4873 18.662 21.702 17.396C22.0993 15.0473 22.0993 12.9527 21.702 10.604C21.4887 9.33934 20.5107 8.36467 19.2693 8.18067ZM20.716 17.2293C20.574 18.0667 19.934 18.7107 19.1227 18.8307C16.1107 19.278 11.8973 19.278 8.87733 18.83C8.06533 18.7093 7.42467 18.066 7.28333 17.2287C6.90067 14.966 6.90067 13.0347 7.28333 10.7707C7.42533 9.93334 8.06533 9.29067 8.878 9.16934C10.386 8.94601 12.1933 8.83401 13.9993 8.83401C15.8067 8.83401 17.614 8.94601 19.122 9.16934C19.934 9.29001 20.5747 9.93334 20.716 10.7707C21.0987 13.0347 21.0987 14.966 20.716 17.2293Z" fill="#0557F5"/>
</g>
<defs>
<clipPath id="clip0_410_571">
<rect width="16" height="16" fill="white" transform="translate(6 6)"/>
</clipPath>
</defs>
</svg>
