<svg width="37" height="42" viewBox="0 0 37 42" fill="none" xmlns="http://www.w3.org/2000/svg">
<g clip-path="url(#clip0_65_24)">
<path d="M34.4314 0H2.56859C1.16198 0 0 1.17526 0 2.59794V31.732C0 33.1546 1.16198 34.3299 2.56859 34.3299H22.9339L31.0066 41.7216C31.7405 42.4021 32.9025 41.8763 32.9025 40.8557V34.3299H34.4314C35.838 34.3299 37 33.1546 37 31.732V2.59794C37 1.17526 35.838 0 34.4314 0Z" fill="#04D100"/>
<path d="M26.5466 21.472H23.8106V25H20.0186V21.472H10.9706V18.856L18.8906 8.2H22.9706L15.6266 18.304H20.1386V15.16H23.8106V18.304H26.5466V21.472Z" fill="white"/>
</g>
<defs>
<clipPath id="clip0_65_24">
<rect width="37" height="42" fill="white"/>
</clipPath>
</defs>
</svg>
