<svg width="37" height="42" viewBox="0 0 37 42" fill="none" xmlns="http://www.w3.org/2000/svg">
<g clip-path="url(#clip0_65_16)">
<path d="M34.4314 0H2.56859C1.16198 0 0 1.17526 0 2.59794V31.732C0 33.1546 1.16198 34.3299 2.56859 34.3299H22.9339L31.0066 41.7216C31.7405 42.4021 32.9025 41.8763 32.9025 40.8557V34.3299H34.4314C35.838 34.3299 37 33.1546 37 31.732V2.59794C37 1.17526 35.838 0 34.4314 0Z" fill="#0557F5"/>
<path d="M24.9099 21.832V25H12.2139V22.48L18.6939 16.36C19.3819 15.704 19.8459 15.144 20.0859 14.68C20.3259 14.2 20.4459 13.728 20.4459 13.264C20.4459 12.592 20.2139 12.08 19.7499 11.728C19.3019 11.36 18.6379 11.176 17.7579 11.176C17.0219 11.176 16.3579 11.32 15.7659 11.608C15.1739 11.88 14.6779 12.296 14.2779 12.856L11.4459 11.032C12.1019 10.056 13.0059 9.296 14.1579 8.752C15.3099 8.192 16.6299 7.912 18.1179 7.912C19.3659 7.912 20.4539 8.12 21.3819 8.536C22.3259 8.936 23.0539 9.512 23.5659 10.264C24.0939 11 24.3579 11.872 24.3579 12.88C24.3579 13.792 24.1659 14.648 23.7819 15.448C23.3979 16.248 22.6539 17.16 21.5499 18.184L17.6859 21.832H24.9099Z" fill="white"/>
</g>
<defs>
<clipPath id="clip0_65_16">
<rect width="37" height="42" fill="white"/>
</clipPath>
</defs>
</svg>
