<svg width="37" height="42" viewBox="0 0 37 42" fill="none" xmlns="http://www.w3.org/2000/svg">
<g clip-path="url(#clip0_65_20)">
<path d="M34.4314 0H2.56859C1.16198 0 0 1.17526 0 2.59794V31.732C0 33.1546 1.16198 34.3299 2.56859 34.3299H22.9339L31.0066 41.7216C31.7405 42.4021 32.9025 41.8763 32.9025 40.8557V34.3299H34.4314C35.838 34.3299 37 33.1546 37 31.732V2.59794C37 1.17526 35.838 0 34.4314 0Z" fill="#FFA726"/>
<path d="M20.1824 15.04C21.6544 15.28 22.7824 15.832 23.5664 16.696C24.3504 17.544 24.7424 18.6 24.7424 19.864C24.7424 20.84 24.4864 21.744 23.9744 22.576C23.4624 23.392 22.6784 24.048 21.6224 24.544C20.5824 25.04 19.3024 25.288 17.7824 25.288C16.5984 25.288 15.4304 25.136 14.2784 24.832C13.1424 24.512 12.1744 24.064 11.3744 23.488L12.8864 20.512C13.5264 20.992 14.2624 21.368 15.0944 21.64C15.9424 21.896 16.8064 22.024 17.6864 22.024C18.6624 22.024 19.4304 21.84 19.9904 21.472C20.5504 21.088 20.8304 20.552 20.8304 19.864C20.8304 18.488 19.7824 17.8 17.6864 17.8H15.9104V15.232L19.3664 11.32H12.2144V8.2H23.9744V10.72L20.1824 15.04Z" fill="white"/>
</g>
<defs>
<clipPath id="clip0_65_20">
<rect width="37" height="42" fill="white"/>
</clipPath>
</defs>
</svg>
