<svg width="86" height="87" viewBox="0 0 86 87" fill="none" xmlns="http://www.w3.org/2000/svg">
<circle cx="43" cy="43.9126" r="43" fill="#FF134C" fill-opacity="0.11"/>
<circle cx="43" cy="43.9126" r="35" fill="#FF134C"/>
<g clip-path="url(#clip0_608_5)">
<path d="M43 35.522C47.0343 35.522 50.3047 32.2516 50.3047 28.2173C50.3047 24.183 47.0343 20.9126 43 20.9126C38.9657 20.9126 35.6953 24.183 35.6953 28.2173C35.6953 32.2516 38.9657 35.522 43 35.522Z" fill="white"/>
<path d="M48.3675 36.5117C46.8209 37.5161 44.9775 38.1003 43 38.1003C41.0225 38.1003 39.179 37.5161 37.6324 36.5117C35.9227 37.1651 34.3375 38.1291 32.9591 39.3662L43 43.1316L53.0408 39.3662C51.6625 38.1291 50.0773 37.165 48.3675 36.5117Z" fill="white"/>
<path d="M58.4688 47.5532H57.6094C56.8975 47.5532 56.3203 48.1304 56.3203 48.8423V52.2798C56.3203 52.9917 56.8975 53.5688 57.6094 53.5688H58.4688C60.1299 53.5688 61.4766 52.2222 61.4766 50.561C61.4766 48.8999 60.1299 47.5532 58.4688 47.5532Z" fill="white"/>
<path d="M28.5158 41.0456C28.1682 41.2865 27.9609 41.6823 27.9609 42.1051V44.975H28.3906C30.523 44.975 32.2578 46.7098 32.2578 48.8422V52.2797C32.2578 54.412 30.523 56.1468 28.3906 56.1468H27.9609V58.8629C27.9609 59.4003 28.2943 59.8812 28.7974 60.0699L41.7109 64.9125V45.4012L29.7026 40.8981C29.3067 40.7495 28.8632 40.8046 28.5158 41.0456Z" fill="white"/>
<path d="M53.7422 52.2797V48.8422C53.7422 46.7098 55.477 44.975 57.6094 44.975H58.0391V42.1051C58.0391 41.6823 57.8318 41.2865 57.4843 41.0456C57.1367 40.8046 56.6931 40.7495 56.2974 40.8981L44.2891 45.4012V64.9125L57.2026 60.0699C57.7057 59.8812 58.0391 59.4003 58.0391 58.8629V56.1468H57.6094C55.477 56.1468 53.7422 54.412 53.7422 52.2797Z" fill="white"/>
<path d="M29.6797 52.2798V48.8423C29.6797 48.1304 29.1025 47.5532 28.3906 47.5532H27.5312C25.8701 47.5532 24.5234 48.8999 24.5234 50.561C24.5234 52.2222 25.8701 53.5688 27.5312 53.5688H28.3906C29.1025 53.5688 29.6797 52.9917 29.6797 52.2798Z" fill="white"/>
</g>
<defs>
<clipPath id="clip0_608_5">
<rect width="44" height="44" fill="white" transform="translate(21 20.9126)"/>
</clipPath>
</defs>
</svg>
