<svg width="86" height="87" viewBox="0 0 86 87" fill="none" xmlns="http://www.w3.org/2000/svg">
<circle cx="43" cy="43.9126" r="43" fill="#0557F5" fill-opacity="0.11"/>
<circle cx="43" cy="43.9126" r="35" fill="#0557F5"/>
<g clip-path="url(#clip0_608_4)">
<path d="M40.1895 32.7563C40.1965 32.756 40.2039 32.7554 40.2109 32.7554H45.7891C45.7964 32.7554 45.8035 32.756 45.8105 32.7563H48.6736C50.5655 30.3175 51.6133 27.3058 51.6133 24.1549V24.1431C51.6133 23.4634 51.0625 22.9126 50.3828 22.9126H35.6172C34.9375 22.9126 34.3867 23.4634 34.3867 24.1431V24.1549C34.3867 27.3051 35.4342 30.3166 37.3267 32.7563H40.1895Z" fill="white"/>
<path d="M55.3287 38.917L49.8259 35.2173H36.1741L30.6713 38.917C26.7825 41.5314 24.4609 45.89 24.4609 50.5757C24.4609 53.9826 25.6946 57.2709 27.9348 59.8353C30.1797 62.4049 33.2742 64.0622 36.6487 64.5012C38.7558 64.7755 40.8781 64.9126 43 64.9126C45.1219 64.9126 47.2442 64.7755 49.3513 64.5012C52.7258 64.0618 55.8203 62.4049 58.0652 59.835C60.3054 57.2709 61.5391 53.9823 61.5391 50.5757C61.5391 45.89 59.2175 41.5314 55.3287 38.917ZM43 47.604C45.0354 47.604 46.6914 49.26 46.6914 51.2954C46.6914 52.8995 45.6628 54.2671 44.2305 54.7753V56.2173C44.2305 56.8969 43.6796 57.4478 43 57.4478C42.3204 57.4478 41.7695 56.8969 41.7695 56.2173V54.9868H40.5391C39.8594 54.9868 39.3086 54.436 39.3086 53.7563C39.3086 53.0767 39.8594 52.5259 40.5391 52.5259H43C43.6784 52.5259 44.2305 51.9738 44.2305 51.2954C44.2305 50.6171 43.6784 50.0649 43 50.0649C40.9646 50.0649 39.3086 48.4089 39.3086 46.3735C39.3086 44.7694 40.3372 43.4018 41.7695 42.8936V41.4517C41.7695 40.772 42.3204 40.2212 43 40.2212C43.6796 40.2212 44.2305 40.772 44.2305 41.4517V42.6821H45.4609C46.1406 42.6821 46.6914 43.233 46.6914 43.9126C46.6914 44.5922 46.1406 45.1431 45.4609 45.1431H43C42.3216 45.1431 41.7695 45.6952 41.7695 46.3735C41.7695 47.0519 42.3216 47.604 43 47.604Z" fill="white"/>
</g>
<defs>
<clipPath id="clip0_608_4">
<rect width="42" height="42" fill="white" transform="translate(22 22.9126)"/>
</clipPath>
</defs>
</svg>
