<svg width="86" height="87" viewBox="0 0 86 87" fill="none" xmlns="http://www.w3.org/2000/svg">
<circle cx="43" cy="43.9126" r="43" fill="#FFA726" fill-opacity="0.11"/>
<circle cx="43" cy="43.9126" r="35" fill="#FFA726"/>
<g clip-path="url(#clip0_608_3)">
<path d="M61.9999 40.1298C60.2562 40.1298 58.639 40.1298 56.9796 40.1298C57.753 41.9017 57.5843 43.1251 56.4874 43.9688C55.5171 44.7001 54.1671 44.686 53.2249 43.9407C52.114 43.0548 51.9593 41.8595 52.7749 40.1298C51.1155 40.1298 49.4984 40.1298 47.839 40.1298C47.839 38.4282 47.839 36.811 47.839 35.1798C49.639 35.9392 50.7921 35.7845 51.6499 34.6735C52.3952 33.7173 52.3952 32.3673 51.664 31.411C50.778 30.286 49.6249 30.1313 47.839 30.9048C47.839 29.2595 47.839 27.6423 47.839 25.9126C48.0921 25.9126 48.3312 25.9126 48.5843 25.9126C52.339 25.9126 56.0796 25.9126 59.8343 25.9126C61.353 25.9126 61.9999 26.5735 61.9999 28.0923C61.9999 31.847 61.9999 35.5876 61.9999 39.3423C61.9999 39.5673 61.9999 39.7923 61.9999 40.1298Z" fill="white"/>
<path d="M40.1891 61.9126C40.1891 60.1829 40.1891 58.5517 40.1891 56.8361C39.3594 57.3142 38.5437 57.6658 37.6859 57.2861C37.1937 57.0751 36.6875 56.7517 36.3359 56.3579C35.5766 55.472 35.6328 54.0798 36.35 53.1658C37.2359 52.0548 38.3187 51.9001 40.2031 52.6876C40.2031 51.0423 40.2031 49.4111 40.2031 47.7517C41.8766 47.7517 43.4937 47.7517 45.1672 47.7517C44.6891 48.5814 44.3516 49.4533 44.7734 50.3533C45.0125 50.8595 45.3922 51.3658 45.8422 51.6892C46.7844 52.3923 48.1344 52.2517 49.0203 51.4642C50.0469 50.5501 50.1734 49.383 49.3719 47.7658C51.0312 47.7658 52.6766 47.7658 54.35 47.7658C54.3641 47.9767 54.3922 48.1876 54.3922 48.3986C54.3922 52.1673 54.3922 55.9361 54.3922 59.7189C54.3922 61.2798 53.7312 61.9126 52.1562 61.9126C48.4297 61.9126 44.7031 61.9126 40.9766 61.9126C40.7516 61.9126 40.5266 61.9126 40.1891 61.9126Z" fill="white"/>
<path d="M37.925 45.5438C37.1938 42.6329 35.45 41.1141 32.9469 41.1985C30.5844 41.2829 28.8266 42.9422 28.3484 45.5579C27.5891 45.5579 26.8297 45.5579 26 45.5579C26 44.9954 26 44.461 26 43.9266C26 41.1563 26 38.4 26 35.6297C26 34.2094 26.675 33.5344 28.1094 33.5344C31.9344 33.5344 35.7453 33.5344 39.5703 33.5344C39.7531 33.5344 39.9359 33.5485 40.175 33.5625C40.175 35.2219 40.175 36.8532 40.175 38.611C41.7781 37.711 43.1703 37.7672 44.2109 39.3C44.8578 40.2563 44.7031 41.5782 43.9297 42.4219C43.0297 43.4204 41.9047 43.5329 40.2312 42.7735C40.2312 43.7016 40.2312 44.6016 40.2312 45.5579C39.4437 45.5438 38.6984 45.5438 37.925 45.5438Z" fill="white"/>
<path d="M31.0766 47.7517C30.2328 46.036 30.3734 44.8126 31.4281 43.9267C32.3562 43.1532 33.7203 43.111 34.6906 43.8142C35.8438 44.6579 36.0125 45.8251 35.2391 47.6954C36.1672 47.6954 37.0672 47.6954 38.0797 47.6954C38.0797 48.4126 38.0938 49.0735 38.0656 49.7485C38.0656 49.861 37.8547 50.0298 37.7141 50.072C35.0422 50.8032 33.5375 52.6173 33.65 54.9657C33.7766 57.3704 35.3797 59.072 38.0375 59.5642C38.0375 60.3095 38.0375 61.0689 38.0375 61.8845C37.8125 61.8985 37.6156 61.9126 37.4047 61.9126C34.3109 61.9126 31.2172 61.9126 28.1234 61.9126C26.6609 61.9126 26 61.2376 26 59.761C26 55.9923 26 52.2235 26 48.4548C26 48.2439 26 48.0329 26 47.7517C27.6875 47.7517 29.3328 47.7517 31.0766 47.7517Z" fill="white"/>
</g>
<defs>
<clipPath id="clip0_608_3">
<rect width="36" height="36" fill="white" transform="translate(26 25.9126)"/>
</clipPath>
</defs>
</svg>
