<svg width="52" height="60" viewBox="0 0 52 60" fill="none" xmlns="http://www.w3.org/2000/svg">
<g clip-path="url(#clip0_87_83)">
<path d="M48.3901 0H3.60992C1.63306 0 0 1.67894 0 3.71134V45.3314C0 47.3638 1.63306 49.0427 3.60992 49.0427H32.2314L43.5769 59.6024C44.6083 60.5744 46.2413 59.8233 46.2413 58.3652V49.0427H48.3901C50.3669 49.0427 52 47.3638 52 45.3314V3.71134C52 1.67894 50.3669 0 48.3901 0Z" fill="#01A0C6"/>
<path d="M35.0085 31.1884V35.7142H17.1654V32.1142L26.2725 23.3713C27.2394 22.4342 27.8915 21.6342 28.2288 20.9713C28.5661 20.2856 28.7347 19.6113 28.7347 18.9484C28.7347 17.9884 28.4087 17.257 27.7566 16.7542C27.127 16.2284 26.1938 15.9656 24.957 15.9656C23.9226 15.9656 22.9894 16.1713 22.1574 16.5827C21.3254 16.9713 20.6284 17.5656 20.0662 18.3656L16.0861 15.7599C17.008 14.3656 18.2785 13.2799 19.8976 12.5027C21.5166 11.7027 23.3717 11.3027 25.463 11.3027C27.2169 11.3027 28.746 11.5999 30.0502 12.1942C31.3769 12.7656 32.4 13.5884 33.1196 14.6627C33.8617 15.7142 34.2327 16.9599 34.2327 18.3999C34.2327 19.7027 33.9629 20.9256 33.4232 22.0684C32.8835 23.2113 31.8379 24.5142 30.2863 25.977L24.8558 31.1884H35.0085Z" fill="white"/>
</g>
<defs>
<clipPath id="clip0_87_83">
<rect width="52" height="60" fill="white"/>
</clipPath>
</defs>
</svg>
