<svg width="52" height="59" viewBox="0 0 52 59" fill="none" xmlns="http://www.w3.org/2000/svg">
<g clip-path="url(#clip0_87_89)">
<path d="M48.3901 0H3.60992C1.63306 0 0 1.65096 0 3.64948V44.5758C0 46.5744 1.63306 48.2253 3.60992 48.2253H32.2314L43.5769 58.609C44.6083 59.5648 46.2413 58.8262 46.2413 57.3925V48.2253H48.3901C50.3669 48.2253 52 46.5744 52 44.5758V3.64948C52 1.65096 50.3669 0 48.3901 0Z" fill="#04D100"/>
<path d="M37.3087 30.163H33.4635V35.119H28.1342V30.163H15.4181V26.4882L26.5489 11.519H32.283L21.9617 25.7128H28.3028V21.2962H33.4635V25.7128H37.3087V30.163Z" fill="white"/>
</g>
<defs>
<clipPath id="clip0_87_89">
<rect width="52" height="59" fill="white"/>
</clipPath>
</defs>
</svg>
