<svg width="52" height="60" viewBox="0 0 52 60" fill="none" xmlns="http://www.w3.org/2000/svg">
<g clip-path="url(#clip0_87_86)">
<path d="M48.3901 0H3.60992C1.63306 0 0 1.67894 0 3.71134V45.3314C0 47.3638 1.63306 49.0427 3.60992 49.0427H32.2314L43.5769 59.6024C44.6083 60.5744 46.2413 59.8233 46.2413 58.3652V49.0427H48.3901C50.3669 49.0427 52 47.3638 52 45.3314V3.71134C52 1.67894 50.3669 0 48.3901 0Z" fill="#FFA726"/>
<path d="M28.3645 21.4858C30.4333 21.8286 32.0186 22.6172 33.1204 23.8515C34.2222 25.0629 34.7732 26.5715 34.7732 28.3772C34.7732 29.7715 34.4134 31.0629 33.6938 32.2515C32.9742 33.4172 31.8724 34.3544 30.3883 35.0629C28.9267 35.7715 27.1277 36.1258 24.9915 36.1258C23.3275 36.1258 21.686 35.9086 20.067 35.4744C18.4705 35.0172 17.11 34.3772 15.9857 33.5544L18.1107 29.3029C19.0101 29.9886 20.0445 30.5258 21.2138 30.9144C22.4056 31.2801 23.6199 31.4629 24.8566 31.4629C26.2283 31.4629 27.3076 31.2001 28.0947 30.6744C28.8817 30.1258 29.2752 29.3601 29.2752 28.3772C29.2752 26.4115 27.8023 25.4286 24.8566 25.4286H22.3606V21.7601L27.2177 16.1715H17.1662V11.7144H33.6938V15.3144L28.3645 21.4858Z" fill="white"/>
</g>
<defs>
<clipPath id="clip0_87_86">
<rect width="52" height="60" fill="white"/>
</clipPath>
</defs>
</svg>
