<svg width="106" height="105" viewBox="0 0 106 105" fill="none" xmlns="http://www.w3.org/2000/svg">
<circle cx="53.0001" cy="52.3846" r="52.3846" fill="#FF134C" fill-opacity="0.11"/>
<circle cx="52.9997" cy="52.3847" r="42.6386" fill="#FF134C"/>
<path d="M52.9997 42.1631C57.9145 42.1631 61.8987 38.1789 61.8987 33.2641C61.8987 28.3494 57.9145 24.3652 52.9997 24.3652C48.085 24.3652 44.1008 28.3494 44.1008 33.2641C44.1008 38.1789 48.085 42.1631 52.9997 42.1631Z" fill="white"/>
<path d="M59.5391 43.3682C57.6549 44.5917 55.4092 45.3034 53.0001 45.3034C50.591 45.3034 48.3452 44.5917 46.461 43.3682C44.3782 44.1641 42.447 45.3385 40.7678 46.8456L53.0001 51.4328L65.2323 46.8456C63.5531 45.3385 61.622 44.164 59.5391 43.3682Z" fill="white"/>
<path d="M71.8446 56.8198H70.7977C69.9304 56.8198 69.2273 57.5229 69.2273 58.3902V62.5779C69.2273 63.4452 69.9304 64.1483 70.7977 64.1483H71.8446C73.8683 64.1483 75.5089 62.5078 75.5089 60.4841C75.5089 58.4604 73.8683 56.8198 71.8446 56.8198Z" fill="white"/>
<path d="M35.3544 48.8921C34.931 49.1855 34.6785 49.6677 34.6785 50.1828V53.6791H35.2019C37.7997 53.6791 39.9131 55.7925 39.9131 58.3902V62.578C39.9131 65.1757 37.7997 67.2891 35.2019 67.2891H34.6785V70.598C34.6785 71.2526 35.0846 71.8386 35.6974 72.0684L51.4294 77.9678V54.1983L36.8003 48.7124C36.318 48.5314 35.7776 48.5985 35.3544 48.8921Z" fill="white"/>
<path d="M66.0868 62.578V58.3902C66.0868 55.7925 68.2002 53.6791 70.798 53.6791H71.3215V50.1828C71.3215 49.6677 71.0689 49.1855 70.6456 48.8921C70.2222 48.5985 69.6817 48.5314 69.1996 48.7124L54.5706 54.1983V77.9678L70.3025 72.0684C70.9153 71.8386 71.3215 71.2526 71.3215 70.598V67.2891H70.798C68.2002 67.2891 66.0868 65.1757 66.0868 62.578Z" fill="white"/>
<path d="M36.7726 62.5779V58.3902C36.7726 57.5229 36.0694 56.8198 35.2022 56.8198H34.1552C32.1315 56.8198 30.491 58.4604 30.491 60.4841C30.491 62.5078 32.1315 64.1483 34.1552 64.1483H35.2022C36.0694 64.1483 36.7726 63.4452 36.7726 62.5779Z" fill="white"/>
</svg>
