<svg width="785" height="185" viewBox="0 0 785 185" fill="none" xmlns="http://www.w3.org/2000/svg">
<path d="M782.5 0.5C787.833 31.8333 773.1 91.3 671.5 78.5C544.5 62.5 378.5 -6.42282 241.5 23C167 39 110.5 74 72 100" stroke="#DCDCDC" stroke-width="3" stroke-dasharray="5 10"/>
<g clip-path="url(#clip0_538_12)">
<path d="M85.0663 89.7575L95.5401 100.231C95.5401 100.231 102.582 100.038 107.466 94.2413C107.466 94.2413 105.405 94.362 104.06 94.1657C103.802 94.1378 103.746 93.7945 103.947 93.6508C105.324 92.6161 108.799 88.8558 108.75 76.5758C96.4416 76.5557 92.6815 79.9734 91.6753 81.3791C91.5316 81.5799 91.217 81.495 91.1604 81.2661C90.9641 79.9213 91.0848 77.86 91.0848 77.86C85.2593 82.7152 85.0663 89.7575 85.0663 89.7575Z" fill="url(#paint0_linear_538_12)"/>
<path d="M86.2118 99.1145C86.2118 99.1145 98.2875 100.452 100.797 84.529C84.8742 87.0388 86.2118 99.1145 86.2118 99.1145Z" fill="#FFE697"/>
<path d="M89.6285 95.6976C89.6285 95.6976 96.8396 96.4774 98.3281 86.9981C88.8487 88.4865 89.6285 95.6976 89.6285 95.6976Z" fill="white"/>
<path d="M95.44 104.955L96.1337 102.72C96.4514 101.774 96.197 100.716 95.4835 100.003L90.4322 94.9512L85.3808 89.8998C84.6673 89.1864 83.6375 88.9605 82.6634 89.2497L80.4285 89.9434L95.44 104.955Z" fill="#949494" stroke="#424242" stroke-width="2" stroke-miterlimit="10"/>
<path d="M94.8239 109.909L95.7485 107.043C96.1244 105.811 95.8136 104.467 94.9003 103.554L88.3935 97.0469L81.8866 90.54C80.9734 89.6268 79.6289 89.316 78.3969 89.6918L75.5317 90.6164L94.8239 109.909Z" fill="#4D4D4D" stroke="#424242" stroke-width="2" stroke-miterlimit="10"/>
<path d="M61.2888 105.544C61.2888 105.544 50.5638 83.4497 68.1578 67.9105C68.1578 67.9105 67.8158 95.8781 78.3648 100.398L61.2888 105.544Z" fill="#FF134C"/>
<path d="M79.7534 124.009C79.7534 124.009 101.848 134.734 117.387 117.14C117.387 117.14 89.4197 117.482 84.9001 106.933L79.7534 124.009Z" fill="#FF134C"/>
<path d="M30.8752 138.584C27.9925 145.29 25.881 152.539 25.056 160.327L25.0847 160.299L25.056 160.327C32.7871 159.56 39.9781 157.506 46.6278 154.623C42.0563 151.832 35.8882 146.87 30.8752 138.584Z" fill="#FF134C"/>
<path d="M31.221 137.838L30.875 138.641C37.3968 149.699 46.6276 154.68 46.6276 154.68L47.6308 154.248C73.772 142.547 90.9901 118.765 95.6197 111.796C96.3387 110.677 96.2287 109.189 95.287 108.247L94.0598 107.02L78.3349 91.295L77.2219 90.182C76.2801 89.2402 74.7921 89.0729 73.6734 89.8492C66.675 94.4503 42.893 111.668 31.221 137.838Z" fill="#EEEEEE"/>
<path d="M61.2305 124.838C57.5107 121.118 51.4616 121.136 47.7194 124.879C43.9771 128.621 43.9589 134.67 47.6786 138.39C51.3984 142.109 57.4475 142.091 61.1897 138.349C64.932 134.607 64.9502 128.557 61.2305 124.838Z" fill="#043146" stroke="#424242" stroke-width="2" stroke-miterlimit="10"/>
<path d="M57.2953 124.253C53.589 122.707 49.3133 124.467 47.7452 128.182C46.1771 131.898 47.9106 136.163 51.6169 137.709C55.3232 139.255 59.599 137.495 61.167 133.78C62.7351 130.064 61.0017 125.799 57.2953 124.253Z" fill="#7C7C7C" stroke="#424242" stroke-width="2" stroke-miterlimit="10"/>
<path d="M59.5939 126.474C56.7726 123.653 52.1845 123.667 49.3461 126.505C46.5077 129.343 46.4939 133.932 49.3152 136.753C52.1365 139.574 56.7246 139.56 59.563 136.722C62.4014 133.884 62.4152 129.295 59.5939 126.474Z" fill="#3EC2E5" stroke="#424242" stroke-width="2" stroke-miterlimit="10"/>
<g opacity="0.08">
<path opacity="0.08" d="M49.8626 135.578C47.8363 133.551 47.2727 130.633 48.1677 128.083C46.585 130.864 46.975 134.413 49.3152 136.753C52.1405 139.578 56.7206 139.564 59.563 136.722C60.3669 135.918 60.9137 134.972 61.2888 133.969C60.9723 134.514 60.5985 135.059 60.1104 135.547C57.268 138.389 52.688 138.403 49.8626 135.578Z" fill="black" stroke="#424242" stroke-width="2" stroke-miterlimit="10"/>
</g>
<path d="M72.5741 112.695C90.6864 105.599 96.0601 89.209 96.0601 89.209C96.0601 89.209 79.6703 94.64 72.5741 112.695Z" fill="#FF134C"/>
</g>
<defs>
<linearGradient id="paint0_linear_538_12" x1="90.3065" y1="94.981" x2="108.705" y2="76.5829" gradientUnits="userSpaceOnUse">
<stop offset="0.00558659" stop-color="#F7BD6F"/>
<stop offset="0.4496" stop-color="#F39958"/>
<stop offset="1" stop-color="#ED6637"/>
</linearGradient>
<clipPath id="clip0_538_12">
<rect width="69.7018" height="118.361" fill="white" transform="translate(49.6565 184.928) rotate(-135)"/>
</clipPath>
</defs>
</svg>
