<svg width="106" height="105" viewBox="0 0 106 105" fill="none" xmlns="http://www.w3.org/2000/svg">
<circle cx="53.0001" cy="52.3846" r="52.3846" fill="#0557F5" fill-opacity="0.11"/>
<circle cx="53.0002" cy="52.3847" r="42.6386" fill="#0557F5"/>
<g clip-path="url(#clip0_410_661)">
<path d="M49.5765 38.7936C49.5851 38.7932 49.5941 38.7925 49.6027 38.7925H56.3982C56.4072 38.7925 56.4158 38.7932 56.4243 38.7936H59.9123C62.217 35.8225 63.4935 32.1535 63.4935 28.315V28.3005C63.4935 27.4726 62.8225 26.8015 61.9945 26.8015H44.0063C43.1784 26.8015 42.5073 27.4726 42.5073 28.3005V28.315C42.5073 32.1527 43.7834 35.8214 46.089 38.7936H49.5765Z" fill="white"/>
<path d="M68.0199 46.2988L61.3161 41.7916H44.6848L37.981 46.2988C33.2435 49.4838 30.4153 54.7936 30.4153 60.502C30.4153 64.6524 31.9182 68.6583 34.6473 71.7825C37.3822 74.9128 41.152 76.9318 45.2629 77.4666C47.83 77.8008 50.4154 77.9678 53.0004 77.9678C55.5855 77.9678 58.1709 77.8008 60.7379 77.4666C64.8489 76.9314 68.6187 74.9128 71.3536 71.7821C74.0827 68.6583 75.5856 64.652 75.5856 60.502C75.5856 54.7936 72.7574 49.4838 68.0199 46.2988ZM53.0004 56.8817C55.4801 56.8817 57.4975 58.8991 57.4975 61.3788C57.4975 63.3329 56.2444 64.999 54.4995 65.6182V67.3748C54.4995 68.2028 53.8284 68.8738 53.0004 68.8738C52.1725 68.8738 51.5014 68.2028 51.5014 67.3748V65.8758H50.0024C49.1744 65.8758 48.5034 65.2048 48.5034 64.3768C48.5034 63.5488 49.1744 62.8778 50.0024 62.8778H53.0004C53.8269 62.8778 54.4995 62.2052 54.4995 61.3788C54.4995 60.5523 53.8269 59.8797 53.0004 59.8797C50.5208 59.8797 48.5034 57.8623 48.5034 55.3827C48.5034 53.4285 49.7565 51.7624 51.5014 51.1433V49.3866C51.5014 48.5587 52.1725 47.8876 53.0004 47.8876C53.8284 47.8876 54.4995 48.5587 54.4995 49.3866V50.8856H55.9985C56.8264 50.8856 57.4975 51.5567 57.4975 52.3847C57.4975 53.2126 56.8264 53.8837 55.9985 53.8837H53.0004C52.174 53.8837 51.5014 54.5563 51.5014 55.3827C51.5014 56.2091 52.174 56.8817 53.0004 56.8817Z" fill="white"/>
</g>
<defs>
<clipPath id="clip0_410_661">
<rect width="51.1664" height="51.1664" fill="white" transform="translate(27.4172 26.8015)"/>
</clipPath>
</defs>
</svg>
