<svg width="106" height="105" viewBox="0 0 106 105" fill="none" xmlns="http://www.w3.org/2000/svg">
<circle cx="52.7261" cy="52.3846" r="52.3846" fill="#0557F5" fill-opacity="0.11"/>
<circle cx="52.7261" cy="52.3847" r="42.6386" fill="#0557F5"/>
<g clip-path="url(#clip0_659_2)">
<path d="M49.3022 38.7936C49.3107 38.7932 49.3197 38.7925 49.3283 38.7925H56.1238C56.1328 38.7925 56.1414 38.7932 56.15 38.7936H59.6379C61.9427 35.8225 63.2192 32.1535 63.2192 28.315V28.3005C63.2192 27.4726 62.5481 26.8015 61.7202 26.8015H43.732C42.904 26.8015 42.233 27.4726 42.233 28.3005V28.315C42.233 32.1527 43.5091 35.8214 45.8146 38.7936H49.3022Z" fill="white"/>
<path d="M67.7455 46.2989L61.0417 41.7917H44.4104L37.7066 46.2989C32.9691 49.484 30.1409 54.7937 30.1409 60.5021C30.1409 64.6525 31.6438 68.6585 34.3729 71.7826C37.1078 74.9129 40.8776 76.9319 44.9886 77.4667C47.5556 77.8009 50.1411 77.968 52.7261 77.968C55.3111 77.968 57.8965 77.8009 60.4636 77.4667C64.5745 76.9315 68.3443 74.9129 71.0792 71.7822C73.8083 68.6585 75.3112 64.6521 75.3112 60.5021C75.3112 54.7937 72.483 49.484 67.7455 46.2989ZM52.7261 56.8818C55.2057 56.8818 57.2231 58.8993 57.2231 61.3789C57.2231 63.3331 55.97 64.9992 54.2251 65.6183V67.3749C54.2251 68.2029 53.554 68.8739 52.7261 68.8739C51.8981 68.8739 51.2271 68.2029 51.2271 67.3749V65.8759H49.728C48.9001 65.8759 48.229 65.2049 48.229 64.3769C48.229 63.5489 48.9001 62.8779 49.728 62.8779H52.7261C53.5525 62.8779 54.2251 62.2053 54.2251 61.3789C54.2251 60.5525 53.5525 59.8799 52.7261 59.8799C50.2465 59.8799 48.229 57.8624 48.229 55.3828C48.229 53.4286 49.4821 51.7625 51.2271 51.1434V49.3868C51.2271 48.5588 51.8981 47.8877 52.7261 47.8877C53.554 47.8877 54.2251 48.5588 54.2251 49.3868V50.8858H55.7241C56.5521 50.8858 57.2231 51.5568 57.2231 52.3848C57.2231 53.2128 56.5521 53.8838 55.7241 53.8838H52.7261C51.8997 53.8838 51.2271 54.5564 51.2271 55.3828C51.2271 56.2092 51.8997 56.8818 52.7261 56.8818Z" fill="white"/>
</g>
<defs>
<clipPath id="clip0_659_2">
<rect width="51.1664" height="51.1664" fill="white" transform="translate(27.1429 26.8015)"/>
</clipPath>
</defs>
</svg>
