<svg width="252" height="381" viewBox="0 0 252 381" fill="none" xmlns="http://www.w3.org/2000/svg">
<path d="M228.42 46.0914C176.732 21.4154 68.8198 46.0913 46.5731 118.163C15.7516 218.014 78.8025 292.919 139 311.5" stroke="#DCDCDC" stroke-width="3" stroke-dasharray="5 10"/>
<path d="M150.566 324.449L155.368 310.437C155.368 310.437 152.098 304.197 144.744 302.359C144.744 302.359 145.759 304.158 146.174 305.452C146.262 305.696 145.979 305.897 145.761 305.78C144.226 304.998 139.321 303.53 128.313 308.973C133.707 320.037 138.43 321.912 140.135 322.197C140.378 322.238 140.441 322.558 140.26 322.709C139.138 323.477 137.234 324.275 137.234 324.275C144.156 327.372 150.566 324.449 150.566 324.449Z" fill="url(#paint0_linear_531_4)"/>
<path d="M158.466 319.307C158.466 319.307 154.358 307.873 138.953 312.62C148.208 325.817 158.466 319.307 158.466 319.307Z" fill="#FFE697"/>
<path d="M153.895 317.74C153.895 317.74 151.425 310.921 142.256 313.752C147.761 321.611 153.895 317.74 153.895 317.74Z" fill="white"/>
<path d="M159.654 308.45L157.342 308.81C156.353 308.94 155.514 309.634 155.187 310.589L152.871 317.347L150.555 324.105C150.228 325.059 150.478 326.083 151.166 326.831L152.772 328.533L159.654 308.45Z" fill="#949494" stroke="#0B172D" stroke-width="2" stroke-miterlimit="10"/>
<path d="M164.374 306.826L161.394 307.255C160.122 307.459 159.052 308.329 158.633 309.551L155.65 318.256L152.667 326.961C152.248 328.183 152.56 329.527 153.439 330.469L155.529 332.636L164.374 306.826Z" fill="#4D4D4D" stroke="#0B172D" stroke-width="2" stroke-miterlimit="10"/>
<path d="M175.199 338.864C175.199 338.864 160.07 358.212 138.378 349.242C138.378 349.242 163.648 337.252 163.069 325.79L175.199 338.864Z" fill="#FF134C"/>
<path d="M183.665 314.162C183.665 314.162 183.583 289.602 160.948 283.381C160.948 283.381 173.552 308.35 166.065 317.047L183.665 314.162Z" fill="#FF134C"/>
<path d="M218.246 351.654C225.537 351.294 232.976 350.003 240.334 347.32L240.295 347.307L240.334 347.32C236.245 340.714 231.238 335.158 225.726 330.453C225.228 335.786 223.484 343.508 218.246 351.654Z" fill="#FF134C"/>
<path d="M217.424 351.671L218.297 351.629C225.361 340.909 225.777 330.428 225.777 330.428L224.948 329.717C202.945 311.383 174.014 306.375 165.719 305.281C164.398 305.127 163.11 305.88 162.678 307.14L162.116 308.782L154.906 329.819L154.396 331.308C153.964 332.568 154.468 333.978 155.657 334.642C162.867 338.904 188.788 352.694 217.424 351.671Z" fill="#EEEEEE"/>
<path d="M192.553 330.434C190.848 335.41 193.524 340.835 198.53 342.551C203.537 344.266 208.978 341.623 210.683 336.647C212.389 331.67 209.713 326.245 204.706 324.53C199.7 322.814 194.259 325.457 192.553 330.434Z" fill="#043146" stroke="#0B172D" stroke-width="2" stroke-miterlimit="10"/>
<path d="M193.758 334.225C194 338.233 197.46 341.3 201.487 341.075C205.513 340.85 208.582 337.417 208.341 333.409C208.099 329.4 204.639 326.334 200.612 326.559C196.586 326.784 193.517 330.217 193.758 334.225Z" fill="#7C7C7C" stroke="#0B172D" stroke-width="2" stroke-miterlimit="10"/>
<path d="M194.743 331.184C193.449 334.958 195.479 339.073 199.276 340.375C203.073 341.676 207.2 339.671 208.494 335.897C209.787 332.122 207.758 328.007 203.96 326.706C200.163 325.405 196.036 327.41 194.743 331.184Z" fill="#3EC2E5" stroke="#0B172D" stroke-width="2" stroke-miterlimit="10"/>
<g opacity="0.08">
<path opacity="0.08" d="M207.198 335.922C206.269 338.632 203.896 340.422 201.211 340.739C204.406 340.938 207.421 339.027 208.494 335.897C209.789 332.117 207.763 328.009 203.96 326.706C202.885 326.337 201.795 326.262 200.729 326.367C201.357 326.411 202.011 326.507 202.664 326.731C206.467 328.034 208.493 332.142 207.198 335.922Z" fill="black" stroke="#0B172D" stroke-width="2" stroke-miterlimit="10"/>
</g>
<path d="M176.66 325.584C162.323 312.437 145.239 314.816 145.239 314.816C145.239 314.816 157.324 327.149 176.66 325.584Z" fill="#FF134C"/>
<defs>
<linearGradient id="paint0_linear_531_4" x1="152.953" y1="317.446" x2="128.34" y2="309.011" gradientUnits="userSpaceOnUse">
<stop offset="0.00558659" stop-color="#F7BD6F"/>
<stop offset="0.4496" stop-color="#F39958"/>
<stop offset="1" stop-color="#ED6637"/>
</linearGradient>
</defs>
</svg>
