<svg width="106" height="105" viewBox="0 0 106 105" fill="none" xmlns="http://www.w3.org/2000/svg">
<circle cx="53.0001" cy="52.3846" r="52.3846" fill="#FFA726" fill-opacity="0.11"/>
<circle cx="53.0002" cy="52.3847" r="42.6386" fill="#FFA726"/>
<g clip-path="url(#clip0_410_660)">
<path d="M76.1465 47.7761C74.0222 47.7761 72.0521 47.7761 70.0305 47.7761C70.9728 49.9347 70.7672 51.4251 69.4309 52.453C68.2489 53.3439 66.6042 53.3267 65.4564 52.4188C64.103 51.3395 63.9146 49.8833 64.9082 47.7761C62.8867 47.7761 60.9165 47.7761 58.895 47.7761C58.895 45.7032 58.895 43.733 58.895 41.7458C61.0879 42.6709 62.4926 42.4824 63.5377 41.129C64.4456 39.9641 64.4457 38.3195 63.5548 37.1545C62.4755 35.784 61.0707 35.5955 58.895 36.5378C58.895 34.5334 58.895 32.5632 58.895 30.4561C59.2034 30.4561 59.4946 30.4561 59.803 30.4561C64.3771 30.4561 68.9341 30.4561 73.5083 30.4561C75.3585 30.4561 76.1465 31.2612 76.1465 33.1115C76.1465 37.6856 76.1465 42.2426 76.1465 46.8167C76.1465 47.0908 76.1465 47.3649 76.1465 47.7761Z" fill="white"/>
<path d="M49.5755 74.3129C49.5755 72.2057 49.5755 70.2185 49.5755 68.1284C48.5648 68.7109 47.5711 69.1392 46.5261 68.6766C45.9265 68.4196 45.3098 68.0256 44.8815 67.5459C43.9564 66.4666 44.0249 64.7706 44.8986 63.6571C45.9779 62.3037 47.297 62.1152 49.5926 63.0746C49.5926 61.0702 49.5926 59.0829 49.5926 57.0614C51.6313 57.0614 53.6014 57.0614 55.6401 57.0614C55.0576 58.0722 54.6465 59.1343 55.1604 60.2307C55.4517 60.8475 55.9142 61.4642 56.4624 61.8582C57.6102 62.7148 59.2549 62.5435 60.3342 61.5841C61.5848 60.4706 61.739 59.0487 60.7625 57.0785C62.784 57.0785 64.7884 57.0785 66.827 57.0785C66.8442 57.3355 66.8784 57.5925 66.8784 57.8495C66.8784 62.4407 66.8784 67.032 66.8784 71.6404C66.8784 73.542 66.0732 74.3129 64.1545 74.3129C59.6146 74.3129 55.0748 74.3129 50.5349 74.3129C50.2608 74.3129 49.9867 74.3129 49.5755 74.3129Z" fill="white"/>
<path d="M46.8174 54.3718C45.9265 50.8256 43.8022 48.9754 40.7528 49.0782C37.8747 49.181 35.7332 51.2025 35.1508 54.389C34.2257 54.389 33.3006 54.389 32.2898 54.389C32.2898 53.7037 32.2898 53.0527 32.2898 52.4017C32.2898 49.0268 32.2898 45.669 32.2898 42.2941C32.2898 40.5638 33.1121 39.7415 34.8595 39.7415C39.5193 39.7415 44.162 39.7415 48.8218 39.7415C49.0445 39.7415 49.2672 39.7586 49.5584 39.7757C49.5584 41.7972 49.5584 43.7845 49.5584 45.926C51.5114 44.8295 53.2075 44.8981 54.4752 46.7654C55.2633 47.9304 55.0748 49.5407 54.1326 50.5686C53.0362 51.785 51.6656 51.922 49.627 50.9969C49.627 52.1276 49.627 53.224 49.627 54.389C48.6676 54.3718 47.7596 54.3718 46.8174 54.3718Z" fill="white"/>
<path d="M38.4743 57.0615C37.4464 54.9714 37.6177 53.481 38.9026 52.4017C40.0333 51.4594 41.695 51.408 42.8771 52.2646C44.2819 53.2925 44.4875 54.7144 43.5453 56.9929C44.6759 56.9929 45.7724 56.9929 47.0058 56.9929C47.0058 57.8666 47.023 58.6718 46.9887 59.4942C46.9887 59.6312 46.7317 59.8368 46.5604 59.8882C43.3054 60.779 41.4723 62.989 41.6094 65.85C41.7636 68.7795 43.7166 70.8524 46.9544 71.452C46.9544 72.36 46.9544 73.2851 46.9544 74.2787C46.6803 74.2958 46.4405 74.313 46.1835 74.313C42.4146 74.313 38.6456 74.313 34.8767 74.313C33.095 74.313 32.2898 73.4907 32.2898 71.6918C32.2898 67.1006 32.2898 62.5093 32.2898 57.918C32.2898 57.6611 32.2898 57.4041 32.2898 57.0615C34.3456 57.0615 36.35 57.0615 38.4743 57.0615Z" fill="white"/>
</g>
<defs>
<clipPath id="clip0_410_660">
<rect width="43.8569" height="43.8569" fill="white" transform="translate(32.2898 30.4561)"/>
</clipPath>
</defs>
</svg>
