<svg width="105" height="53" viewBox="0 0 105 53" fill="none" xmlns="http://www.w3.org/2000/svg">
<path d="M102 0.113249L99.1133 3L102 5.88675L104.887 3L102 0.113249ZM2.06941 33.5048C1.79595 33.4665 1.54318 33.6571 1.50484 33.9306L0.88011 38.387C0.841773 38.6605 1.03238 38.9132 1.30585 38.9516C1.57932 38.9899 1.83209 38.7993 1.87043 38.5258L2.42574 34.5646L6.38701 35.1199C6.66048 35.1582 6.91324 34.9676 6.95158 34.6941C6.98992 34.4207 6.79931 34.1679 6.52584 34.1296L2.06941 33.5048ZM101.5 3C101.5 16.9369 96.7338 27.6859 89.248 35.5148C81.7546 43.3516 71.5102 48.2885 60.5247 50.5388C49.5394 52.7891 37.8386 52.3469 27.4625 49.451C17.0832 46.5542 8.06564 41.2131 2.39921 33.699L1.60079 34.301C7.43436 42.0369 16.6668 47.4762 27.1937 50.4142C37.7239 53.3531 49.5856 53.8003 60.7253 51.5185C71.8648 49.2366 82.3079 44.22 89.9708 36.2059C97.6412 28.1839 102.5 17.1846 102.5 3H101.5Z" fill="black"/>
</svg>
