<svg width="89" height="19" viewBox="0 0 89 19" fill="none" xmlns="http://www.w3.org/2000/svg">
<path d="M6.33587 17.6378C5.5759 17.6412 4.82319 17.4906 4.12358 17.1952C3.42398 16.8997 2.79213 16.4656 2.26651 15.9193C1.10446 14.7714 0.523438 13.2365 0.523438 11.3146C0.523438 9.42753 1.10446 7.9057 2.26651 6.7491C2.78993 6.19903 3.42107 5.76158 4.12098 5.46375C4.82088 5.16592 5.57469 5.01403 6.33587 5.01747C8.24932 5.01747 9.80236 5.87622 10.995 7.59372V0.285645H12.8069V17.3802H10.995V14.9475C9.76959 16.741 8.21655 17.6378 6.33587 17.6378ZM6.66351 16.0236C7.24279 16.0237 7.8158 15.9044 8.34644 15.6732C8.87708 15.4419 9.35384 15.1038 9.74666 14.68C10.1836 14.2306 10.5249 13.6979 10.7501 13.114C10.9753 12.5302 11.0798 11.907 11.0572 11.282C11.0772 10.6666 10.9713 10.0535 10.746 9.48006C10.5207 8.9066 10.1807 8.38466 9.74666 7.94592C9.35162 7.52636 8.874 7.19227 8.34356 6.96448C7.81312 6.73669 7.24122 6.62008 6.66351 6.62192C6.09222 6.60846 5.52453 6.7154 4.99769 6.93571C4.47086 7.15602 3.99678 7.48473 3.60658 7.90026C2.78965 8.75032 2.38119 9.89387 2.38119 11.3309C2.35481 11.9487 2.45154 12.5656 2.66579 13.146C2.88003 13.7264 3.20757 14.2588 3.62952 14.7127C4.01368 15.1319 4.48263 15.4654 5.00554 15.6913C5.52846 15.9173 6.09349 16.0305 6.66351 16.0236Z" fill="white"/>
<path d="M17.9346 12.0713C18.0076 13.1915 18.5081 14.2414 19.3336 15.0063C20.1199 15.7218 21.1517 16.1103 22.2169 16.0922C22.9411 16.0917 23.6572 15.9392 24.3182 15.6448C24.9793 15.3504 25.5706 14.9206 26.0536 14.3834L27.1807 15.3911C26.5656 16.1147 25.7978 16.6945 24.9319 17.089C24.066 17.4836 23.1233 17.6833 22.171 17.6738C21.3667 17.6899 20.5678 17.54 19.8246 17.2336C19.0813 16.9271 18.4099 16.4708 17.8527 15.8933C16.6841 14.7171 16.0998 13.1953 16.0998 11.3278C16.0614 9.67858 16.6594 8.07745 17.7707 6.85358C18.2882 6.26355 18.9291 5.79344 19.6485 5.47626C20.3679 5.15908 21.1484 5.00252 21.9351 5.0176C23.6826 5.0176 25.063 5.62633 26.0766 6.8438C27.0901 8.06127 27.6001 9.58637 27.6067 11.4191C27.6067 11.6539 27.6067 11.8659 27.5837 12.0517L17.9346 12.0713ZM17.9346 10.6201H25.7817C25.7121 9.55007 25.3038 8.52945 24.6153 7.70473C24.2803 7.31559 23.8608 7.00738 23.3886 6.80342C22.9163 6.59947 22.4036 6.5051 21.8893 6.52748C21.389 6.52384 20.8936 6.62504 20.4352 6.82449C19.9768 7.02395 19.5658 7.31719 19.2288 7.68516C18.475 8.48618 18.0184 9.51927 17.9346 10.6136V10.6201Z" fill="white"/>
<path d="M36.2663 17.6641C35.4375 17.6803 34.6146 17.5229 33.8509 17.2021C33.0872 16.8813 32.3998 16.4043 31.8332 15.8021C31.2511 15.2147 30.7928 14.5175 30.485 13.7514C30.1772 12.9854 30.0263 12.1658 30.041 11.3409C30.0276 10.5153 30.1801 9.69537 30.4895 8.92926C30.799 8.16316 31.2592 7.46634 31.8431 6.87976C32.4079 6.27792 33.0936 5.80111 33.8556 5.4803C34.6177 5.15949 35.439 5.00187 36.2663 5.01768C37.1854 5.01401 38.0949 5.20488 38.9343 5.57763C39.7737 5.95039 40.5239 6.49651 41.1351 7.17978L39.9818 8.39942C38.8503 7.21239 37.6031 6.61887 36.2401 6.61887C35.6556 6.61024 35.0762 6.72828 34.5421 6.96479C34.008 7.2013 33.532 7.55062 33.1471 7.98853C32.3069 8.90527 31.856 10.1102 31.8889 11.3507C31.8614 12.5847 32.3214 13.7802 33.17 14.6803C33.5717 15.1227 34.0642 15.4741 34.6143 15.7104C35.1643 15.9467 35.759 16.0625 36.358 16.0499C37.6686 16.0499 38.8918 15.4412 40.0277 14.2237L41.2301 15.3325C39.8191 16.8869 38.1644 17.6641 36.2663 17.6641Z" fill="white"/>
<path d="M67.2059 17.6378C66.4454 17.6413 65.6922 17.4907 64.992 17.1953C64.2919 16.8998 63.6595 16.4657 63.1332 15.9193C61.9734 14.7714 61.3934 13.2365 61.3934 11.3146C61.3934 9.42754 61.9734 7.9057 63.1332 6.7491C63.657 6.19863 64.2887 5.76094 64.9892 5.4631C65.6897 5.16526 66.4441 5.01359 67.2059 5.01747C69.1193 5.01747 70.6723 5.87622 71.865 7.59372V0.285645H73.6736V17.3802H71.865V14.9475C70.6308 16.741 69.0778 17.6378 67.2059 17.6378ZM67.5335 16.0236C68.1127 16.0235 68.6857 15.9041 69.2163 15.6729C69.7469 15.4417 70.2237 15.1036 70.6166 14.68C71.0536 14.2306 71.3949 13.6979 71.6201 13.114C71.8453 12.5302 71.9498 11.907 71.9272 11.282C71.9472 10.6666 71.8413 10.0535 71.616 9.48006C71.3907 8.9066 71.0507 8.38466 70.6166 7.94592C70.2214 7.52667 69.7437 7.19279 69.2133 6.96502C68.6829 6.73726 68.1111 6.62047 67.5335 6.62192C66.9622 6.60805 66.3943 6.7148 65.8674 6.93513C65.3405 7.15547 64.8665 7.4844 64.4766 7.90026C63.6618 8.75032 63.2534 9.89387 63.2512 11.3309C63.2248 11.9487 63.3215 12.5656 63.5358 13.146C63.75 13.7264 64.0776 14.2588 64.4995 14.7127C64.8833 15.1324 65.3522 15.4662 65.8752 15.6922C66.3982 15.9182 66.9634 16.0311 67.5335 16.0236Z" fill="white"/>
<path d="M78.8045 12.0711C78.8776 13.1913 79.3781 14.2413 80.2036 15.0061C80.9899 15.7216 82.0216 16.1102 83.0869 16.092C83.8106 16.0915 84.5261 15.939 85.1867 15.6445C85.8472 15.3501 86.438 14.9203 86.9203 14.3832L88.0507 15.3909C87.4356 16.1145 86.6678 16.6943 85.8019 17.0889C84.936 17.4834 83.9933 17.6831 83.041 17.6737C82.2374 17.6912 81.4388 17.5429 80.6956 17.2381C79.9524 16.9334 79.2806 16.4788 78.7226 15.9029C77.554 14.7267 76.9697 13.2049 76.9697 11.3374C76.9289 9.68483 77.527 8.07974 78.6407 6.8534C79.1564 6.26473 79.7952 5.79538 80.5123 5.47824C81.2293 5.16109 82.0074 5.00381 82.792 5.01741C84.5394 5.01741 85.9199 5.62615 86.9334 6.84362C87.9469 8.06109 88.4602 9.58618 88.4734 11.4189C88.4734 11.6537 88.4733 11.8657 88.4504 12.0516L78.8045 12.0711ZM78.8045 10.6199H86.6385C86.5701 9.55022 86.1629 8.52957 85.4754 7.70454C85.1393 7.31964 84.7201 7.0153 84.2492 6.81427C83.7783 6.61324 83.2678 6.52071 82.756 6.5436C82.2569 6.53857 81.7624 6.63818 81.3045 6.83596C80.8467 7.03373 80.4359 7.32524 80.0987 7.6915C79.3463 8.49081 78.8898 9.52138 78.8045 10.6134V10.6199Z" fill="white"/>
<path d="M45.6501 14.7192C45.5026 14.4485 45.3224 14.067 45.1848 13.7996C45.1062 13.5909 45.0013 13.3137 44.9358 13.1017L44.8965 12.9321C45.0445 13.4282 45.2501 13.9053 45.5092 14.354C45.5294 14.4894 45.5774 14.6192 45.6501 14.7355" fill="white"/>
<path d="M44.8178 12.6614C44.7818 12.482 44.7326 12.2472 44.7064 12.0679L44.7851 12.5603L44.8047 12.6614" fill="white"/>
<path d="M46.9311 16.2843L46.9049 16.2615C46.7444 16.1017 46.5314 15.8865 46.3774 15.7169C46.2234 15.5473 46.0203 15.2734 45.8794 15.0647C45.7914 14.943 45.7341 14.8021 45.7123 14.6538C45.9922 15.0799 46.3149 15.4766 46.6756 15.8376C46.7066 16.0086 46.797 16.1633 46.9311 16.2746" fill="white"/>
<path d="M46.3413 6.31192C46.4822 6.16191 46.669 5.95972 46.8131 5.81297L47.0032 5.64014C46.8164 5.81623 46.5707 6.06082 46.397 6.25322L46.3413 6.31192Z" fill="white"/>
<path d="M45.6959 7.46667C45.8896 7.04439 46.1338 6.64692 46.4232 6.2829C46.6606 6.10902 46.9115 5.95418 47.1735 5.81982C46.8824 6.14204 46.6396 6.50452 46.4527 6.89598C46.1811 7.06388 45.9246 7.25481 45.686 7.46667" fill="white"/>
<path d="M45.2241 8.09934L45.4535 7.62322C45.6284 7.28846 45.8312 6.96885 46.0596 6.66773L46.0858 6.6286L46.1677 6.53076C45.8787 6.91259 45.6346 7.3262 45.4404 7.76345C45.3781 7.86128 45.2929 7.99499 45.2405 8.08956" fill="white"/>
<path d="M46.6625 6.01877C46.9736 5.6821 47.3208 5.38029 47.6978 5.11871C47.9397 4.99611 48.1919 4.89463 48.4514 4.81543C48.071 5.02585 47.7197 5.28455 47.4062 5.58504C47.1459 5.70939 46.8961 5.85444 46.6592 6.01877" fill="white"/>
<path d="M44.667 10.2482L44.6998 9.96119L44.726 9.79814C44.7873 9.41608 44.8804 9.03975 45.0045 8.67307L45.0602 8.51002C45.1271 8.36862 45.2026 8.2314 45.2863 8.09912C45.1147 8.56116 45.0045 9.04354 44.9586 9.53399C44.8054 9.74543 44.7054 9.99033 44.667 10.2482Z" fill="white"/>
<path d="M45.2404 9.18832C45.2857 8.71047 45.3959 8.24095 45.568 7.79258C45.808 7.57323 46.0655 7.37364 46.338 7.1958C46.1789 7.61411 46.0839 8.05383 46.0562 8.50023C45.7677 8.70316 45.4969 8.93007 45.2469 9.17854" fill="white"/>
<path d="M47.8682 5.38611C48.1806 5.10475 48.5313 4.86871 48.9101 4.68498C49.1787 4.61649 49.4834 4.54475 49.9356 4.45996C49.5622 4.58773 49.2116 4.77376 48.897 5.01108C48.5693 5.11544 48.2417 5.2361 47.8682 5.38611Z" fill="white"/>
<path d="M48.5595 5.8195C48.7224 5.50776 48.945 5.23079 49.2148 5.00423L50.2698 4.64551C50.0096 4.81144 49.791 5.03456 49.6309 5.29772L48.553 5.81297" fill="white"/>
<path d="M46.9343 6.62171C47.1152 6.24773 47.354 5.90439 47.642 5.60425C47.9173 5.48686 48.2023 5.3662 48.6774 5.19336C48.4003 5.44718 48.1717 5.74879 48.0025 6.08363C47.4815 6.33474 47.239 6.4554 46.9343 6.62171Z" fill="white"/>
<path d="M49.4376 4.83816C49.7549 4.62404 50.106 4.46422 50.4762 4.36531C50.912 4.30008 50.9906 4.28704 51.4264 4.23486C51.0997 4.28037 50.7823 4.37723 50.4861 4.52184C50.1945 4.60989 49.7915 4.72728 49.4343 4.84794" fill="white"/>
<path d="M46.5477 8.15808C46.57 7.72656 46.6584 7.30097 46.8098 6.89604C47.1965 6.68407 47.3242 6.61233 47.8878 6.32861C47.7464 6.69225 47.6678 7.07703 47.6552 7.46673C47.2685 7.70153 46.9049 7.92328 46.5477 8.15808Z" fill="white"/>
<path d="M48.2253 7.13411C48.2358 6.76518 48.3112 6.40094 48.4481 6.05796L49.5326 5.50684C49.4052 5.8036 49.3405 6.1233 49.3426 6.44603C48.9691 6.68082 48.7823 6.79822 48.2253 7.13411Z" fill="white"/>
<path d="M44.785 12.205C44.6684 11.6905 44.6166 11.1636 44.631 10.6364C44.6721 10.3747 44.773 10.126 44.9259 9.90918C44.9121 10.4311 44.9649 10.9527 45.0832 11.4615C44.9303 11.6846 44.8285 11.9384 44.785 12.205Z" fill="white"/>
<path d="M46.1251 13.0006C45.8651 12.5127 45.6544 12.0004 45.496 11.4712C45.7561 11.1874 46.0364 10.9225 46.3347 10.6787C46.5022 11.1923 46.7081 11.6926 46.9507 12.1755C46.6984 12.4103 46.3872 12.7038 46.1251 13.0006Z" fill="white"/>
<path d="M45.5157 14.0277C45.2533 13.5714 45.0445 13.0867 44.8932 12.583C44.9387 12.3205 45.0416 12.0711 45.1946 11.8525C45.3502 12.3817 45.5634 12.8923 45.8303 13.3755C45.6766 13.5678 45.565 13.7899 45.5026 14.0277" fill="white"/>
<path d="M45.3912 11.0929C45.2694 10.5945 45.2121 10.0827 45.2208 9.56994C45.4719 9.31291 45.7461 9.07931 46.04 8.87207C46.0457 9.36048 46.1095 9.84649 46.23 10.32C45.9336 10.5589 45.6534 10.8171 45.3912 11.0929Z" fill="white"/>
<path d="M46.6886 15.5999C46.3305 15.2194 46.007 14.808 45.722 14.3705C45.7851 14.133 45.8966 13.9109 46.0497 13.7183C46.3379 14.1746 46.6576 14.6104 47.0064 15.0227C46.8662 15.1911 46.7625 15.3865 46.7017 15.5966" fill="white"/>
<path d="M47.2751 14.6966C46.9293 14.2786 46.6129 13.8373 46.3282 13.3758C46.5478 13.141 46.7345 12.9388 47.1474 12.5605C47.4244 13.039 47.7296 13.5007 48.0615 13.9432C47.7895 14.1878 47.5078 14.4389 47.262 14.6966" fill="white"/>
<path d="M46.7509 9.90925C46.6287 9.45135 46.5616 8.98064 46.551 8.50699C46.9082 8.26893 47.108 8.13849 47.6617 7.78955C47.6806 8.2317 47.7544 8.66983 47.8813 9.09398C47.4652 9.39074 47.1047 9.64511 46.7509 9.91251" fill="white"/>
<path d="M49.1984 10.3428C48.9558 9.911 48.7455 9.46193 48.5693 8.99928C48.9658 8.70905 49.3393 8.43512 49.7325 8.13184C49.9228 8.56115 50.1417 8.97733 50.3878 9.37757C49.9848 9.70368 49.7652 9.89608 49.1951 10.3559" fill="white"/>
<path d="M47.4586 11.7452C47.2164 11.2744 47.0105 10.7861 46.8427 10.2842C47.2358 9.98421 47.3964 9.86355 47.9763 9.44287C48.1508 9.91887 48.3588 10.382 48.5988 10.8288C48.1762 11.1549 47.8125 11.4517 47.4586 11.7452Z" fill="white"/>
<path d="M48.4579 8.67297C48.3296 8.26887 48.2525 7.85038 48.2285 7.42724C48.6315 7.17288 48.9821 6.95112 49.3523 6.70654C49.3892 7.09148 49.4773 7.46982 49.6145 7.83162C49.2147 8.12837 49.0149 8.27838 48.4579 8.67297Z" fill="white"/>
<path d="M48.5726 13.5158C48.2386 13.0616 47.9322 12.5879 47.6552 12.0972C48.0549 11.7711 48.2056 11.6374 48.7954 11.1646C49.0345 11.5591 49.2835 11.97 49.7062 12.557L48.5726 13.5158Z" fill="white"/>
<path d="M50.3124 12.042C50.0306 11.6506 49.7128 11.2071 49.395 10.6854C49.8046 10.3592 50.1879 10.0331 50.5942 9.70703C50.8432 10.069 51.0988 10.4408 51.5345 10.9919C51.1086 11.3734 50.8956 11.5626 50.3124 12.055" fill="white"/>
<path d="M49.857 17.8627L49.667 17.8106C49.4559 17.7572 49.2481 17.6918 49.0445 17.6149L48.9101 17.5627C48.7332 17.4681 48.7234 17.4649 48.6578 17.354C49.0084 17.5433 49.3745 17.7026 49.7522 17.8301C49.7844 17.8486 49.8185 17.8639 49.8538 17.8758" fill="white"/>
<path d="M48.6414 17.4294L48.5201 17.3707C48.1541 17.1844 47.8054 16.9662 47.4782 16.7185C47.3471 16.6285 47.2557 16.4919 47.2227 16.3369C47.5883 16.6478 47.9784 16.9292 48.3891 17.1783C48.4677 17.3185 48.4677 17.3185 48.6577 17.4294" fill="white"/>
<path d="M50.142 17.941H50.0667L50.011 17.9214L50.3386 17.9931L50.1551 17.9573" fill="white"/>
<path d="M48.3695 17.0086C47.9693 16.7432 47.5893 16.4489 47.2325 16.1281C47.2921 15.9341 47.3926 15.7551 47.5274 15.603C47.8789 15.9484 48.2486 16.275 48.6349 16.5814C48.5129 16.6977 48.4218 16.8422 48.3695 17.002" fill="white"/>
<path d="M50.1748 17.2889C49.893 17.0965 49.5719 16.878 49.1656 16.5486C49.3721 16.3725 49.5228 16.2453 49.9225 15.9453C50.2501 16.2323 50.4893 16.4606 50.9054 16.7965C50.5975 17.0019 50.3747 17.1487 50.1813 17.2889" fill="white"/>
<path d="M49.7226 17.7359C49.3515 17.5818 48.9932 17.3986 48.6512 17.188C48.702 17.0373 48.7899 16.9017 48.9068 16.7935C49.1984 17.0022 49.5293 17.237 49.9356 17.475C49.8013 17.5989 49.7358 17.6609 49.7226 17.7359Z" fill="white"/>
<path d="M48.8969 16.3269C48.5146 16.0011 48.1494 15.6561 47.8026 15.2931C48.009 15.0909 48.1892 14.9181 48.5922 14.5757C48.9035 14.9246 49.1984 15.254 49.6604 15.6975C49.3819 15.916 49.1197 16.1214 48.8969 16.3269Z" fill="white"/>
<path d="M50.8137 18.0327H50.7416C50.4788 17.9963 50.2206 17.9318 49.9717 17.8402C50.0012 17.7685 50.0143 17.7359 50.1715 17.6152C50.4253 17.7532 50.688 17.8741 50.9579 17.9772C50.9121 18.0036 50.8638 18.0254 50.8137 18.0424" fill="white"/>
<path d="M51.1709 17.8725C50.9808 17.7747 50.7449 17.6508 50.4042 17.4388C50.6434 17.279 50.6925 17.2464 51.1184 16.979C51.3576 17.1714 51.6001 17.3606 51.8425 17.5497C51.6099 17.6638 51.4264 17.7551 51.1873 17.8758" fill="white"/>
<path d="M50.142 15.3322C49.8308 15.0061 49.4867 14.6441 49.0837 14.168C49.6932 13.6691 49.9455 13.4636 50.2141 13.2354C50.5418 13.6234 50.7973 13.9593 51.2593 14.4713C50.758 14.8626 50.758 14.8626 50.142 15.3322Z" fill="white"/>
<path d="M53.0744 15.2965C52.4617 14.6442 52.3503 14.5138 52.1243 14.2627C52.4945 13.9594 52.9139 13.6105 53.3791 13.1768C53.7068 13.5453 54.0344 13.9072 54.3391 14.2757C53.9656 14.6018 53.615 14.8921 53.0744 15.2965Z" fill="white"/>
<path d="M51.3642 16.4898C51.0693 16.2191 50.7613 15.9387 50.4009 15.5865C50.9939 15.143 51.2003 14.9897 51.5182 14.7451C51.9539 15.2082 51.9539 15.2082 52.465 15.7234C52.062 16.0039 51.8589 16.1474 51.3642 16.4735" fill="white"/>
<path d="M51.8688 13.9754C51.5149 13.5678 51.2364 13.2482 50.8203 12.7134C51.2364 12.3514 51.6329 12.009 52.0523 11.6177C52.4454 12.0873 52.4454 12.0873 53.1204 12.8765C52.7403 13.2254 52.4159 13.5287 51.8688 13.9754Z" fill="white"/>
<path d="M52.2913 17.3184C52.0554 17.1064 51.8195 16.8944 51.5803 16.6857C51.908 16.4672 52.2651 16.2455 52.6779 15.9585C52.9335 16.2259 53.1727 16.477 53.366 16.7085C53.022 16.9107 52.7107 17.0901 52.2913 17.3184Z" fill="white"/>
<path d="M53.9591 16.327C53.7723 16.0922 53.6314 15.9259 53.2776 15.528C53.6347 15.2639 54.0738 14.9312 54.5456 14.5269C54.7844 14.8071 55.0033 15.1035 55.2009 15.4139C54.8732 15.6878 54.503 15.9715 53.9656 16.327" fill="white"/>
<path d="M51.1971 18.0619H50.9874C51.0267 18.0619 51.0759 18.0391 51.1152 18.0293C51.2037 18.0489 51.3216 18.0717 51.4101 18.0815H51.1971" fill="white"/>
<path d="M52.1374 18.0486H51.8785C52.0387 18.0366 52.1976 18.0115 52.3536 17.9736V18.003H52.3372L52.1341 18.0225" fill="white"/>
<path d="M51.7081 18.0681C51.572 18.0476 51.4402 18.0046 51.3182 17.9409C51.4788 17.879 51.6786 17.7975 51.9735 17.6572C52.0882 17.7488 52.1976 17.8468 52.3012 17.9507C52.1009 18.0127 51.8943 18.052 51.6852 18.0681" fill="white"/>
<path d="M52.75 17.8137C52.656 17.6783 52.546 17.5546 52.4224 17.4452C52.7205 17.2919 53.0547 17.1191 53.4938 16.8647C53.6239 17.0122 53.723 17.184 53.7854 17.3702C53.4482 17.5358 53.1026 17.6838 52.75 17.8137Z" fill="white"/>
<path d="M54.1262 17.5531C54.2638 17.4292 54.3392 17.3639 54.3556 17.1846C54.7498 16.9637 55.1306 16.7198 55.4958 16.4541C55.4638 16.6516 55.3684 16.8336 55.2238 16.9726C54.8733 17.1935 54.5063 17.3875 54.1262 17.5531Z" fill="white"/>
<path d="M53.0516 17.9085L52.6912 17.9803C52.7796 17.9411 52.7829 17.9379 52.7763 17.8726C53.1243 17.7595 53.4646 17.6244 53.7953 17.4683C53.7925 17.5304 53.7719 17.5904 53.7359 17.6413C53.6999 17.6921 53.65 17.7317 53.5922 17.7552C53.4316 17.8042 53.2154 17.8726 53.0516 17.9085Z" fill="white"/>
<path d="M54.3523 17.0671C54.3101 16.8594 54.2204 16.6641 54.0902 16.4964C54.511 16.2225 54.9168 15.9264 55.3058 15.6094C55.4237 15.8231 55.492 16.0605 55.5056 16.304C55.1359 16.5797 54.7509 16.8345 54.3523 17.0671Z" fill="white"/>
<path d="M54.136 17.5758L53.9001 17.6671L54.0083 17.6182C54.3866 17.4699 54.7516 17.2899 55.0993 17.0801C55.0371 17.1192 54.9584 17.1779 54.8929 17.2138C54.6488 17.3508 54.396 17.4717 54.136 17.5758Z" fill="white"/>
<path d="M50.9709 4.3847C51.1257 4.32899 51.2832 4.2811 51.4428 4.24121H51.4624L50.9709 4.37818" fill="white"/>
<path d="M51.2725 4.43376C51.3432 4.36847 51.4188 4.30852 51.4985 4.25439H51.5215C51.4494 4.30657 51.3511 4.37832 51.2725 4.43049" fill="white"/>
<path d="M50.129 5.06298C50.2863 4.82073 50.5027 4.62214 50.7581 4.48577L51.4723 4.25098C51.2681 4.32395 51.0886 4.45281 50.9547 4.62274C50.7515 4.73362 50.5189 4.86406 50.1224 5.06298" fill="white"/>
<path d="M49.857 6.10675C49.8468 5.81058 49.9051 5.51605 50.0273 5.24582C50.2895 5.10234 50.5876 4.91972 50.8694 4.76318C50.7601 4.9799 50.7147 5.22298 50.7383 5.46432C50.5221 5.63389 50.2731 5.8263 49.857 6.11653" fill="white"/>
<path d="M51.0791 5.17091C51.0456 4.95816 51.0836 4.74037 51.1872 4.55131C51.3142 4.46615 51.4317 4.36776 51.5378 4.25781C51.4814 4.38101 51.4744 4.52097 51.5181 4.64914C51.3958 4.84364 51.2457 5.0194 51.0725 5.17091" fill="white"/>
<path d="M51.6066 4.43684C51.5904 4.37887 51.5772 4.32009 51.5673 4.26074H51.5935C51.6015 4.32026 51.6015 4.38058 51.5935 4.4401" fill="white"/>
<path d="M50.1552 7.41427C50.0136 7.07415 49.9188 6.71654 49.8734 6.35115C50.1486 6.15223 50.4632 5.92722 50.7646 5.67285C50.8308 5.99294 50.941 6.3024 51.0923 6.59248C50.8563 6.81097 50.591 7.06207 50.1519 7.41427" fill="white"/>
<path d="M52.3635 7.43075C52.0939 7.11306 51.8434 6.77986 51.6132 6.43286C51.8162 6.1963 51.994 5.93948 52.1439 5.6665C52.3209 5.87521 52.5666 6.13936 52.9762 6.52743C52.8063 6.8516 52.6067 7.15946 52.3798 7.44705" fill="white"/>
<path d="M50.9546 8.88845C50.703 8.50662 50.4765 8.10903 50.2764 7.69815C50.5712 7.45031 50.9022 7.16986 51.2298 6.84375C51.4487 7.21278 51.6905 7.56784 51.9539 7.90686C51.7016 8.17101 51.4166 8.47103 50.971 8.88519" fill="white"/>
<path d="M51.469 6.20127C51.3117 5.93768 51.1926 5.65334 51.1151 5.35665C51.2911 5.18929 51.4442 4.9996 51.5705 4.79248C51.6802 5.03644 51.8224 5.26459 51.9932 5.47078C51.8507 5.73567 51.6745 5.98118 51.469 6.20127Z" fill="white"/>
<path d="M52.1178 10.4407C51.8261 10.0787 51.492 9.67111 51.1643 9.20152C51.4723 8.91128 51.8196 8.58518 52.1735 8.19385C52.4519 8.51996 52.7108 8.84606 53.176 9.3287C52.9074 9.62872 52.6027 9.98092 52.1178 10.4407Z" fill="white"/>
<path d="M53.6315 8.76097C53.3038 8.43486 52.9598 8.08919 52.606 7.69134C52.8352 7.39012 53.0391 7.07053 53.2154 6.73584C53.6577 7.12717 53.6577 7.12717 54.2901 7.67177C54.1084 8.05555 53.8889 8.42041 53.6348 8.76097" fill="white"/>
<path d="M52.1144 5.14774C51.9423 4.97373 51.7917 4.77997 51.6656 4.57053C51.6656 4.39443 51.6656 4.37812 51.6099 4.27051C51.7933 4.41726 51.8327 4.44661 52.0751 4.61944C52.1517 4.78996 52.1633 4.98236 52.1079 5.16078" fill="white"/>
<path d="M53.0385 4.99794L52.108 4.50225C51.9819 4.38436 51.8307 4.2963 51.6656 4.24463C52.0588 4.35551 52.1211 4.37181 52.488 4.49573C52.7085 4.61043 52.8931 4.78297 53.0221 4.99468" fill="white"/>
<path d="M53.1301 6.08055C52.8614 5.85554 52.56 5.59791 52.2815 5.32072C52.3459 5.1292 52.3459 4.92199 52.2815 4.73047C52.5862 4.93266 52.714 5.01744 53.1858 5.32072C53.2403 5.57301 53.2268 5.83518 53.1465 6.08055" fill="white"/>
<path d="M51.9179 4.40114L51.6427 4.25439H51.6656C51.7537 4.2993 51.8391 4.34939 51.9212 4.40441" fill="white"/>
<path d="M54.4637 7.15356C53.6314 6.50134 53.6314 6.50134 53.3792 6.28611C53.4616 6.0268 53.4785 5.75125 53.4283 5.48389L54.5357 6.20132C54.5753 6.52252 54.5508 6.84833 54.4637 7.16008" fill="white"/>
<path d="M54.4276 5.76774C54.1 5.57533 53.7953 5.40576 53.3038 5.13835C53.1786 4.91633 52.9995 4.72909 52.7828 4.59375C53.1105 4.70463 53.4807 4.84485 53.9492 5.04378C54.1588 5.24831 54.3219 5.49518 54.4276 5.76774Z" fill="white"/>
<path d="M52.1177 4.33268L51.6984 4.24463C51.8196 4.27072 51.9867 4.30333 52.1046 4.3392" fill="white"/>
<path d="M53.5921 4.75648C53.2907 4.65865 52.8746 4.52494 52.4028 4.40102C52.1817 4.319 51.952 4.26212 51.718 4.23145C52.2291 4.28688 52.2947 4.29341 52.7009 4.35863C53.0182 4.4453 53.32 4.58062 53.5954 4.75974" fill="white"/>
<path d="M52.1833 4.24468L51.7279 4.21533C51.8622 4.21533 52.0556 4.21533 52.1801 4.24794" fill="white"/>
<path d="M53.7298 12.2769C53.0941 11.566 52.9041 11.3508 52.6453 11.0507C52.9729 10.7246 53.3431 10.3464 53.7232 9.89307C54.0967 10.2746 54.4768 10.6496 54.8438 11.0344C54.5423 11.3997 54.254 11.7421 53.7298 12.2769Z" fill="white"/>
<path d="M56.5016 11.7645C56.2494 11.4384 56.0135 11.1514 55.5646 10.6786C55.8243 10.277 56.0438 9.85101 56.2199 9.40674C56.549 9.72596 56.8596 10.0635 57.1504 10.4177C56.9748 10.886 56.7554 11.3369 56.4951 11.7645" fill="white"/>
<path d="M54.9617 13.7017C54.6046 13.2745 54.5292 13.1865 53.9788 12.5766C54.3747 12.1774 54.7488 11.7572 55.0993 11.3179C55.3975 11.644 55.7349 12.019 56.0429 12.4332C55.7133 12.881 55.3519 13.305 54.9617 13.7017Z" fill="white"/>
<path d="M55.3024 10.4046C54.8372 9.94152 54.8011 9.90239 54.1786 9.30887C54.4357 8.94826 54.6552 8.56255 54.8339 8.15771C55.2107 8.48382 55.5678 8.80993 55.9446 9.15561C55.7666 9.59176 55.5472 10.01 55.2893 10.4046" fill="white"/>
<path d="M55.7873 14.889C55.6045 14.5643 55.3975 14.2536 55.1681 13.9596C55.5583 13.5734 55.9207 13.1604 56.2526 12.7236C56.4742 13.0341 56.6714 13.3612 56.8424 13.702C56.5194 14.119 56.1668 14.5124 55.7873 14.8792" fill="white"/>
<path d="M57.2815 13.0722C57.1167 12.7119 56.9216 12.366 56.6982 12.0384C56.9573 11.6045 57.1766 11.1483 57.3535 10.6753C57.5879 10.9936 57.7857 11.3371 57.9433 11.6993C57.7761 12.1794 57.5564 12.6398 57.288 13.0722" fill="white"/>
<path d="M56.138 8.54602C55.7939 8.246 55.5482 8.02751 55.0305 7.60683C55.1179 7.2718 55.1446 6.92393 55.1091 6.57959C55.463 6.82417 55.8267 7.07854 56.2264 7.3916C56.2588 7.77864 56.229 8.16835 56.138 8.54602Z" fill="white"/>
<path d="M57.3339 7.85449C57.038 7.56752 56.7251 7.29854 56.3968 7.049C56.304 6.69393 56.1546 6.35593 55.9545 6.04785C56.2882 6.24969 56.6069 6.4753 56.9079 6.72289C57.1076 7.07737 57.2555 7.45841 57.347 7.85449" fill="white"/>
<path d="M57.3305 9.75243C57.0381 9.41003 56.7275 9.08345 56.4 8.7741C56.4895 8.38624 56.5193 7.9871 56.4885 7.59033C56.8179 7.85839 57.1297 8.14703 57.4223 8.45452C57.4539 8.89146 57.423 9.33065 57.3305 9.75895" fill="white"/>
<path d="M56.1313 6.8537C55.8266 6.64173 55.5088 6.41998 55.0075 6.11343C54.9081 5.81569 54.7499 5.54072 54.5422 5.30469C54.8699 5.46448 55.2663 5.63079 55.689 5.89168C55.8914 6.19028 56.0411 6.52117 56.1313 6.87" fill="white"/>
<path d="M58.1201 10.9917C57.9585 10.6453 57.7596 10.3173 57.5271 10.0134C57.6185 9.58497 57.6505 9.14607 57.6221 8.70898C57.8548 8.98418 58.0548 9.28509 58.2184 9.60578C58.2457 10.0704 58.2105 10.5365 58.1136 10.9917" fill="white"/>
<path d="M58.1332 8.93415C57.9719 8.6204 57.7704 8.32882 57.5336 8.06671C57.4406 7.66129 57.2918 7.27061 57.0913 6.90576C57.3279 7.12726 57.529 7.38351 57.6876 7.66559C57.8923 8.06678 58.0422 8.49341 58.1332 8.93415Z" fill="white"/>
<path d="M56.0658 15.8473C56.0612 15.5876 56.0009 15.3319 55.8889 15.0973C56.2657 14.7389 56.6151 14.3531 56.9341 13.9429C57.0383 14.2144 57.0883 14.5035 57.0815 14.794C56.7688 15.1689 56.4294 15.521 56.0658 15.8473Z" fill="white"/>
<path d="M57.5861 14.5073C57.4846 14.6769 57.3502 14.9019 57.2388 15.0682L57.1667 15.1726C57.3295 14.9445 57.4413 14.6843 57.4944 14.4095C57.7624 14.0162 57.9824 13.5925 58.1497 13.1475C58.1202 13.2779 58.0776 13.4507 58.035 13.5779C57.9138 13.8616 57.7532 14.2301 57.6025 14.5073" fill="white"/>
<path d="M55.7612 16.5978C55.9112 16.4345 56.0112 16.232 56.0495 16.0141C56.415 15.7013 56.7527 15.3576 57.0586 14.9868C57.0068 15.245 56.8945 15.4875 56.731 15.6945C56.4319 16.025 56.1028 16.3273 55.748 16.5978" fill="white"/>
<path d="M57.5108 14.2038C57.5203 13.9 57.4737 13.5972 57.3732 13.3102C57.642 12.8839 57.8618 12.4288 58.0285 11.9536C58.1341 12.2686 58.1807 12.6002 58.1661 12.9319C57.9976 13.3837 57.7777 13.8148 57.5108 14.2168" fill="white"/>
<path d="M56.1838 16.2846C55.9512 16.4998 55.7026 16.6971 55.4401 16.8749L55.6334 16.7249C55.9883 16.4678 56.3174 16.1773 56.6163 15.8574C56.4918 15.9846 56.3313 16.1542 56.2002 16.2716" fill="white"/>
<path d="M58.4905 11.0048V11.3309C58.4643 11.6049 58.4151 11.9832 58.366 12.2408C58.3797 11.9088 58.3319 11.5772 58.2251 11.2625C58.3206 10.8004 58.3558 10.328 58.3299 9.85693C58.4184 10.0946 58.4703 10.3441 58.4839 10.5972V11.0211" fill="white"/>
<path d="M58.3626 12.3548L58.3036 12.632L58.3364 12.4722L58.4052 12.1069L58.3626 12.3548Z" fill="white"/>
<path d="M58.1201 8.69577C58.1955 8.9534 58.2905 9.29907 58.3495 9.56322C58.3167 9.4393 58.2774 9.27951 58.2348 9.15885C58.1714 8.85095 58.0793 8.54963 57.9596 8.25879L58.1201 8.69577Z" fill="white"/>
<path d="M55.3516 5.47396C55.06 5.337 54.6963 5.14786 54.195 4.97176C53.9304 4.76318 53.6354 4.59603 53.3202 4.47607C53.6478 4.55108 54.0574 4.64891 54.4964 4.80218C54.8114 4.98819 55.0991 5.21643 55.3516 5.48049" fill="white"/>
<path d="M54.3227 4.50225C54.6272 4.63586 54.9208 4.79286 55.2008 4.97185C54.9068 4.82774 54.601 4.70882 54.2867 4.61639C53.9426 4.45524 53.5824 4.33063 53.212 4.24463C53.4625 4.26883 53.711 4.31024 53.9558 4.36855C54.0803 4.40768 54.2048 4.45008 54.3227 4.49899" fill="white"/>
<path d="M56.5606 6.20141C56.2621 5.97916 55.9478 5.77862 55.6203 5.60137C55.3673 5.33045 55.0798 5.09364 54.7651 4.89697C55.0876 5.02026 55.3998 5.16855 55.6989 5.34048C56.0192 5.60004 56.3083 5.89549 56.5606 6.22097" fill="white"/>
<path d="M54.0017 4.54142C53.7002 4.47294 53.3267 4.38815 52.8156 4.31967C52.4606 4.24197 52.0978 4.20477 51.7344 4.20879C52.062 4.20879 52.488 4.20879 52.9434 4.20879C53.3067 4.27998 53.6615 4.3893 54.0017 4.5349" fill="white"/>
<path d="M56.3247 5.8327C56.5993 6.09526 56.8503 6.38115 57.075 6.6871L57.2421 6.91864C57.1038 6.71974 56.9409 6.53896 56.7572 6.38056C56.5051 6.04216 56.2149 5.73361 55.8922 5.46094C55.9643 5.51638 56.0593 5.58812 56.1281 5.65008L56.3247 5.8327Z" fill="white"/>
<path d="M54.942 4.79576C55.1288 4.9099 55.3745 5.06317 55.5547 5.18383L55.3942 5.07948C55.2041 4.95882 54.9453 4.80228 54.7389 4.69141L54.9322 4.79576" fill="white"/>
<path d="M52.0128 4.16309H52.4093L51.7245 4.20222L52.0226 4.16961" fill="white"/>
<path d="M52.8812 4.1665H52.678H52.5011C52.6289 4.1665 52.7567 4.1665 52.8812 4.18607" fill="white"/>
</svg>
