<svg width="167" height="56" viewBox="0 0 167 56" fill="none" xmlns="http://www.w3.org/2000/svg">
<path d="M20.397 40.5801C19.1404 40.5857 17.8958 40.3376 16.739 39.851C15.5823 39.3643 14.5375 38.6493 13.6684 37.7495C11.747 35.8588 10.7863 33.3308 10.7863 30.1654C10.7863 27.0572 11.747 24.5507 13.6684 22.6457C14.5339 21.7397 15.5775 21.0192 16.7347 20.5286C17.892 20.0381 19.1384 19.7879 20.397 19.7936C23.5608 19.7936 26.1287 21.208 28.1007 24.0368V12H31.0965V40.1558H28.1007V36.1489C26.0745 39.103 23.5066 40.5801 20.397 40.5801ZM20.9387 37.9214C21.8965 37.9216 22.844 37.725 23.7214 37.3442C24.5988 36.9633 25.3871 36.4063 26.0366 35.7084C26.7591 34.9681 27.3234 34.0908 27.6958 33.1291C28.0681 32.1674 28.2409 31.1411 28.2036 30.1116C28.2366 29.098 28.0615 28.0883 27.689 27.1437C27.3165 26.1992 26.7543 25.3396 26.0366 24.6169C25.3834 23.9259 24.5937 23.3756 23.7166 23.0004C22.8395 22.6253 21.8939 22.4332 20.9387 22.4362C19.9941 22.4141 19.0555 22.5902 18.1843 22.953C17.3132 23.3159 16.5294 23.8573 15.8842 24.5417C14.5334 25.9418 13.858 27.8253 13.858 30.1922C13.8144 31.2097 13.9744 32.2257 14.3286 33.1817C14.6829 34.1376 15.2244 35.0146 15.9221 35.7621C16.5573 36.4526 17.3327 37.0019 18.1973 37.3741C19.0619 37.7462 19.9962 37.9327 20.9387 37.9214Z" fill="white"/>
<path d="M39.5749 31.4115C39.6957 33.2565 40.5233 34.9858 41.8882 36.2456C43.1884 37.424 44.8943 38.064 46.6556 38.0342C47.8531 38.0333 49.037 37.7822 50.1301 37.2973C51.2232 36.8123 52.2009 36.1044 52.9995 35.2197L54.8631 36.8794C53.8461 38.0713 52.5765 39.0261 51.1448 39.676C49.713 40.3259 48.1544 40.6548 46.5798 40.6392C45.2499 40.6657 43.9289 40.4188 42.7 39.914C41.4711 39.4093 40.3609 38.6577 39.4395 37.7065C37.5073 35.7693 36.5411 33.2628 36.5411 30.1869C36.4778 27.4706 37.4665 24.8334 39.3041 22.8176C40.1596 21.8458 41.2193 21.0715 42.4089 20.5491C43.5984 20.0267 44.8889 19.7688 46.1897 19.7936C49.079 19.7936 51.3616 20.7963 53.0374 22.8015C54.7133 24.8067 55.5566 27.3187 55.5674 30.3373C55.5674 30.724 55.5674 31.0731 55.5295 31.3793L39.5749 31.4115ZM39.5749 29.0213H52.5499C52.4349 27.2589 51.7597 25.5779 50.6212 24.2195C50.0674 23.5786 49.3738 23.0709 48.5929 22.735C47.812 22.3991 46.9643 22.2436 46.1139 22.2805C45.2867 22.2745 44.4676 22.4412 43.7097 22.7697C42.9518 23.0982 42.2721 23.5812 41.7149 24.1873C40.4685 25.5066 39.7136 27.2082 39.5749 29.0106V29.0213Z" fill="white"/>
<path d="M69.8859 40.6232C68.5156 40.6499 67.1549 40.3906 65.8921 39.8623C64.6294 39.3339 63.4928 38.5483 62.556 37.5563C61.5935 36.5888 60.8356 35.4405 60.3267 34.1788C59.8179 32.917 59.5683 31.5672 59.5926 30.2085C59.5704 28.8487 59.8226 27.4982 60.3342 26.2364C60.8459 24.9746 61.6068 23.8269 62.5723 22.8607C63.5061 21.8695 64.6399 21.0841 65.8999 20.5557C67.16 20.0273 68.518 19.7677 69.8859 19.7938C71.4057 19.7877 72.9094 20.1021 74.2973 20.716C75.6853 21.33 76.9257 22.2295 77.9363 23.3549L76.0293 25.3637C74.1585 23.4086 72.0962 22.431 69.8425 22.431C68.8761 22.4168 67.9181 22.6112 67.035 23.0008C66.1519 23.3903 65.3648 23.9657 64.7284 24.6869C63.3391 26.1969 62.5936 28.1815 62.6481 30.2246C62.6025 32.2571 63.3631 34.2262 64.7663 35.7086C65.4304 36.4374 66.2448 37.016 67.1544 37.4053C68.0639 37.7945 69.0472 37.9852 70.0376 37.9645C72.2046 37.9645 74.2271 36.9619 76.1052 34.9566L78.0934 36.7828C75.7603 39.3431 73.0244 40.6232 69.8859 40.6232Z" fill="white"/>
<path d="M121.043 40.5801C119.786 40.5858 118.541 40.3378 117.383 39.8511C116.225 39.3645 115.18 38.6495 114.309 37.7495C112.392 35.8588 111.433 33.3308 111.433 30.1654C111.433 27.0572 112.392 24.5507 114.309 22.6457C115.176 21.739 116.22 21.0181 117.378 20.5276C118.536 20.037 119.784 19.7872 121.043 19.7936C124.207 19.7936 126.775 21.208 128.747 24.0368V12H131.738V40.1558H128.747V36.1489C126.706 39.103 124.139 40.5801 121.043 40.5801ZM121.585 37.9214C122.543 37.9212 123.49 37.7245 124.368 37.3437C125.245 36.9629 126.033 36.4061 126.683 35.7084C127.405 34.9681 127.97 34.0908 128.342 33.1291C128.715 32.1674 128.887 31.1411 128.85 30.1116C128.883 29.098 128.708 28.0883 128.335 27.1437C127.963 26.1992 127.401 25.3396 126.683 24.6169C126.029 23.9264 125.24 23.3765 124.363 23.0013C123.486 22.6262 122.54 22.4338 121.585 22.4362C120.64 22.4134 119.702 22.5892 118.83 22.9521C117.959 23.315 117.175 23.8568 116.531 24.5417C115.183 25.9418 114.508 27.8253 114.504 30.1922C114.461 31.2097 114.621 32.2257 114.975 33.1817C115.329 34.1376 115.871 35.0146 116.569 35.7621C117.203 36.4534 117.978 37.0033 118.843 37.3755C119.708 37.7477 120.642 37.9338 121.585 37.9214Z" fill="white"/>
<path d="M140.221 31.4112C140.342 33.2562 141.17 34.9855 142.535 36.2453C143.835 37.4237 145.541 38.0637 147.302 38.0339C148.499 38.0329 149.682 37.7818 150.774 37.2968C151.866 36.8118 152.843 36.104 153.641 35.2194L155.51 36.8791C154.493 38.071 153.223 39.0258 151.791 39.6757C150.359 40.3256 148.801 40.6545 147.226 40.6389C145.897 40.6678 144.577 40.4235 143.348 39.9216C142.119 39.4196 141.009 38.6708 140.086 37.7224C138.154 35.7851 137.188 33.2786 137.188 30.2027C137.12 27.4808 138.109 24.8372 139.95 22.8173C140.803 21.8477 141.859 21.0747 143.045 20.5523C144.231 20.03 145.517 19.7709 146.814 19.7933C149.704 19.7933 151.986 20.796 153.662 22.8012C155.338 24.8064 156.187 27.3184 156.208 30.337C156.208 30.7237 156.208 31.0728 156.17 31.379L140.221 31.4112ZM140.221 29.021H153.175C153.062 27.2591 152.388 25.5781 151.251 24.2192C150.696 23.5852 150.003 23.084 149.224 22.7529C148.445 22.4218 147.601 22.2694 146.755 22.307C145.93 22.2988 145.112 22.4628 144.355 22.7886C143.598 23.1143 142.919 23.5944 142.361 24.1977C141.117 25.5142 140.362 27.2116 140.221 29.0103V29.021Z" fill="white"/>
<path d="M85.4016 35.773C85.1578 35.3272 84.8598 34.6988 84.6323 34.2583C84.5023 33.9146 84.3289 33.458 84.2206 33.1089L84.1556 32.8296C84.4003 33.6466 84.7402 34.4325 85.1686 35.1714C85.2021 35.3945 85.2814 35.6084 85.4016 35.7999" fill="white"/>
<path d="M84.0255 32.3838C83.9659 32.0884 83.8847 31.7017 83.8413 31.4062L83.9713 32.2173L84.0038 32.3838" fill="white"/>
<path d="M87.5198 38.3511L87.4765 38.3135C87.211 38.0503 86.8589 37.6958 86.6043 37.4165C86.3496 37.1372 86.0138 36.6861 85.7808 36.3423C85.6354 36.1419 85.5406 35.9098 85.5045 35.6655C85.9673 36.3673 86.501 37.0206 87.0973 37.6153C87.1486 37.8969 87.2981 38.1517 87.5198 38.335" fill="white"/>
<path d="M86.5447 21.9258C86.7776 21.6787 87.0864 21.3457 87.3248 21.104L87.639 20.8193C87.3302 21.1094 86.9239 21.5122 86.6368 21.8291L86.5447 21.9258Z" fill="white"/>
<path d="M85.4774 23.8272C85.7977 23.1317 86.2016 22.477 86.6801 21.8775C87.0726 21.5911 87.4875 21.336 87.9207 21.1147C87.4393 21.6455 87.0378 22.2425 86.7289 22.8872C86.2798 23.1638 85.8557 23.4783 85.4612 23.8272" fill="white"/>
<path d="M84.6973 24.8692L85.0765 24.085C85.3658 23.5336 85.701 23.0072 86.0788 22.5112L86.1221 22.4468L86.2576 22.2856C85.7796 22.9145 85.3761 23.5958 85.0549 24.316C84.952 24.4771 84.8111 24.6973 84.7244 24.8531" fill="white"/>
<path d="M87.0756 21.4424C87.5901 20.8879 88.1641 20.3908 88.7875 19.96C89.1875 19.758 89.6044 19.5909 90.0336 19.4604C89.4046 19.807 88.8237 20.2331 88.3054 20.728C87.8749 20.9329 87.4619 21.1718 87.0702 21.4424" fill="white"/>
<path d="M83.7764 28.4088L83.8305 27.9361L83.8739 27.6675C83.9753 27.0382 84.1293 26.4184 84.3344 25.8145L84.4265 25.5459C84.5371 25.313 84.662 25.087 84.8003 24.8691C84.5166 25.6301 84.3345 26.4246 84.2585 27.2325C84.0053 27.5807 83.8399 27.9841 83.7764 28.4088Z" fill="white"/>
<path d="M84.7244 26.6631C84.7994 25.8761 84.9816 25.1028 85.2662 24.3643C85.663 24.003 86.0888 23.6743 86.5393 23.3813C86.2763 24.0703 86.1193 24.7946 86.0734 25.5298C85.5963 25.864 85.1486 26.2378 84.7353 26.647" fill="white"/>
<path d="M89.0693 20.4004C89.5859 19.937 90.1659 19.5482 90.7921 19.2456C91.2363 19.1328 91.7402 19.0147 92.4878 18.875C91.8704 19.0854 91.2907 19.3918 90.7704 19.7827C90.2287 19.9546 89.6869 20.1533 89.0693 20.4004Z" fill="white"/>
<path d="M90.2124 21.1148C90.4816 20.6013 90.8497 20.1451 91.2959 19.772L93.0403 19.1812C92.61 19.4545 92.2486 19.822 91.9839 20.2554L90.2015 21.104" fill="white"/>
<path d="M87.5253 22.4361C87.8243 21.8201 88.2192 21.2546 88.6954 20.7603C89.1505 20.5669 89.6218 20.3682 90.4074 20.0835C89.9492 20.5016 89.5712 20.9983 89.2914 21.5498C88.43 21.9634 88.0291 22.1621 87.5253 22.4361Z" fill="white"/>
<path d="M91.6642 19.4981C92.1889 19.1454 92.7694 18.8822 93.3816 18.7192C94.1021 18.6118 94.2321 18.5903 94.9527 18.5044C94.4124 18.5793 93.8876 18.7389 93.3978 18.9771C92.9157 19.1221 92.2493 19.3154 91.6588 19.5142" fill="white"/>
<path d="M86.886 24.9659C86.9228 24.2551 87.0689 23.5542 87.3194 22.8872C87.9586 22.5381 88.1699 22.4199 89.1017 21.9526C88.868 22.5516 88.738 23.1853 88.7171 23.8272C88.0778 24.2139 87.4765 24.5791 86.886 24.9659Z" fill="white"/>
<path d="M89.6598 23.2793C89.677 22.6717 89.8017 22.0718 90.0282 21.5069L91.8214 20.5991C91.6107 21.0879 91.5037 21.6145 91.5072 22.146C90.8896 22.5327 90.5808 22.7261 89.6598 23.2793Z" fill="white"/>
<path d="M83.9714 31.6314C83.7785 30.7841 83.693 29.9162 83.7168 29.0479C83.7848 28.6169 83.9516 28.2071 84.2044 27.8501C84.1815 28.7098 84.2689 29.5689 84.4644 30.4068C84.2117 30.7743 84.0434 31.1924 83.9714 31.6314Z" fill="white"/>
<path d="M86.1872 32.942C85.7574 32.1384 85.4089 31.2946 85.147 30.4229C85.5772 29.9554 86.0407 29.5193 86.5339 29.1177C86.8108 29.9635 87.1513 30.7876 87.5524 31.5831C87.1353 31.9698 86.6206 32.4532 86.1872 32.942Z" fill="white"/>
<path d="M85.1795 34.6338C84.7456 33.8824 84.4003 33.084 84.1501 32.2544C84.2254 31.822 84.3956 31.4113 84.6486 31.0513C84.9058 31.9228 85.2582 32.7639 85.6996 33.5596C85.4455 33.8764 85.261 34.2423 85.1578 34.6338" fill="white"/>
<path d="M84.9737 29.7999C84.7722 28.9791 84.6776 28.1361 84.692 27.2915C85.1071 26.8682 85.5605 26.4834 86.0464 26.1421C86.0559 26.9465 86.1614 27.747 86.3606 28.5269C85.8705 28.9205 85.4072 29.3457 84.9737 29.7999Z" fill="white"/>
<path d="M87.119 37.2232C86.5268 36.5965 85.992 35.9188 85.5208 35.1983C85.625 34.8071 85.8094 34.4414 86.0626 34.124C86.5391 34.8756 87.0677 35.5935 87.6445 36.2725C87.4127 36.5499 87.2412 36.8717 87.1407 37.2178" fill="white"/>
<path d="M88.0887 35.7349C87.5169 35.0465 86.9937 34.3196 86.5231 33.5596C86.886 33.1729 87.1948 32.8399 87.8774 32.2168C88.3354 33.0049 88.8402 33.7653 89.3889 34.4942C88.9393 34.897 88.4734 35.3106 88.067 35.7349" fill="white"/>
<path d="M87.2219 27.8502C87.02 27.096 86.909 26.3207 86.8915 25.5405C87.482 25.1485 87.8125 24.9336 88.728 24.3589C88.7593 25.0871 88.8812 25.8088 89.091 26.5074C88.403 26.9961 87.807 27.4151 87.2219 27.8555" fill="white"/>
<path d="M91.2688 28.5645C90.8677 27.8532 90.52 27.1136 90.2286 26.3516C90.8842 25.8736 91.5018 25.4224 92.1519 24.9229C92.4665 25.63 92.8285 26.3154 93.2354 26.9746C92.569 27.5118 92.206 27.8287 91.2634 28.586" fill="white"/>
<path d="M88.3921 30.8741C87.9916 30.0987 87.6511 29.2943 87.3736 28.4678C88.0237 27.9736 88.2892 27.7749 89.2481 27.082C89.5365 27.866 89.8805 28.6288 90.2774 29.3648C89.5785 29.9019 88.9772 30.3907 88.3921 30.8741Z" fill="white"/>
<path d="M90.0444 25.8145C89.8322 25.1489 89.7048 24.4596 89.6652 23.7627C90.3315 23.3438 90.9112 22.9785 91.5234 22.5757C91.5843 23.2097 91.7301 23.8328 91.9568 24.4287C91.2958 24.9175 90.9654 25.1646 90.0444 25.8145Z" fill="white"/>
<path d="M90.2341 33.7906C89.6818 33.0425 89.1753 32.2623 88.7172 31.4541C89.3781 30.917 89.6273 30.6968 90.6025 29.918C90.9979 30.5679 91.4097 31.2447 92.1085 32.2115L90.2341 33.7906Z" fill="white"/>
<path d="M93.1108 31.3629C92.6449 30.7183 92.1194 29.9878 91.5939 29.1284C92.2711 28.5913 92.9049 28.0542 93.5767 27.5171C93.9884 28.1133 94.411 28.7256 95.1315 29.6333C94.4272 30.2618 94.0751 30.5733 93.1108 31.3843" fill="white"/>
<path d="M92.3577 40.9507L92.0435 40.8648C91.6945 40.7768 91.3508 40.6692 91.0141 40.5425L90.792 40.4565C90.4995 40.3008 90.4832 40.2954 90.3749 40.1128C90.9545 40.4246 91.5598 40.687 92.1843 40.897C92.2377 40.9275 92.2939 40.9527 92.3523 40.9722" fill="white"/>
<path d="M90.3478 40.2364L90.1474 40.1397C89.5422 39.8329 88.9657 39.4734 88.4246 39.0654C88.2079 38.9173 88.0567 38.6924 88.0021 38.437C88.6067 38.9491 89.2517 39.4125 89.9307 39.8228C90.0607 40.0537 90.0607 40.0537 90.3749 40.2364" fill="white"/>
<path d="M92.829 41.0796H92.7044L92.6123 41.0474L93.1541 41.1655L92.8507 41.1064" fill="white"/>
<path d="M89.8982 39.5435C89.2365 39.1065 88.6082 38.6218 88.0183 38.0933C88.1168 37.7738 88.283 37.479 88.5059 37.2285C89.0871 37.7973 89.6983 38.3352 90.337 38.8399C90.1354 39.0315 89.9847 39.2695 89.8982 39.5328" fill="white"/>
<path d="M92.8832 40.0054C92.4173 39.6885 91.8864 39.3286 91.2146 38.7862C91.5559 38.4961 91.8051 38.2866 92.466 37.7925C93.0078 38.2651 93.4033 38.6411 94.0913 39.1944C93.582 39.5327 93.2137 39.7745 92.894 40.0054" fill="white"/>
<path d="M92.1356 40.7412C91.5219 40.4874 90.9296 40.1857 90.3641 39.8389C90.448 39.5907 90.5933 39.3672 90.7866 39.189C91.2688 39.5327 91.816 39.9194 92.4877 40.3115C92.2656 40.5156 92.1573 40.6177 92.1356 40.7412Z" fill="white"/>
<path d="M90.7704 38.421C90.1383 37.8844 89.5343 37.3161 88.9609 36.7183C89.3022 36.3853 89.6002 36.1006 90.2665 35.5366C90.7812 36.1113 91.2688 36.6538 92.0327 37.3843C91.5722 37.7442 91.1388 38.0826 90.7704 38.421Z" fill="white"/>
<path d="M93.9397 41.23H93.8205C93.3858 41.1702 92.959 41.0639 92.5474 40.9131C92.5961 40.7949 92.6178 40.7412 92.8778 40.5425C93.2974 40.7696 93.7317 40.9688 94.178 41.1387C94.1023 41.1821 94.0225 41.2181 93.9397 41.2461" fill="white"/>
<path d="M94.5302 40.9668C94.2159 40.8057 93.8259 40.6016 93.2625 40.2525C93.6579 39.9893 93.7392 39.9356 94.4435 39.4951C94.839 39.812 95.2398 40.1235 95.6407 40.4351C95.2561 40.6231 94.9527 40.7735 94.5572 40.9722" fill="white"/>
<path d="M92.8291 36.7828C92.3144 36.2457 91.7456 35.6495 91.0792 34.8653C92.0869 34.0435 92.504 33.7051 92.9483 33.3291C93.49 33.9683 93.9126 34.5215 94.6764 35.3648C93.8476 36.0093 93.8476 36.0093 92.8291 36.7828Z" fill="white"/>
<path d="M97.6777 36.7237C96.6646 35.6495 96.4804 35.4346 96.1066 35.021C96.7188 34.5215 97.4122 33.9468 98.1815 33.2324C98.7233 33.8394 99.265 34.4356 99.7689 35.0425C99.1513 35.5796 98.5716 36.0577 97.6777 36.7237Z" fill="white"/>
<path d="M94.8498 38.6895C94.3622 38.2437 93.8529 37.7818 93.257 37.2017C94.2376 36.4712 94.5789 36.2188 95.1044 35.8159C95.8249 36.5786 95.8249 36.5786 96.67 37.4273C96.0037 37.8892 95.6678 38.1255 94.8498 38.6627" fill="white"/>
<path d="M95.684 34.5479C95.099 33.8765 94.6385 33.3501 93.9504 32.4693C94.6385 31.8731 95.294 31.3091 95.9874 30.6646C96.6375 31.438 96.6375 31.438 97.7535 32.7378C97.1251 33.3125 96.5888 33.8121 95.684 34.5479Z" fill="white"/>
<path d="M96.3829 40.0537C95.9929 39.7046 95.6028 39.3555 95.2073 39.0117C95.7491 38.6519 96.3396 38.2866 97.0222 37.814C97.4448 38.2544 97.8402 38.668 98.1599 39.0493C97.591 39.3824 97.0764 39.6778 96.3829 40.0537Z" fill="white"/>
<path d="M99.1404 38.421C98.8316 38.0342 98.5986 37.7603 98.0135 37.105C98.6041 36.6699 99.33 36.1221 100.11 35.4561C100.505 35.9176 100.867 36.4058 101.194 36.917C100.652 37.3682 100.04 37.8355 99.1512 38.421" fill="white"/>
<path d="M94.5735 41.2783H94.2267C94.2918 41.2783 94.373 41.2407 94.438 41.2246C94.5843 41.2568 94.7793 41.2944 94.9256 41.3106H94.5735" fill="white"/>
<path d="M96.1283 41.2568H95.7003C95.9651 41.2369 96.2278 41.1956 96.4858 41.1333V41.1816H96.4588L96.1229 41.2139" fill="white"/>
<path d="M95.4186 41.2891C95.1935 41.2553 94.9756 41.1845 94.7739 41.0796C95.0394 40.9775 95.3699 40.8433 95.8574 40.6123C96.0471 40.7631 96.228 40.9245 96.3992 41.0957C96.068 41.1977 95.7264 41.2626 95.3807 41.2891" fill="white"/>
<path d="M97.1414 40.8701C96.9859 40.6471 96.804 40.4433 96.5996 40.2632C97.0926 40.0108 97.6452 39.7261 98.3711 39.3071C98.5863 39.55 98.7502 39.833 98.8533 40.1397C98.2958 40.4124 97.7244 40.6562 97.1414 40.8701Z" fill="white"/>
<path d="M99.4167 40.4405C99.6443 40.2364 99.7689 40.1289 99.796 39.8335C100.448 39.4698 101.077 39.068 101.681 38.6304C101.628 38.9557 101.471 39.2553 101.232 39.4844C100.652 39.8482 100.045 40.1678 99.4167 40.4405Z" fill="white"/>
<path d="M97.6397 41.0259L97.0438 41.1441C97.1901 41.0796 97.1955 41.0742 97.1847 40.9668C97.76 40.7804 98.3227 40.558 98.8695 40.3008C98.8648 40.4031 98.8307 40.502 98.7712 40.5857C98.7117 40.6695 98.6293 40.7346 98.5336 40.7734C98.2682 40.854 97.9106 40.9668 97.6397 41.0259Z" fill="white"/>
<path d="M99.7905 39.6402C99.7206 39.2981 99.5723 38.9765 99.3571 38.7002C100.053 38.2491 100.724 37.7614 101.367 37.2393C101.562 37.5913 101.675 37.9823 101.697 38.3833C101.086 38.8374 100.449 39.2571 99.7905 39.6402Z" fill="white"/>
<path d="M99.433 40.478L99.0429 40.6284L99.2217 40.5479C99.8473 40.3037 100.451 40.0072 101.026 39.6616C100.923 39.7261 100.793 39.8228 100.684 39.8818C100.281 40.1075 99.8628 40.3066 99.433 40.478Z" fill="white"/>
<path d="M94.1997 18.7515C94.4556 18.6597 94.7159 18.5808 94.9798 18.5151H95.0123L94.1997 18.7407" fill="white"/>
<path d="M94.6981 18.832C94.8152 18.7245 94.9401 18.6258 95.0719 18.5366H95.1098C94.9907 18.6226 94.8281 18.7407 94.6981 18.8267" fill="white"/>
<path d="M92.8073 19.8687C93.0674 19.4697 93.4253 19.1426 93.8475 18.918L95.0285 18.5312C94.6908 18.6514 94.3941 18.8637 94.1726 19.1436C93.8367 19.3262 93.452 19.541 92.7965 19.8687" fill="white"/>
<path d="M92.3577 21.5874C92.341 21.0996 92.4373 20.6145 92.6394 20.1694C93.0728 19.9331 93.5658 19.6323 94.0317 19.3745C93.851 19.7315 93.7759 20.1318 93.815 20.5293C93.4575 20.8086 93.0457 21.1255 92.3577 21.6036" fill="white"/>
<path d="M94.3784 20.0459C94.3231 19.6955 94.386 19.3368 94.5572 19.0254C94.7672 18.8851 94.9615 18.7231 95.1369 18.542C95.0437 18.7449 95.032 18.9754 95.1044 19.1865C94.9021 19.5069 94.6539 19.7964 94.3676 20.0459" fill="white"/>
<path d="M95.2507 18.8374C95.2239 18.7419 95.2022 18.6451 95.1857 18.5474H95.229C95.2423 18.6454 95.2423 18.7447 95.229 18.8428" fill="white"/>
<path d="M92.8507 23.7413C92.6165 23.1811 92.4598 22.5921 92.3848 21.9903C92.8398 21.6626 93.3599 21.292 93.8583 20.873C93.9677 21.4002 94.15 21.9099 94.4001 22.3877C94.01 22.7476 93.5712 23.1612 92.8453 23.7413" fill="white"/>
<path d="M96.5021 23.7681C96.0564 23.2449 95.6421 22.6961 95.2615 22.1245C95.5971 21.7349 95.8912 21.3119 96.1391 20.8623C96.4317 21.2061 96.838 21.6411 97.5152 22.2803C97.2343 22.8142 96.9042 23.3213 96.5292 23.795" fill="white"/>
<path d="M94.1726 26.169C93.7566 25.5401 93.382 24.8853 93.0511 24.2085C93.5387 23.8003 94.0859 23.3384 94.6276 22.8013C94.9896 23.4091 95.3894 23.9939 95.8249 24.5523C95.4078 24.9873 94.9364 25.4815 94.1997 26.1636" fill="white"/>
<path d="M95.0231 21.7432C94.7631 21.3091 94.5661 20.8407 94.438 20.3521C94.729 20.0764 94.9822 19.764 95.191 19.4229C95.3723 19.8247 95.6074 20.2004 95.8899 20.5401C95.6542 20.9763 95.3629 21.3807 95.0231 21.7432Z" fill="white"/>
<path d="M96.0958 28.7256C95.6136 28.1294 95.061 27.458 94.5193 26.6846C95.0285 26.2066 95.6028 25.6694 96.1879 25.0249C96.6484 25.562 97.0763 26.0991 97.8456 26.8941C97.4014 27.3882 96.8976 27.9683 96.0958 28.7256Z" fill="white"/>
<path d="M98.5986 25.9595C98.0569 25.4224 97.488 24.8531 96.903 24.1978C97.2821 23.7017 97.6191 23.1753 97.9106 22.624C98.642 23.2686 98.642 23.2686 99.6876 24.1656C99.3872 24.7977 99.0243 25.3986 98.6041 25.9595" fill="white"/>
<path d="M96.0904 20.0083C95.8058 19.7217 95.5567 19.4026 95.3482 19.0576C95.3482 18.7676 95.3482 18.7407 95.2561 18.5635C95.5595 18.8052 95.6245 18.8535 96.0254 19.1382C96.1519 19.419 96.1712 19.7359 96.0796 20.0298" fill="white"/>
<path d="M97.6181 19.7613L96.0795 18.9448C95.871 18.7507 95.621 18.6056 95.3481 18.5205C95.9982 18.7031 96.1012 18.73 96.7079 18.9341C97.0724 19.123 97.3778 19.4072 97.591 19.7559" fill="white"/>
<path d="M97.7698 21.5445C97.3256 21.1739 96.8272 20.7495 96.3667 20.293C96.4732 19.9775 96.4732 19.6363 96.3667 19.3208C96.8705 19.6538 97.0818 19.7935 97.8619 20.293C97.9521 20.7085 97.9297 21.1403 97.7969 21.5445" fill="white"/>
<path d="M95.7653 18.7783L95.3102 18.5366H95.3482C95.4939 18.6106 95.635 18.6931 95.7707 18.7837" fill="white"/>
<path d="M99.9747 23.3116C98.5987 22.2373 98.5987 22.2373 98.1815 21.8828C98.3178 21.4557 98.3457 21.0019 98.2628 20.5615L100.094 21.7432C100.159 22.2722 100.119 22.8088 99.9747 23.3223" fill="white"/>
<path d="M99.9151 21.0288C99.3734 20.7119 98.8696 20.4326 98.0569 19.9922C97.8499 19.6265 97.5538 19.3181 97.1956 19.0952C97.7373 19.2778 98.3495 19.5088 99.1242 19.8364C99.4707 20.1733 99.7404 20.5799 99.9151 21.0288Z" fill="white"/>
<path d="M96.0958 18.6655L95.4023 18.5205C95.6028 18.5635 95.8791 18.6172 96.0741 18.6763" fill="white"/>
<path d="M98.5336 19.3638C98.0352 19.2027 97.3472 18.9824 96.5671 18.7783C96.2015 18.6432 95.8216 18.5495 95.4348 18.499C96.2799 18.5903 96.3883 18.6011 97.0601 18.7085C97.5847 18.8512 98.0836 19.0741 98.539 19.3692" fill="white"/>
<path d="M96.2041 18.5205L95.4511 18.4722C95.6732 18.4722 95.9929 18.4722 96.1987 18.5259" fill="white"/>
<path d="M98.7612 31.7496C97.7102 30.5787 97.396 30.2242 96.968 29.73C97.5098 29.1929 98.1219 28.5698 98.7504 27.8232C99.368 28.4517 99.9964 29.0694 100.603 29.7032C100.105 30.3047 99.628 30.8687 98.7612 31.7496Z" fill="white"/>
<path d="M103.344 30.9063C102.927 30.3692 102.537 29.8965 101.795 29.1177C102.225 28.4563 102.587 27.7547 102.879 27.0229C103.423 27.5487 103.936 28.1046 104.417 28.688C104.127 29.4594 103.764 30.2021 103.334 30.9063" fill="white"/>
<path d="M100.798 34.0967C100.208 33.3931 100.083 33.2481 99.173 32.2437C99.8277 31.5861 100.446 30.894 101.026 30.1704C101.519 30.7075 102.077 31.3252 102.586 32.0074C102.041 32.745 101.443 33.4433 100.798 34.0967Z" fill="white"/>
<path d="M101.362 28.6666C100.592 27.9039 100.533 27.8394 99.5034 26.8618C99.9285 26.2679 100.292 25.6326 100.587 24.9658C101.21 25.5029 101.8 26.0401 102.423 26.6094C102.129 27.3278 101.766 28.0166 101.34 28.6666" fill="white"/>
<path d="M102.163 36.0518C101.861 35.517 101.519 35.0053 101.14 34.521C101.785 33.885 102.384 33.2047 102.933 32.4854C103.299 32.9967 103.625 33.5355 103.908 34.0967C103.374 34.7835 102.791 35.4315 102.163 36.0357" fill="white"/>
<path d="M104.634 33.0601C104.361 32.4667 104.039 31.8971 103.669 31.3575C104.098 30.6428 104.46 29.8914 104.753 29.1123C105.14 29.6366 105.468 30.2023 105.728 30.7989C105.452 31.5897 105.088 32.348 104.645 33.0601" fill="white"/>
<path d="M102.743 25.605C102.174 25.1109 101.768 24.751 100.912 24.0581C101.057 23.5063 101.101 22.9334 101.042 22.3662C101.627 22.7691 102.228 23.188 102.889 23.7036C102.943 24.3411 102.894 24.983 102.743 25.605Z" fill="white"/>
<path d="M104.72 24.4664C104.231 23.9937 103.714 23.5507 103.171 23.1397C103.018 22.5548 102.771 21.9982 102.44 21.4907C102.992 21.8232 103.518 22.1947 104.016 22.6026C104.346 23.1864 104.591 23.814 104.742 24.4664" fill="white"/>
<path d="M104.715 27.5923C104.232 27.0284 103.718 26.4905 103.176 25.981C103.324 25.3422 103.374 24.6848 103.323 24.0312C103.867 24.4728 104.383 24.9482 104.867 25.4546C104.919 26.1743 104.868 26.8977 104.715 27.6031" fill="white"/>
<path d="M102.732 22.8174C102.228 22.4683 101.703 22.1031 100.874 21.5982C100.71 21.1078 100.448 20.6549 100.105 20.2661C100.646 20.5293 101.302 20.8032 102.001 21.2329C102.336 21.7247 102.583 22.2697 102.732 22.8443" fill="white"/>
<path d="M106.021 29.6334C105.753 29.0628 105.425 28.5225 105.04 28.022C105.191 27.3163 105.244 26.5934 105.197 25.8735C105.582 26.3268 105.913 26.8224 106.183 27.3506C106.228 28.1158 106.17 28.8835 106.01 29.6334" fill="white"/>
<path d="M106.042 26.2442C105.776 25.7274 105.442 25.2472 105.051 24.8155C104.897 24.1477 104.651 23.5043 104.32 22.9033C104.711 23.2681 105.043 23.6902 105.306 24.1548C105.644 24.8156 105.892 25.5183 106.042 26.2442Z" fill="white"/>
<path d="M102.624 37.6314C102.616 37.2037 102.516 36.7825 102.331 36.396C102.954 35.8058 103.532 35.1702 104.059 34.4946C104.232 34.9418 104.314 35.418 104.303 35.8965C103.786 36.514 103.225 37.0938 102.624 37.6314Z" fill="white"/>
<path d="M105.138 35.4239C104.97 35.7032 104.748 36.0738 104.563 36.3477L104.444 36.5196C104.713 36.1439 104.898 35.7153 104.986 35.2627C105.429 34.615 105.793 33.9172 106.069 33.1841C106.021 33.3989 105.95 33.6836 105.88 33.8931C105.679 34.3604 105.414 34.9673 105.165 35.4239" fill="white"/>
<path d="M102.12 38.8667C102.368 38.5978 102.534 38.2643 102.597 37.9053C103.201 37.3901 103.76 36.8241 104.265 36.2134C104.18 36.6387 103.994 37.038 103.724 37.3789C103.229 37.9232 102.685 38.4213 102.098 38.8667" fill="white"/>
<path d="M105.013 34.9239C105.029 34.4236 104.952 33.9248 104.785 33.4522C105.23 32.75 105.593 32.0005 105.869 31.2178C106.044 31.7366 106.121 32.2827 106.097 32.8291C105.818 33.5732 105.454 34.2832 105.013 34.9454" fill="white"/>
<path d="M102.819 38.3511C102.434 38.7055 102.023 39.0304 101.589 39.3233L101.909 39.0762C102.496 38.6528 103.04 38.1744 103.534 37.6475C103.328 37.8569 103.063 38.1362 102.846 38.3296" fill="white"/>
<path d="M106.633 29.6548V30.1919C106.589 30.6431 106.508 31.2662 106.427 31.6905C106.45 31.1438 106.371 30.5976 106.194 30.0791C106.352 29.3181 106.41 28.54 106.367 27.7642C106.514 28.1556 106.599 28.5666 106.622 28.9834V29.6817" fill="white"/>
<path d="M106.422 31.8789L106.324 32.3355L106.378 32.0723L106.492 31.4707L106.422 31.8789Z" fill="white"/>
<path d="M106.021 25.8521C106.145 26.2764 106.302 26.8457 106.4 27.2808C106.346 27.0767 106.281 26.8135 106.21 26.6148C106.105 26.1077 105.953 25.6114 105.755 25.1323L106.021 25.8521Z" fill="white"/>
<path d="M101.443 20.5454C100.961 20.3199 100.359 20.0083 99.5305 19.7183C99.093 19.3747 98.6052 19.0994 98.084 18.9019C98.6257 19.0254 99.3029 19.1865 100.029 19.439C100.55 19.7453 101.025 20.1213 101.443 20.5562" fill="white"/>
<path d="M99.7418 18.9448C100.245 19.1649 100.731 19.4235 101.194 19.7183C100.708 19.4809 100.202 19.2851 99.6822 19.1328C99.1132 18.8674 98.5176 18.6622 97.9053 18.5205C98.3195 18.5604 98.7304 18.6286 99.135 18.7246C99.3409 18.7891 99.5468 18.8589 99.7418 18.9395" fill="white"/>
<path d="M103.442 21.7432C102.948 21.3771 102.429 21.0469 101.887 20.7549C101.469 20.3087 100.993 19.9186 100.473 19.5947C101.006 19.7978 101.523 20.042 102.017 20.3252C102.547 20.7527 103.025 21.2393 103.442 21.7754" fill="white"/>
<path d="M99.2108 19.0093C98.7124 18.8965 98.0948 18.7568 97.2497 18.644C96.6627 18.5161 96.0629 18.4548 95.4619 18.4614C96.0037 18.4614 96.7079 18.4614 97.461 18.4614C98.0617 18.5787 98.6483 18.7587 99.2108 18.9985" fill="white"/>
<path d="M103.052 21.1362C103.506 21.5687 103.921 22.0396 104.293 22.5435L104.569 22.9248C104.34 22.5972 104.071 22.2995 103.767 22.0386C103.35 21.4812 102.87 20.973 102.337 20.5239C102.456 20.6152 102.613 20.7334 102.727 20.8355L103.052 21.1362Z" fill="white"/>
<path d="M100.766 19.4282C101.074 19.6162 101.481 19.8687 101.779 20.0674L101.513 19.8955C101.199 19.6968 100.771 19.439 100.43 19.2563L100.749 19.4282" fill="white"/>
<path d="M95.9224 18.3862H96.5779L95.4457 18.4507L95.9387 18.397" fill="white"/>
<path d="M97.3581 18.3916H97.0222H96.7296C96.9409 18.3916 97.1522 18.3916 97.3581 18.4238" fill="white"/>
</svg>
