<svg width="88" height="72" viewBox="0 0 88 72" fill="none" xmlns="http://www.w3.org/2000/svg">
<path d="M32.1354 27.4344C36.2556 26.3298 39.2408 22.5334 39.2408 18.1812V16.9875C39.2408 11.0485 34.409 6.2168 28.4699 6.2168C22.5307 6.2168 17.699 11.0485 17.699 16.9875C17.699 18.8972 19.2526 20.4508 21.1623 20.4508C23.072 20.4508 24.6255 18.8972 24.6255 16.9875C24.6255 14.8678 26.3501 13.1434 28.4699 13.1434C30.5896 13.1434 32.3142 14.8678 32.3142 16.9875V18.1812C32.3142 19.6426 31.1252 20.8318 29.6635 20.8318C27.2073 20.8318 25.2089 22.8302 25.2089 25.2865V32.7885C25.2089 34.6982 26.7625 36.2518 28.6722 36.2518C30.5819 36.2518 32.1354 34.698 32.1354 32.7885V27.4344ZM30.6633 25.1091C30.0286 25.2 29.5573 25.7439 29.5573 26.3851V32.7885C29.5573 33.2766 29.1603 33.6737 28.6722 33.6737C28.184 33.6737 27.787 33.2764 27.787 32.7885V25.2865C27.787 24.2518 28.6288 23.41 29.6635 23.41C32.5467 23.41 34.8923 21.0644 34.8923 18.1812V16.9875C34.8923 13.4462 32.0112 10.5652 28.4699 10.5652C24.9286 10.5652 22.0474 13.4462 22.0474 16.9875C22.0474 17.4756 21.6504 17.8727 21.1623 17.8727C20.6741 17.8727 20.2771 17.4756 20.2771 16.9875C20.2771 12.4701 23.9523 8.79492 28.4699 8.79492C32.9874 8.79492 36.6626 12.4701 36.6626 16.9875V18.1812C36.6626 21.6402 34.0835 24.6184 30.6633 25.1091Z" fill="#01A0C6"/>
<path d="M28.672 37.1711C26.7623 37.1711 25.2087 38.7249 25.2087 40.6344C25.2087 42.544 26.7623 44.0977 28.672 44.0977C30.5817 44.0977 32.1353 42.5441 32.1353 40.6344C32.1353 38.7247 30.5817 37.1711 28.672 37.1711ZM28.672 41.5196C28.1839 41.5196 27.7869 41.1225 27.7869 40.6344C27.7869 40.1463 28.1839 39.7493 28.672 39.7493C29.1601 39.7493 29.5572 40.1465 29.5572 40.6344C29.5572 41.1224 29.1601 41.5196 28.672 41.5196Z" fill="#01A0C6"/>
<path d="M59.5301 17.7023C58.2343 17.7023 56.9353 17.7822 55.6543 17.9384C52.596 9.13533 44.3455 2.24692 33.8291 0.451516C33.8279 0.451344 33.8265 0.451172 33.8255 0.451C32.0719 0.151766 30.2701 0.000171875 28.4697 0C20.6695 0 13.3915 2.77114 7.97672 7.80261C7.45525 8.28713 7.42534 9.10284 7.90986 9.62449C8.3942 10.1458 9.20992 10.1759 9.73173 9.69134C14.6682 5.10434 21.3226 2.57812 28.4697 2.57812C30.1252 2.57812 31.7814 2.71752 33.392 2.99234C33.3931 2.99252 33.3943 2.99269 33.3953 2.99286C47.5401 5.4077 55.7779 17.1573 54.1501 28.4584C52.5181 39.7279 41.6238 48.4653 28.4697 48.4653C26.6394 48.4653 24.8065 48.2934 23.0221 47.9548C22.8202 47.9165 22.612 47.9268 22.4151 47.9854L13.9227 50.5051L15.1534 46.3578C15.324 45.7823 15.075 45.1651 14.5527 44.8693C7.05461 40.6235 2.57812 33.3908 2.57812 25.5217C2.57812 21.4813 3.78056 17.5084 6.05498 14.0329C6.44497 13.4372 6.27791 12.6383 5.68236 12.2485C5.08681 11.8587 4.28759 12.0254 3.89795 12.6211C1.34802 16.5174 0 20.9784 0 25.5217C0 34.0141 4.6133 41.8198 12.3953 46.59L10.7752 52.0503C10.6408 52.5035 10.7652 52.994 11.0995 53.3285C11.3448 53.5738 11.6741 53.7061 12.0111 53.7061C12.1335 53.7061 12.2569 53.6886 12.3777 53.6528L22.8522 50.545C24.6964 50.8759 26.5848 51.0434 28.4701 51.0434C29.7823 51.0434 31.0735 50.9616 32.3391 50.8068C36.0119 61.4235 47.0207 68.7455 59.5305 68.7455C61.4158 68.7455 63.304 68.578 65.1484 68.2471L75.6226 71.3549C75.7434 71.3907 75.8668 71.4082 75.9892 71.4082C76.3262 71.4082 76.6556 71.2759 76.901 71.0306C77.2351 70.6963 77.3597 70.2058 77.2253 69.7524L75.6051 64.2917C77.736 62.9834 79.6568 61.4242 81.3251 59.647C81.8123 59.1279 81.7867 58.312 81.2675 57.8248C80.7484 57.3375 79.9325 57.3633 79.4454 57.8823C77.7265 59.7133 75.7087 61.291 73.4477 62.5714C72.9254 62.8672 72.6763 63.4844 72.847 64.0599L74.0774 68.2072L65.5853 65.6874C65.3881 65.6289 65.1798 65.6186 64.9782 65.6568C63.1936 65.9955 61.3607 66.1672 59.5306 66.1672C48.2835 66.1672 38.3857 59.745 34.9257 50.3834C40.8299 49.1538 46.193 46.2325 50.1554 42.0614C55.7538 36.1683 58.1219 28.2086 56.3765 20.4492C57.4209 20.3368 58.4769 20.28 59.5306 20.28C73.8073 20.28 85.4224 30.5724 85.4224 43.2236C85.4224 46.7577 84.5393 50.1469 82.7977 53.2974C82.4532 53.9205 82.6791 54.7047 83.3021 55.0492C83.9254 55.3936 84.7095 55.1678 85.0539 54.5445C87.0086 51.0084 88 47.1993 88 43.2238C88 29.1512 75.2285 17.7023 59.5301 17.7023Z" fill="#01A0C6"/>
<path d="M64.2504 36.4295C64.0538 35.9416 63.5806 35.6221 63.0547 35.6221C62.5286 35.6221 62.0556 35.9416 61.859 36.4295L59.1537 43.1455C58.9936 43.5429 59.0414 43.9936 59.281 44.3487C59.5208 44.7036 59.9211 44.9164 60.3494 44.9164H65.7602C66.1885 44.9164 66.5888 44.7036 66.8286 44.3487C67.0683 43.9938 67.1159 43.5429 66.9559 43.1455L64.2504 36.4295ZM62.2582 42.3382L63.0547 40.3612L63.8512 42.3382H62.2582Z" fill="#01A0C6"/>
<path d="M67.1091 32.0265C66.4393 30.3633 64.8478 29.2886 63.0546 29.2886C61.2614 29.2886 59.67 30.3633 59.0001 32.0265L50.3508 53.4979C49.6427 55.256 50.4969 57.2626 52.255 57.9707C54.0128 58.6783 56.0194 57.8246 56.7279 56.0665L59.4887 49.213H66.6205L69.3813 56.0665C69.9083 57.3748 71.1602 58.2203 72.5706 58.2203C73.0111 58.2203 73.4427 58.1364 73.8545 57.9707C75.6126 57.2626 76.4667 55.256 75.7586 53.4979L67.1091 32.0265ZM72.8915 55.5793C72.7877 55.621 72.6798 55.6422 72.5706 55.6422C72.2178 55.6422 71.9046 55.4308 71.7728 55.1033L68.6868 47.4424C68.4901 46.9546 68.0171 46.6349 67.491 46.6349H58.6183C58.0922 46.6349 57.6192 46.9544 57.4226 47.4424L54.3366 55.1033C54.1595 55.543 53.657 55.7563 53.2184 55.5794C52.7787 55.4024 52.5652 54.9007 52.7423 54.461L61.3915 32.9897C61.6664 32.3076 62.319 31.8667 63.0546 31.8667C63.7902 31.8667 64.4428 32.3076 64.7177 32.9897L73.3669 54.4609C73.5441 54.9007 73.3305 55.4024 72.8915 55.5793Z" fill="#01A0C6"/>
</svg>
