<svg width="88" height="88" viewBox="0 0 88 88" fill="none" xmlns="http://www.w3.org/2000/svg">
<g clip-path="url(#clip0_65_29)">
<path d="M49.9641 51.5435H70.7449C71.5442 51.5435 72.1924 50.8954 72.1924 50.096C72.1924 49.2966 71.5442 48.6484 70.7449 48.6484H49.9641C49.1647 48.6484 48.5166 49.2966 48.5166 50.096C48.5166 50.8954 49.1646 51.5435 49.9641 51.5435Z" fill="#FF134C"/>
<path d="M69.1044 55.1025H51.6047C50.149 55.1025 48.9646 56.2869 48.9646 57.7427V70.8673C48.9646 72.323 50.149 73.5074 51.6047 73.5074H69.1042C70.56 73.5074 71.7444 72.323 71.7444 70.8673V57.7427C71.7444 56.2868 70.5601 55.1025 69.1044 55.1025ZM69.1662 70.8673C69.1662 70.9015 69.1384 70.9293 69.1042 70.9293H51.6047C51.5705 70.9293 51.5427 70.9015 51.5427 70.8673V57.7427C51.5427 57.7085 51.5705 57.6807 51.6047 57.6807H69.1042C69.1384 57.6807 69.1662 57.7085 69.1662 57.7427V70.8673Z" fill="#FF134C"/>
<path d="M67.6739 6.80523C68.3858 6.80523 68.9629 6.22808 68.9629 5.51617V1.66016C68.9629 0.94825 68.3858 0.371094 67.6739 0.371094C66.962 0.371094 66.3848 0.94825 66.3848 1.66016V5.51634C66.3848 6.22808 66.962 6.80523 67.6739 6.80523Z" fill="#FF134C"/>
<path d="M57.7133 8.99472C58.2167 9.49815 59.0329 9.49815 59.5362 8.99472C60.0396 8.4913 60.0396 7.67507 59.5362 7.17182L56.8096 4.44519C56.3061 3.94177 55.4899 3.94177 54.9866 4.44519C54.4832 4.94862 54.4832 5.76485 54.9866 6.2681L57.7133 8.99472Z" fill="#FF134C"/>
<path d="M77.6347 8.99472L80.3615 6.2681C80.8649 5.76468 80.8649 4.94862 80.3615 4.44519C79.8583 3.94177 79.042 3.94177 78.5386 4.44519L75.8118 7.17182C75.3084 7.67524 75.3084 8.4913 75.8118 8.99472C76.3149 9.49815 77.1313 9.49815 77.6347 8.99472Z" fill="#FF134C"/>
<path d="M86.7109 14.4177H82.8547C82.1428 14.4177 81.5657 14.9949 81.5657 15.7068C81.5657 16.4187 82.1428 16.9958 82.8547 16.9958H86.7109C87.4228 16.9958 88 16.4187 88 15.7068C88 14.9949 87.4228 14.4177 86.7109 14.4177Z" fill="#FF134C"/>
<path d="M48.637 16.9958H52.4932C53.2051 16.9958 53.7822 16.4187 53.7822 15.7068C53.7822 14.9949 53.2051 14.4177 52.4932 14.4177H48.637C47.9251 14.4177 47.3479 14.9949 47.3479 15.7068C47.3479 16.4187 47.9251 16.9958 48.637 16.9958Z" fill="#FF134C"/>
<path d="M14.2346 31.8472H35.0154C35.8148 31.8472 36.4629 31.1991 36.4629 30.3997C36.4629 29.6003 35.8148 28.9521 35.0154 28.9521H14.2346C13.4352 28.9521 12.7871 29.6003 12.7871 30.3997C12.7871 31.1991 13.4352 31.8472 14.2346 31.8472Z" fill="#FF134C"/>
<path d="M14.2346 38.4126H35.0154C35.8148 38.4126 36.4629 37.7645 36.4629 36.9651C36.4629 36.1657 35.8148 35.5176 35.0154 35.5176H14.2346C13.4352 35.5176 12.7871 36.1657 12.7871 36.9651C12.7871 37.7645 13.4352 38.4126 14.2346 38.4126Z" fill="#FF134C"/>
<path d="M36.4631 43.5305C36.4631 42.731 35.8149 42.083 35.0155 42.083H14.2346C13.4352 42.083 12.7871 42.7312 12.7871 43.5305C12.7871 44.3299 13.4352 44.9781 14.2346 44.9781H35.0154C35.8149 44.9781 36.4631 44.3299 36.4631 43.5305Z" fill="#FF134C"/>
<path d="M14.2346 69.5982H35.0154C35.8148 69.5982 36.4629 68.95 36.4629 68.1507C36.4629 67.3513 35.8148 66.7031 35.0154 66.7031H14.2346C13.4352 66.7031 12.7871 67.3513 12.7871 68.1507C12.7871 68.9502 13.4352 69.5982 14.2346 69.5982Z" fill="#FF134C"/>
<path d="M81.6017 24.533H79.9707C80.2264 21.8825 79.6242 19.2923 78.3279 17.0939C77.9663 16.4804 77.1758 16.2766 76.5627 16.6381C75.9495 16.9997 75.7453 17.79 76.1069 18.4032C78.0821 21.7537 77.8932 26.043 75.445 29.2557C75.4316 29.2731 75.4185 29.2906 75.4051 29.308C74.6099 30.3373 72.9226 31.6601 71.6413 34.7829H63.7061C63.0167 33.1032 61.9759 31.4893 60.6658 30.1428C54.534 23.8415 59.2692 13.2227 68.059 13.561C69.5652 13.6187 71.0022 14.0166 72.3301 14.7436C72.9549 15.0855 73.738 14.8562 74.0798 14.232C74.4217 13.6076 74.1926 12.8241 73.5681 12.4823C66.1581 8.42569 56.9198 12.93 55.4989 21.2431H44.9766C44.0245 21.2431 43.1545 21.5978 42.4895 22.1814C41.8247 21.598 40.9545 21.2431 40.0027 21.2431H7.921C6.57023 21.2431 5.47127 22.3421 5.47127 23.6927V24.5328H3.37783C1.51522 24.533 -3.05176e-05 26.0484 -3.05176e-05 27.911V52.4994V59.0618V62.0906C-3.05176e-05 62.8025 0.577126 63.3796 1.28903 63.3796C2.00094 63.3796 2.57809 62.8025 2.57809 62.0906V61.8835C2.75341 61.8993 2.60903 61.8948 5.47127 61.8948V76.2354C5.47127 77.5861 6.57023 78.6849 7.921 78.6849H40.0028C40.7522 78.6849 40.9722 79.2482 41.2006 79.4642V83.4665C40.3133 82.8986 39.2698 82.581 38.188 82.581H3.37783C2.9368 82.581 2.57809 82.2223 2.57809 81.7812V68.1062C2.57809 67.3943 2.00094 66.8171 1.28903 66.8171C0.577126 66.8171 -3.05176e-05 67.3943 -3.05176e-05 68.1062V81.7812C-3.05176e-05 83.6439 1.51522 85.1591 3.37783 85.1591H38.188C39.2519 85.1591 40.2483 85.7304 40.788 86.6501C41.5703 87.9839 43.4421 87.9265 44.1913 86.6503C44.7311 85.7304 45.7275 85.1591 46.7914 85.1591H81.6016C83.4642 85.1591 84.9794 83.6439 84.9794 81.7812V27.911C84.9796 26.0484 83.4644 24.533 81.6017 24.533ZM64.1009 40.054V37.361H71.2466V40.054C71.2466 42.024 69.6439 43.6269 67.6737 43.6269C65.7035 43.6269 64.1009 42.0242 64.1009 40.054ZM44.9767 23.8214H55.3291C55.3999 25.6373 55.8898 27.4287 56.6713 28.9522H49.964C49.1646 28.9522 48.5165 29.6003 48.5165 30.3997C48.5165 31.1993 49.1646 31.8473 49.964 31.8473H58.731C59.8037 32.9718 60.577 34.0627 61.2126 35.5175H49.9639C49.1645 35.5175 48.5163 36.1656 48.5163 36.9652C48.5163 37.7646 49.1645 38.4127 49.9639 38.4127H61.5226V40.0541C61.5226 40.7648 61.6452 41.4473 61.8681 42.0829H49.964C49.1646 42.0829 48.5165 42.7311 48.5165 43.5305C48.5165 44.3299 49.1646 44.978 49.964 44.978L63.9292 44.929C64.9672 45.7281 66.2655 46.205 67.6737 46.205C71.0653 46.205 73.8248 43.4457 73.8248 40.054V36.3C74.7845 33.5932 76.3219 32.1957 76.93 31.509V76.1068H44.9767C44.6003 76.1068 44.1918 76.1668 43.8018 76.2943C43.7942 76.2967 43.7863 76.2984 43.7789 76.301V25.0194C43.7788 24.3587 44.3162 23.8214 44.9767 23.8214ZM2.57809 27.911C2.57809 27.47 2.9368 27.1113 3.37783 27.1113H5.47127V49.6662H2.83316C2.74722 49.6662 2.66214 49.67 2.57809 49.6776V27.911ZM2.83316 59.3167C2.69256 59.3167 2.57809 59.2022 2.57809 59.0616V52.4993C2.57809 52.3587 2.69256 52.2442 2.83316 52.2442H7.69791V59.3165C6.46608 59.3167 8.91203 59.3167 2.83316 59.3167ZM27.1299 61.8948C27.3754 61.8948 27.6445 61.8175 27.8652 61.6638C27.8674 61.6623 27.8698 61.6612 27.8721 61.6597L33.6036 57.6235C34.2022 57.2018 34.5597 56.5129 34.5597 55.7805C34.5597 55.0482 34.2022 54.3593 33.6036 53.9375L27.8721 49.9014C27.8697 49.8996 27.8669 49.8984 27.8645 49.8969C27.6784 49.7675 27.446 49.6808 27.1887 49.6693C27.1691 49.6685 27.1497 49.6664 27.1299 49.6664C24.8737 49.6664 10.0553 49.6664 8.04939 49.6664V25.822V23.8212H40.0028C40.6634 23.8212 41.2006 24.3585 41.2006 25.019V76.3007C40.844 76.1809 40.4202 76.1065 40.0028 76.1065H8.04939V61.8945C10.0545 61.8948 24.8722 61.8948 27.1299 61.8948ZM25.8409 59.3167H10.276V52.2444H25.8409V59.3167ZM31.743 55.7805L28.419 58.1215V53.4398L31.743 55.7805ZM82.4015 81.7812C82.4015 82.2223 82.0428 82.581 81.6017 82.581H46.7916C45.71 82.581 44.6662 82.8988 43.7789 83.4665V79.4642C44.0239 79.2325 44.2184 78.6849 44.9769 78.6849H77.0588C78.4095 78.6849 79.5083 77.586 79.5083 76.2354V27.1111H81.6017C82.0428 27.1111 82.4015 27.4698 82.4015 27.9108V81.7812Z" fill="#FF134C"/>
</g>
<defs>
<clipPath id="clip0_65_29">
<rect width="88" height="88" fill="white"/>
</clipPath>
</defs>
</svg>
