<svg width="88" height="88" viewBox="0 0 88 88" fill="none" xmlns="http://www.w3.org/2000/svg">
<path d="M44 0C19.6812 0 0 19.6792 0 44C0 52.7242 2.54822 61.1562 7.36948 68.3844C7.76462 68.9769 8.56487 69.1371 9.15716 68.7416C9.74927 68.3466 9.90928 67.5462 9.51414 66.9541C4.97664 60.1507 2.57812 52.2132 2.57812 44C2.57812 21.1599 21.1599 2.57812 44 2.57812C53.2586 2.57812 62.0137 5.56445 69.3186 11.2142C69.3191 11.2143 69.3194 11.2147 69.3198 11.215C79.5529 19.13 85.4219 31.0796 85.4219 44C85.4219 66.8401 66.8401 85.4219 44 85.4219C32.2065 85.4219 20.9364 80.3705 13.0795 71.5631C12.6057 71.0322 11.7911 70.9856 11.2594 71.4593C10.7281 71.9333 10.6817 72.748 11.1555 73.2793C19.5011 82.6346 31.4724 88 44 88C68.3188 88 88 68.3208 88 44C88 19.7905 68.404 0 44 0Z" fill="#04D100"/>
<path d="M58.2477 10.0903C53.7292 8.18486 48.9356 7.21875 44 7.21875C23.7188 7.21875 7.21875 23.7188 7.21875 44C7.21875 64.2812 23.7188 80.7812 44 80.7812C64.2812 80.7812 80.7812 64.2812 80.7812 44C80.7812 31.3957 74.4181 19.8027 63.7596 12.9883C63.1598 12.605 62.3628 12.7803 61.9792 13.38C61.5959 13.9798 61.771 14.777 62.3709 15.1604C64.1264 16.2828 65.7539 17.5469 67.2482 18.9286L64.2352 21.9416C63.7318 22.4452 63.7318 23.2612 64.2352 23.7646C64.739 24.2681 65.5548 24.2679 66.0583 23.7646L69.076 20.7469C74.6058 26.6884 77.8687 34.4297 78.1765 42.7109H73.9062C73.1942 42.7109 72.6172 43.2879 72.6172 44C72.6172 44.7121 73.1942 45.2891 73.9062 45.2891H78.1763C77.8611 53.7486 74.4599 61.4316 69.0668 67.2437L66.0584 64.2354C65.5548 63.7321 64.7388 63.7321 64.2354 64.2354C63.7319 64.739 63.7319 65.555 64.2354 66.0584L67.2437 69.0668C61.4317 74.4599 53.7487 77.8613 45.2891 78.1763V73.9062C45.2891 73.1942 44.7121 72.6172 44 72.6172C43.2879 72.6172 42.7109 73.1942 42.7109 73.9062V78.1763C34.2514 77.8611 26.5684 74.4599 20.7563 69.0668L23.7646 66.0584C24.2681 65.5548 24.2681 64.7388 23.7646 64.2354C23.261 63.7321 22.445 63.7321 21.9416 64.2354L18.9332 67.2437C13.5401 61.4316 10.1387 53.7486 9.82369 45.2891H14.0938C14.8058 45.2891 15.3828 44.7121 15.3828 44C15.3828 43.2879 14.8058 42.7109 14.0938 42.7109H9.82369C10.1389 34.2514 13.5401 26.5684 18.9332 20.7563L21.9416 23.7646C22.4453 24.2681 23.2612 24.2679 23.7646 23.7646C24.2681 23.261 24.2681 22.445 23.7646 21.9416L20.7563 18.9332C26.5684 13.5401 34.2514 10.1387 42.7109 9.82369V14.0938C42.7109 14.8058 43.2879 15.3828 44 15.3828C44.7121 15.3828 45.2891 14.8058 45.2891 14.0938V9.82317C49.424 9.9758 53.4408 10.8611 57.2461 12.4659C57.9018 12.742 58.658 12.435 58.9347 11.7789C59.2115 11.1231 58.9038 10.367 58.2477 10.0903Z" fill="#04D100"/>
<path d="M26.2444 61.7552C26.4962 62.0068 26.8262 62.1326 27.156 62.1326C27.4858 62.1326 27.8158 62.0068 28.0676 61.7552L41.3974 48.4254C42.1667 48.8874 43.0584 49.1562 43.9999 49.1562C45.2732 49.1562 46.4557 48.665 47.3666 47.8672H58.0937C60.226 47.8672 61.9609 46.1323 61.9609 44C61.9609 41.8677 60.226 40.1328 58.0937 40.1328H47.8671V24.75C47.8671 22.6177 46.1322 20.8828 43.9999 20.8828C41.8677 20.8828 40.1327 22.6177 40.1327 24.75V40.6333C39.3349 41.5444 38.8437 42.7267 38.8437 44C38.8437 44.9414 39.1123 45.8329 39.5743 46.602L26.2444 59.932C25.7411 60.4355 25.7411 61.2516 26.2444 61.7552ZM42.4427 46.0199C42.3272 45.8221 42.177 45.6722 41.9799 45.557C41.6344 45.1175 41.4218 44.5742 41.4218 44C41.4218 42.5447 42.7753 41.2799 44.2478 41.4353C44.2632 41.4368 44.2785 41.4401 44.294 41.442C45.4435 41.5864 46.4131 42.552 46.5581 43.7061C46.56 43.7216 46.5633 43.7367 46.5648 43.7523C46.7195 45.22 45.46 46.5781 43.9999 46.5781C43.4257 46.5781 42.8824 46.3655 42.4427 46.0199ZM58.0937 42.7109C58.8046 42.7109 59.3828 43.2891 59.3828 44C59.3828 44.7109 58.8046 45.2891 58.0937 45.2891H48.9877C49.2009 44.4852 49.2196 43.5849 48.9877 42.7109H58.0937ZM42.7109 24.75C42.7109 24.0391 43.2891 23.4609 43.9999 23.4609C44.7108 23.4609 45.289 24.0391 45.289 24.75V39.0122C44.4803 38.7977 43.573 38.7836 42.7109 39.0122V24.75Z" fill="#04D100"/>
</svg>
