<svg width="36" height="37" viewBox="0 0 36 37" fill="none" xmlns="http://www.w3.org/2000/svg">
<rect y="0.5" width="36" height="36" rx="18" fill="#0557F5"/>
<path d="M24.5937 12.4062H11.4062C11.1897 12.4062 10.9871 12.4595 10.8037 12.5472L17.9687 19.7122L19.5746 18.1688C19.5746 18.1688 19.5747 18.1687 19.5747 18.1686C19.5748 18.1685 19.5749 18.1685 19.5749 18.1685L25.1964 12.5473C25.013 12.4595 24.8102 12.4062 24.5937 12.4062Z" fill="white"/>
<path d="M25.8592 13.2104L20.5691 18.5003L25.859 23.7902C25.9467 23.6068 25.9999 23.4042 25.9999 23.1877V13.8127C25.9999 13.5964 25.9468 13.3937 25.8592 13.2104Z" fill="white"/>
<path d="M10.1409 13.21C10.0532 13.3933 10 13.596 10 13.8124V23.1874C10 23.4038 10.0532 23.6065 10.1408 23.7897L15.4309 18.4999L10.1409 13.21Z" fill="white"/>
<path d="M19.9062 19.1631L18.3001 20.7067C18.2085 20.7982 18.0886 20.844 17.9687 20.844C17.8488 20.844 17.7288 20.7982 17.6373 20.7067L16.0937 19.1631L10.8035 24.4529C10.9868 24.5407 11.1896 24.594 11.4062 24.594H24.5937C24.8101 24.594 25.0128 24.5408 25.1961 24.4531L19.9062 19.1631Z" fill="white"/>
</svg>
