<svg width="36" height="37" viewBox="0 0 36 37" fill="none" xmlns="http://www.w3.org/2000/svg">
<rect y="0.5" width="36" height="36" rx="18" fill="#0557F5"/>
<g clip-path="url(#clip0_550_4)">
<path d="M17.7131 10.5C14.5638 10.5 12 13.1715 12 16.4547C12 18.2912 12.9077 20.5201 14.6979 23.0804C15.5043 24.233 16.3914 25.3243 17.3521 26.3457C17.4466 26.442 17.5741 26.4968 17.7075 26.4983C17.8409 26.4998 17.9696 26.448 18.0662 26.3538C19.0346 25.3669 19.9248 24.3027 20.7283 23.1713C22.5192 20.6493 23.4262 18.3895 23.4262 16.4555C23.4262 13.1715 20.8648 10.5 17.7131 10.5ZM17.7131 19.0288C17.1605 19.0288 16.6204 18.861 16.1609 18.5468C15.7015 18.2325 15.3434 17.7859 15.1319 17.2633C14.9204 16.7407 14.8651 16.1656 14.9729 15.6108C15.0807 15.0561 15.3468 14.5465 15.7375 14.1465C16.1283 13.7465 16.6261 13.4741 17.168 13.3638C17.71 13.2534 18.2717 13.3101 18.7823 13.5265C19.2928 13.743 19.7291 14.1096 20.0361 14.5799C20.3431 15.0502 20.507 15.6031 20.507 16.1688C20.5061 16.9271 20.2115 17.654 19.6877 18.1902C19.164 18.7263 18.4538 19.0279 17.7131 19.0288Z" fill="white"/>
</g>
<defs>
<clipPath id="clip0_550_4">
<rect width="11.4286" height="16" fill="white" transform="translate(12 10.5)"/>
</clipPath>
</defs>
</svg>
