<svg width="36" height="37" viewBox="0 0 36 37" fill="none" xmlns="http://www.w3.org/2000/svg">
<rect y="0.5" width="36" height="36" rx="18" fill="#0557F5"/>
<g clip-path="url(#clip0_410_823)">
<path d="M26 17.9992V18.5991C25.9966 18.6258 25.9911 18.652 25.9896 18.6786C25.9847 18.7659 25.9828 18.8535 25.9765 18.9407C25.948 19.3291 25.8869 19.7146 25.7938 20.0929C25.3441 21.9157 24.3669 23.3999 22.8579 24.5289C21.5955 25.4748 20.1655 25.9846 18.585 26.0763C17.1315 26.1606 15.6832 25.8405 14.4034 25.1521C14.384 25.1407 14.3623 25.1338 14.3398 25.132C14.3173 25.1301 14.2947 25.1333 14.2737 25.1414C12.9791 25.5537 11.6841 25.9652 10.3885 26.376C10.2629 26.416 10.138 26.4585 10.0127 26.4999H10C10.0067 26.4718 10.0112 26.443 10.0205 26.416C10.4751 25.0748 10.9304 23.7336 11.3863 22.3922C11.3953 22.3707 11.3989 22.3472 11.3967 22.324C11.3946 22.3008 11.3868 22.2784 11.374 22.2588C10.5362 20.855 10.1649 19.2256 10.3125 17.6011C10.3494 17.1672 10.4242 16.7374 10.5362 16.3165C10.9881 14.6441 11.896 13.2631 13.2617 12.1863C14.5593 11.1656 16.0429 10.6145 17.6954 10.5136C18.0815 10.4911 18.4687 10.4976 18.8538 10.5332C19.285 10.5709 19.7121 10.6443 20.1309 10.7527C21.4177 11.087 22.598 11.7391 23.5617 12.6482C24.5254 13.5573 25.241 14.6937 25.6417 15.9513C25.8499 16.5902 25.9671 17.2549 25.9899 17.926C25.992 17.9505 25.9954 17.975 26 17.9992ZM12.0287 24.507C12.0619 24.4974 12.082 24.4926 12.1033 24.4863L13.7692 23.9559C14.0108 23.879 14.2539 23.8025 14.4944 23.7245C14.5084 23.7177 14.524 23.7151 14.5395 23.717C14.5549 23.7189 14.5694 23.7252 14.5813 23.7352C14.5947 23.7453 14.6087 23.7544 14.6234 23.7626C15.4317 24.2745 16.3436 24.604 17.2946 24.7277C18.2455 24.8513 19.2123 24.7662 20.1264 24.4782C22.6935 23.6672 24.5529 21.3361 24.6797 18.6036C24.7079 18.0496 24.6629 17.4943 24.5459 16.9519C24.2241 15.4881 23.4869 14.2671 22.3251 13.3115C20.994 12.2166 19.4541 11.726 17.7271 11.8196C17.278 11.845 16.8331 11.9187 16.4001 12.0391C13.7207 12.7774 11.7729 15.1373 11.6111 17.9057C11.5799 18.4156 11.6095 18.9274 11.6991 19.4305C11.8665 20.3713 12.2438 21.2631 12.8035 22.0407C12.8183 22.0588 12.8278 22.0805 12.8311 22.1035C12.8344 22.1266 12.8313 22.1501 12.8221 22.1715C12.5962 22.8317 12.3715 23.4925 12.148 24.1537C12.1092 24.2675 12.0708 24.3817 12.0287 24.507Z" fill="white"/>
<path d="M14.2134 16.4622C14.2212 15.7913 14.4315 15.2501 14.8845 14.8076C14.9114 14.7814 14.9386 14.7555 14.9647 14.7281C15.1556 14.5289 15.389 14.455 15.6623 14.4897C15.7686 14.5025 15.8755 14.5094 15.9826 14.5104C16.0311 14.5081 16.0794 14.5183 16.1227 14.5401C16.1661 14.5619 16.203 14.5945 16.2298 14.6346C16.2744 14.7022 16.3119 14.7742 16.3416 14.8494C16.4162 15.0372 16.4837 15.2279 16.5549 15.4168C16.6792 15.7443 16.8035 16.0716 16.9278 16.3986C16.9496 16.4507 16.9593 16.507 16.956 16.5632C16.9528 16.6195 16.9368 16.6743 16.9091 16.7236C16.8409 16.8575 16.7539 16.9812 16.6507 17.091C16.5441 17.2001 16.4408 17.3128 16.3346 17.4237C16.2686 17.4914 16.2227 17.5668 16.2436 17.664C16.2539 17.7086 16.2706 17.7516 16.2932 17.7915C16.4736 18.1236 16.6846 18.4385 16.9233 18.7323C17.4115 19.3332 18.0301 19.8171 18.7331 20.1481C18.8077 20.1832 18.88 20.2202 18.9535 20.2557C18.98 20.2682 19.0072 20.2797 19.0344 20.2904C19.0867 20.3139 19.1452 20.3201 19.2012 20.3081C19.2573 20.296 19.308 20.2664 19.3457 20.2235C19.3968 20.1714 19.4472 20.1178 19.4949 20.0638C19.6832 19.8564 19.8733 19.6505 20.0441 19.428C20.1325 19.3134 20.2275 19.2838 20.3666 19.3282C20.4446 19.3529 20.5203 19.3841 20.5929 19.4214C20.9986 19.6316 21.4035 19.8433 21.8077 20.0564C21.895 20.1023 21.9803 20.1514 22.0687 20.1958C22.185 20.2542 22.2339 20.3437 22.2279 20.4745C22.2137 20.7054 22.1676 20.9333 22.0907 21.1517C22.0376 21.3152 21.9425 21.462 21.8148 21.578C21.5271 21.8428 21.1772 22.0322 20.7969 22.1287C20.7497 22.1384 20.702 22.1455 20.6541 22.1502C20.6 22.158 20.5452 22.1631 20.4923 22.175C20.3108 22.2129 20.123 22.2102 19.9427 22.1672C19.6726 22.1074 19.408 22.0255 19.1515 21.9225C18.8409 21.8009 18.5314 21.6763 18.2264 21.5428C17.7111 21.3177 17.2495 21.0072 16.8226 20.6453C16.1481 20.0734 15.5874 19.404 15.1075 18.6669C14.9762 18.4658 14.8439 18.2651 14.7227 18.058C14.5209 17.7208 14.372 17.3551 14.2809 16.9735C14.2413 16.8057 14.2187 16.6344 14.2134 16.4622Z" fill="white"/>
</g>
<defs>
<clipPath id="clip0_410_823">
<rect width="16" height="16" fill="white" transform="translate(10 10.5)"/>
</clipPath>
</defs>
</svg>
