<svg width="195" height="264" viewBox="0 0 195 264" fill="none" xmlns="http://www.w3.org/2000/svg">
<g clip-path="url(#clip0_607_2)">
<path d="M20.8685 193.703L32.1314 193.703C32.1314 193.703 35.8141 189.813 35.3231 184.07C35.3231 184.07 34.2797 185.244 33.4511 185.861C33.2976 185.985 33.0828 185.83 33.1135 185.645C33.2976 184.348 33.1442 180.458 26.5153 173.882C19.8865 180.489 19.7024 184.348 19.9172 185.645C19.9479 185.83 19.733 185.954 19.5796 185.861C18.751 185.244 17.7076 184.07 17.7076 184.07C17.1859 189.813 20.8685 193.703 20.8685 193.703Z" fill="url(#paint0_linear_607_2)"/>
<path d="M26.5154 198.118C26.5154 198.118 33.7273 192.345 26.5154 182.434C19.3035 192.345 26.5154 198.118 26.5154 198.118Z" fill="#FFE697"/>
<path d="M26.5153 194.444C26.5153 194.444 30.8117 190.986 26.5153 185.089C22.2188 190.986 26.5153 194.444 26.5153 194.444Z" fill="white"/>
<path d="M34.6172 196.297L33.7886 194.722C33.451 194.043 32.7452 193.611 31.9779 193.611L26.546 193.611L21.114 193.611C20.3468 193.611 19.6716 194.043 19.3033 194.722L18.4747 196.297L34.6172 196.297Z" fill="#949494" stroke="#424242" stroke-width="2" stroke-miterlimit="10"/>
<path d="M36.9496 199.292L35.9062 197.254C35.4458 196.39 34.5558 195.834 33.5738 195.834L26.5767 195.834L19.5796 195.834C18.5975 195.834 17.7075 196.39 17.2472 197.254L16.2038 199.292L36.9496 199.292Z" fill="#4D4D4D" stroke="#424242" stroke-width="2" stroke-miterlimit="10"/>
<path d="M16.5721 214.976C16.5721 214.976 -1.07415 208.863 0.0306608 191.048C0.0306608 191.048 14.8842 206.269 22.9861 203.028L16.5721 214.976Z" fill="#FF134C"/>
<path d="M36.4278 214.976C36.4278 214.976 54.0741 208.863 52.9693 191.048C52.9693 191.048 38.1157 206.269 30.0138 203.028L36.4278 214.976Z" fill="#FF134C"/>
<path d="M17.9837 249.093C20.0399 254.249 22.8019 259.281 26.546 263.913L26.546 263.882L26.546 263.913C30.29 259.343 33.052 254.372 35.0775 249.247C31.1186 250.204 25.1343 250.853 17.9837 249.093Z" fill="#FF134C"/>
<path d="M17.7689 248.506L18.0144 249.123C27.4667 251.563 35.1083 249.278 35.1083 249.278L35.4151 248.506C43.1795 228.159 39.6502 206.115 38.392 199.878C38.1772 198.89 37.3179 198.149 36.3051 198.149L34.9855 198.149L18.0758 198.149L16.879 198.149C15.8662 198.149 14.9762 198.859 14.7921 199.878C13.5032 206.115 9.97391 228.159 17.7689 248.506Z" fill="#EEEEEE"/>
<path d="M26.9142 225.381C22.9143 225.381 19.6716 228.643 19.6716 232.667C19.6716 236.692 22.9143 239.954 26.9142 239.954C30.9142 239.954 34.1569 236.692 34.1569 232.667C34.1569 228.643 30.9142 225.381 26.9142 225.381Z" fill="#043146" stroke="#424242" stroke-width="2" stroke-miterlimit="10"/>
<path d="M24.4841 227.182C21.6602 228.344 20.3071 231.589 21.4619 234.43C22.6166 237.271 25.8419 238.632 28.6658 237.47C31.4896 236.309 32.8427 233.064 31.688 230.223C30.5332 227.382 27.3079 226.021 24.4841 227.182Z" fill="#7C7C7C" stroke="#424242" stroke-width="2" stroke-miterlimit="10"/>
<path d="M26.9143 227.141C23.8804 227.141 21.4209 229.615 21.4209 232.667C21.4209 235.72 23.8804 238.194 26.9142 238.194C29.9481 238.194 32.4076 235.72 32.4076 232.667C32.4076 229.615 29.9481 227.141 26.9143 227.141Z" fill="#3EC2E5" stroke="#424242" stroke-width="2" stroke-miterlimit="10"/>
<g opacity="0.08">
<path opacity="0.08" d="M26.5767 237.268C24.3977 237.268 22.5257 236.002 21.6357 234.149C22.2802 236.496 24.3977 238.194 26.9142 238.194C29.9525 238.194 32.4076 235.724 32.4076 232.667C32.4076 231.803 32.1928 231 31.8552 230.259C31.9779 230.722 32.07 231.216 32.07 231.741C32.07 234.798 29.6149 237.268 26.5767 237.268Z" fill="black" stroke="#424242" stroke-width="2" stroke-miterlimit="10"/>
</g>
<path d="M26.4846 212.753C32.4076 199.199 26.4846 187.497 26.4846 187.497C26.4846 187.497 20.5923 199.23 26.4846 212.753Z" fill="#FF134C"/>
</g>
<path d="M68.0001 5.41272C110 -3.25395 194 -1.18728 194 76.4127C194 173.413 37 135.413 20 188.913C17.2 203.713 20.0001 206.413 20.0001 208.913" stroke="#E6E6E6" stroke-width="2" stroke-linejoin="round" stroke-dasharray="5 7"/>
<defs>
<linearGradient id="paint0_linear_607_2" x1="26.4945" y1="193.694" x2="26.4946" y2="173.91" gradientUnits="userSpaceOnUse">
<stop offset="0.00558659" stop-color="#F7BD6F"/>
<stop offset="0.4496" stop-color="#F39958"/>
<stop offset="1" stop-color="#ED6637"/>
</linearGradient>
<clipPath id="clip0_607_2">
<rect width="53" height="90" fill="white" transform="translate(53 263.913) rotate(-180)"/>
</clipPath>
</defs>
</svg>
